<svg width="100" height="100" viewBox="0 0 100 100" fill="none" xmlns="http://www.w3.org/2000/svg">
<path fill-rule="evenodd" clip-rule="evenodd" d="M64.5666 49.524C74.7166 47.894 78.7645 43.1187 78.5691 32.8677C78.5681 32.8176 78.5642 32.6719 78.5582 32.4529L78.5581 32.4512C78.523 31.166 78.4191 27.3697 78.4479 25.5869C78.4614 24.4419 78.1717 23.8223 76.8247 23.93C75.9673 23.9981 75.1089 24.0599 74.2504 24.1216C70.0982 24.4204 65.9435 24.7193 61.8859 25.7351C55.1035 27.3987 50.3754 32.3558 50.0184 38.229C49.8898 40.3163 49.914 42.4119 49.9382 44.507C49.952 45.7041 49.9658 46.901 49.9511 48.0961C49.9376 49.1198 50.1397 49.7193 51.352 49.7193C52.3847 49.7367 53.4174 49.7722 54.4502 49.8077C57.8223 49.9236 61.1944 50.0396 64.5666 49.524ZM19.2459 67.0006C19.2826 67.9131 19.3205 68.8526 19.273 69.8302L19.3029 70.3973C19.3973 72.188 19.5051 74.2307 19.5963 76.2624C19.6367 77.1379 19.7243 77.8115 20.8693 77.7037C22.4931 77.5158 24.1296 77.4044 25.7656 77.293C29.9924 77.0054 34.2162 76.7179 38.2125 75.1106C43.4795 73.0901 47.231 69.5675 47.7766 63.6607C47.9836 61.4588 47.9458 59.2569 47.908 57.055C47.888 55.8893 47.868 54.7236 47.8843 53.5578C47.9382 52.5408 47.716 51.9683 46.5373 51.9077L46.3141 51.8963C40.8514 51.6168 35.3652 51.3362 30.0494 52.8911C25.0047 54.3795 20.876 57.0265 19.4885 62.5427C19.1243 63.9868 19.1835 65.4549 19.2459 67.0006ZM34.0834 29.5001C43.9505 29.5001 46.9881 32.3828 47.5539 42.2567C47.7494 45.6822 47.8471 47.3929 47.0392 48.2473C46.2331 49.0997 44.5257 49.0997 41.115 49.0997C33.814 49.0997 29.9749 45.6714 29.1465 38.4041C29.0641 37.6955 28.9911 36.9857 28.9182 36.276L28.9182 36.2759L28.9182 36.2759C28.7526 34.6649 28.5871 33.0544 28.3113 31.4601C28.0621 29.9918 28.3382 29.3587 29.9749 29.4799C30.941 29.5572 31.9245 29.5375 32.9128 29.5177C33.3025 29.5098 33.6929 29.502 34.0834 29.5001ZM50.4032 59.0679C50.585 68.8138 53.8651 72.04 63.584 72.04C64.8813 71.9816 66.1807 71.9906 67.477 72.067C69.309 72.269 69.9556 71.6898 69.6053 69.7905C69.3404 68.3607 69.1752 66.9125 69.0099 65.4624C68.9104 64.5899 68.8108 63.7167 68.6893 62.8464C67.6791 55.7407 64.0151 52.5078 56.9027 52.5078C53.5824 52.5078 51.9272 52.5078 51.1174 53.3352C50.3124 54.1577 50.3427 55.7977 50.4032 59.0679Z" fill="#DADADA"/>
</svg>
