<svg width="1091" height="1112" viewBox="0 0 1091 1112" fill="none" xmlns="http://www.w3.org/2000/svg">
<path d="M545.45 1105.52L274.723 829.62L545.45 555.914L816.177 829.62L545.45 1105.52Z" stroke="#252525" stroke-width="11" stroke-linejoin="round"/>
<path d="M545.428 1105.49L816.155 829.597L1084.73 1105.49H545.428Z" stroke="#252525" stroke-width="11" stroke-linejoin="round"/>
<path d="M545.427 555.916L276.848 280.02L6.12109 6.31323L1084.73 6.31323L816.154 280.02L545.427 555.916Z" stroke="#252525" stroke-width="11" stroke-linejoin="round"/>
<path d="M545.426 555.916L816.153 280.02L1084.73 6.31323V1105.52L816.153 829.623L545.426 555.916Z" stroke="#252525" stroke-width="11" stroke-linejoin="round"/>
<path d="M545.448 555.898L274.721 829.605L276.869 280.002L545.448 555.898Z" stroke="#252525" stroke-width="11" stroke-linejoin="round"/>
<path d="M545.429 1105.52H6.12305L6.12305 555.914L545.429 1105.52Z" stroke="#252525" stroke-width="11" stroke-linejoin="round"/>
<path d="M6.12109 6.31323L6.12109 555.916L274.7 829.623L276.848 280.02L6.12109 6.31323Z" stroke="#252525" stroke-width="11" stroke-linejoin="round"/>
</svg>
