<svg width="100" height="100" viewBox="0 0 100 100" fill="none" xmlns="http://www.w3.org/2000/svg">
<g clip-path="url(#clip0_641_3635)">
<path d="M64.4858 52.0878L67.2266 56.8775C68.5093 59.1192 70.3418 61.3403 69.6444 64.0793C69.3259 65.2327 68.6623 66.2611 67.7426 67.0265C66.8229 67.7919 65.6912 68.2577 64.4992 68.3615C63.1185 68.4543 61.8568 67.9474 60.7547 67.1471L57.886 65.051C56.1299 63.768 53.1903 64.6967 52.2176 66.5373C50.8916 69.0468 52.2758 71.1168 54.279 72.6298C57.2004 74.8376 60.2258 76.5743 63.9805 76.6594C69.1296 76.7757 74.314 73.6087 76.5764 68.9771C78.7037 64.6219 78.4953 59.8127 76.0918 55.6058C75.1661 53.9854 74.2254 52.3733 73.2923 50.7569C69.3184 43.8269 65.3237 36.9087 61.3083 30.0022C58.508 25.297 53.3267 22.9993 47.9686 23.819C44.0658 24.4158 40.8649 26.9831 38.9179 30.3387C37.8712 32.1429 36.8282 33.9493 35.7891 35.7581L26.2526 52.2762C25.4652 53.6402 24.6015 54.9865 23.9072 56.4021C21.2765 61.7613 22.1278 68.7355 26.9007 72.6465C30.5558 75.6416 35.6923 76.7902 40.1964 75.0804C43.4427 73.848 45.8148 71.6438 47.5674 68.6768L60.9677 45.9916L56.2105 37.7491L42.4485 61.0457C41.685 62.3383 40.9266 63.6341 40.1578 64.9237C39.667 65.7791 38.9637 66.4935 38.116 66.9977C37.1021 67.5729 35.911 67.6871 34.7716 67.5053C33.8994 67.3597 33.0782 66.9957 32.3846 66.447C31.4593 65.6691 30.8597 64.5722 30.7045 63.3734C30.4779 61.6776 31.1869 60.3023 32.006 58.8837C36.7609 50.648 41.4036 42.3361 46.2751 34.1688C46.6768 33.4701 47.2539 32.8883 47.9494 32.4811C48.6449 32.0739 49.4346 31.8553 50.2405 31.8469C51.2024 31.8477 52.1391 32.1541 52.9154 32.7219C53.8576 33.4133 54.3059 34.447 54.871 35.4256L64.4858 52.0878Z" fill="#DADADA"/>
<path opacity="0.5" d="M28.8945 74.0134C32.2936 75.9487 36.4617 76.4974 40.1949 75.0795C43.4412 73.8471 45.8133 71.6429 47.5659 68.6759L60.9674 45.9914L56.2104 37.749L42.4484 61.0455C41.6849 62.3382 40.9264 63.634 40.1577 64.9235C39.6668 65.779 38.9636 66.4934 38.1159 66.9975C37.1019 67.5728 35.9108 67.687 34.7715 67.5052C34.1468 67.3993 33.546 67.1827 32.9976 66.8655" fill="url(#paint0_linear_641_3635)"/>
</g>
<defs>
<linearGradient id="paint0_linear_641_3635" x1="54.0839" y1="43.5468" x2="40.2368" y2="68.4422" gradientUnits="userSpaceOnUse">
<stop stop-color="#797979"/>
<stop offset="1" stop-color="white"/>
</linearGradient>
<clipPath id="clip0_641_3635">
<rect width="55.6037" height="53.0071" fill="white" transform="translate(22.4385 23.6553)"/>
</clipPath>
</defs>
</svg>
