<svg width="100" height="100" viewBox="0 0 100 100" fill="none" xmlns="http://www.w3.org/2000/svg">
<g clip-path="url(#clip0_641_3658)">
<path d="M55.7235 42.1256C55.6146 41.504 55.91 40.5656 56.0261 40.1538L61.161 22.4719C61.7782 20.2863 64.7426 21.372 65.674 23.7428C66.2683 25.1657 66.3096 26.8127 65.3868 29.5933C62.6304 37.899 61.4847 42.5511 61.4847 42.5511C61.1207 44.1606 60.845 45.5685 62.453 47.1368C61.0153 45.7644 59.3427 44.6615 57.5149 43.8806L57.5167 43.8794C56.3888 43.3968 55.8483 42.8383 55.7235 42.1256ZM52.1164 70.0405C53.5142 67.5038 53.0944 64.2 50.954 62.0353C49.6365 60.7027 47.8014 59.8998 45.2615 59.0781C42.3603 58.1391 41.0764 57.7523 39.7122 56.5286C38.0734 55.0588 37.1896 52.364 36.3676 50.2778C35.6947 48.57 34.4079 44.4537 31.5721 43.023C28.3742 41.4093 25.7871 42.6463 25.8487 44.608C25.8826 45.6839 26.2927 46.279 27.187 47.9731C31.6811 56.4843 33.3263 63.1226 37.4407 68.7196C37.4549 68.7396 37.472 68.7628 37.4863 68.7825C37.947 69.4298 38.454 70.0428 39.0034 70.6167C39.132 70.751 39.2634 70.8824 39.3948 71.0081C44.1227 75.5449 49.8843 74.0912 52.1164 70.0405ZM73.2516 36.3979V36.3951C72.6482 34.9359 71.4284 34.4994 70.5744 34.8822C70.1319 35.0803 69.8556 35.4538 69.6118 35.8779L63.4597 45.6809C63.1685 46.1868 62.9955 46.7264 63.0908 47.2741C63.1618 47.6818 63.3945 48.0815 63.7685 48.5422L63.7598 48.5374C65.9367 51.1421 67.2575 54.3546 67.5423 57.7371C67.3623 55.48 67.3566 53.4372 67.8738 51.4858C68.7509 48.1688 69.4127 47.4296 71.875 42.5948C72.7976 40.783 73.2906 39.8151 73.4778 38.7749C73.6668 37.7233 73.4859 37.0294 73.2516 36.3979ZM59.3763 60.0339C57.7306 56.3912 54.0822 53.3284 48.268 51.8256C47.4052 51.5714 46.7975 51.3532 46.3358 50.9545C45.9064 50.5839 45.6254 50.0886 45.3445 48.9696L41.3203 32.4194H41.3198C41.0819 31.3955 40.8368 30.3832 40.5733 29.3688C39.7981 26.3848 38.7518 24.9181 37.0805 24.141C34.4839 22.9338 32.6938 24.6236 33.157 26.524V26.5269C33.1886 26.6431 33.2211 26.764 33.2534 26.8842L33.265 26.9274C33.376 27.3395 33.4912 27.7722 33.6108 28.2255L39.9913 52.1824C40.3105 53.1005 40.6125 53.8318 41.3211 54.5347C42.3067 55.5147 43.954 56.1052 46.0626 56.8109C50.1281 58.1709 52.038 59.1776 53.7423 61.3822C56.0729 64.3971 55.8614 68.3251 54.0394 71.1876C52.494 73.6156 49.3864 75.4123 45.6843 74.6313C44.9021 74.4663 44.0358 74.2297 43.2311 73.8161C45.2081 74.8683 47.379 75.5061 49.611 75.6903C49.6252 75.6903 49.6396 75.6931 49.6542 75.6931C58.308 76.2877 62.6565 67.2998 59.3763 60.0339ZM54.9507 45.58C54.232 45.2307 53.7836 44.9737 53.5213 44.5783C53.2923 44.2334 53.2059 43.8375 53.1793 43.2458C53.1716 43.0714 53.1565 42.8858 53.1448 42.6887C52.8676 38.3631 52.9244 29.872 52.5787 24.495C52.3816 21.4691 52.1193 19.7038 51.0479 18.2896C49.5836 16.2437 47.0349 16.0696 46.1001 17.2658C45.7673 17.6916 45.7299 18.3249 45.7847 18.9609L47.2877 42.9687L47.5592 46.1115C47.6477 47.0744 47.711 47.6769 47.9468 48.1306C48.0699 48.3938 48.2617 48.6189 48.502 48.7823C48.8622 49.048 49.3782 49.2232 49.9448 49.4215C53.1943 50.4725 55.8901 51.8516 57.8697 53.5811C63.3754 58.3912 64.0928 64.9266 61.5233 69.6648C60.6524 71.2708 59.3853 72.7844 57.7839 73.893C56.8544 74.5364 55.816 75.0657 54.6675 75.3392C57.0676 74.7988 59.3166 73.729 61.2502 72.2079C61.2934 72.1733 61.3388 72.1364 61.3816 72.1021C63.0751 70.6663 64.3927 68.8391 65.2202 66.7789C67.8085 60.3561 66.4896 51.1891 54.951 45.58H54.9507Z" fill="#DADADA"/>
</g>
<defs>
<clipPath id="clip0_641_3658">
<rect width="47.7091" height="59.2015" fill="white" transform="translate(25.8447 16.5195)"/>
</clipPath>
</defs>
</svg>
