<svg width="100" height="100" viewBox="0 0 100 100" fill="none" xmlns="http://www.w3.org/2000/svg">
<path fill-rule="evenodd" clip-rule="evenodd" d="M20.1516 49.9629H17.3616C17.448 46.5547 18.0439 43.2731 19.0759 40.1914L21.6984 41.1465C20.7736 43.9296 20.2367 46.8898 20.1516 49.9629ZM23.3238 41.7383C22.9784 42.7836 22.691 43.8553 22.4654 44.9495L25.2145 45.4351C25.41 44.502 25.6553 43.5872 25.9473 42.6936L23.3238 41.7383ZM21.8809 49.9629C21.9138 48.8422 22.0104 47.7374 22.1671 46.6522L24.9164 47.1377C24.7855 48.0647 24.7032 49.0073 24.6722 49.9629H21.8809ZM26.5386 41.0693L23.9152 40.1141C24.3276 39.0793 24.7979 38.0739 25.3222 37.1019L27.7378 38.5015C27.2936 39.3317 26.8928 40.1886 26.5386 41.0693ZM28.6033 37.0052L26.188 35.6057C26.7726 34.6617 27.4099 33.7538 28.0958 32.8862L30.2333 34.681C29.6495 35.4244 29.1051 36.2002 28.6033 37.0052ZM22.2898 39.5222L19.6673 38.5672C20.8953 35.449 22.5779 32.5597 24.6335 29.9808L26.7712 31.7743C24.9218 34.1056 23.4042 36.712 22.2898 39.5222ZM31.3451 33.3573L29.2077 31.5626C29.9447 30.7363 30.7284 29.9525 31.5546 29.2154L33.3479 31.3541C32.6448 31.9854 31.9762 32.6542 31.3451 33.3573ZM34.6713 30.242L32.8781 28.1035C33.7461 27.4171 34.6544 26.7794 35.5988 26.1946L36.994 28.6121C36.1895 29.114 35.4142 29.6583 34.6713 30.242ZM27.8831 30.4508L25.7453 28.6572C27.9415 26.1748 30.5007 24.0209 33.3396 22.2787L34.7343 24.6964C32.1774 26.2739 29.8695 28.2162 27.8831 30.4508ZM38.4901 27.7462L37.0949 25.3287C38.068 24.8038 39.0745 24.3329 40.1105 23.9201L41.0655 26.543C40.1822 26.8983 39.3226 27.3004 38.4901 27.7462ZM42.6899 25.9518L41.7349 23.3289C42.7801 22.9836 43.8517 22.6963 44.9458 22.4708L45.4306 25.2193C44.4978 25.4148 43.5833 25.6599 42.6899 25.9518ZM36.2305 23.8306L34.8358 21.4129C37.7143 19.8451 40.8486 18.6875 44.1599 18.0187L44.6452 20.7675C41.6595 21.3778 38.8317 22.4217 36.2305 23.8306ZM47.1333 24.9212L46.6485 22.1727C47.7337 22.016 48.8383 21.9195 49.9589 21.8867V24.677C49.0032 24.7081 48.0605 24.7903 47.1333 24.9212ZM51.6875 24.6771V21.8867C52.8075 21.9196 53.9115 22.0161 54.9961 22.1727L54.5113 24.921C53.5848 24.7903 52.6426 24.7081 51.6875 24.6771ZM46.3479 20.4694L45.8626 17.7205C47.4811 17.4801 49.1373 17.3555 50.8226 17.3555C52.508 17.3555 54.1643 17.4801 55.7828 17.7205L55.2969 20.4694C53.8362 20.256 52.3422 20.1455 50.8223 20.1455C49.3025 20.1455 47.8085 20.256 46.3479 20.4694ZM56.214 25.219L56.6988 22.4708C57.7925 22.6962 58.8637 22.9834 59.9086 23.3285L58.955 25.9514C58.0615 25.6595 57.1469 25.4144 56.214 25.219ZM60.5793 26.5426L61.533 23.9196C62.568 24.332 63.5737 24.8023 64.5459 25.3266L63.1522 27.7441C62.3204 27.299 61.4618 26.8974 60.5793 26.5426ZM56.9996 20.7675L57.4855 18.0187C60.7956 18.6873 63.9287 19.8443 66.8063 21.4112L65.4103 23.8285C62.8102 22.4207 59.9837 21.3775 56.9996 20.7675ZM64.6484 28.6098L66.0422 26.1923C66.9872 26.7773 67.8961 27.4153 68.7647 28.1019L66.9733 30.2409C66.2298 29.6567 65.4537 29.112 64.6484 28.6098ZM68.2968 31.3528C69.0003 31.9844 69.6694 32.6536 70.3009 33.3572L72.4375 31.5631C71.6998 30.736 70.9153 29.9515 70.0882 29.2138L68.2968 31.3528ZM66.9066 24.6941L68.3025 22.2768C71.1421 24.019 73.7018 26.1729 75.8985 28.6554L73.7617 30.4509C71.7743 28.2152 69.465 26.2721 66.9066 24.6941ZM71.4127 34.6809L73.5493 32.8868C74.2349 33.7541 74.8719 34.6615 75.4562 35.605L73.04 37.0006C72.5389 36.1972 71.9954 35.4229 71.4127 34.6809ZM73.9058 38.4968C74.3509 39.3283 74.7524 40.1867 75.1073 41.0688L77.7295 40.1141C77.317 39.079 76.8465 38.0734 76.322 37.1012L73.9058 38.4968ZM74.8735 31.7745L77.0104 29.979C79.0665 32.5583 80.7496 35.4482 81.9779 38.567L79.3549 39.5222C78.2404 36.7121 76.7229 34.1057 74.8735 31.7745ZM75.6986 42.6931L78.3209 41.7384C78.6662 42.7835 78.9535 43.855 79.1792 44.949L76.4314 45.4343C76.2359 44.5013 75.9907 43.5867 75.6986 42.6931ZM76.7296 47.137C76.8605 48.0642 76.9428 49.007 76.9739 49.9629H79.7638C79.7309 48.842 79.6343 47.7371 79.4775 46.6517L76.7296 47.137ZM79.9463 41.1465L82.5693 40.1913C83.6013 43.273 84.1972 46.5546 84.2836 49.9629H81.4931C81.408 46.8898 80.871 43.9296 79.9463 41.1465ZM17.3616 51.6914H20.1515C20.2364 54.7644 20.7731 57.7244 21.6976 60.5075L19.0753 61.4619C18.0436 58.3805 17.4479 55.0993 17.3616 51.6914ZM19.6666 63.0862L22.2889 62.1319C23.4036 64.9434 24.9219 67.551 26.7722 69.8832L24.6348 71.6759C22.5783 69.0961 20.895 66.2056 19.6666 63.0862ZM25.7466 72.9994L27.8841 71.2068C29.8705 73.4411 32.1785 75.3832 34.7354 76.9606L33.341 79.3772C30.5021 77.6351 27.943 75.4815 25.7466 72.9994ZM34.8372 80.2429L36.2316 77.8264C38.8324 79.2349 41.6597 80.2786 44.6449 80.8888L44.1604 83.6364C40.8494 82.9677 37.7155 81.8104 34.8372 80.2429ZM45.8631 83.9346L46.3476 81.1869C47.8083 81.4004 49.3024 81.5109 50.8223 81.5109C52.3423 81.5109 53.8365 81.4004 55.2972 81.1869L55.7824 83.9346C54.164 84.1749 52.5079 84.2995 50.8226 84.2995C49.1375 84.2995 47.4814 84.1749 45.8631 83.9346ZM57.485 83.6364L56.9999 80.8888C59.9843 80.2787 62.8109 79.2354 65.4112 77.8273L66.8058 80.2441C63.9281 81.811 60.7951 82.9679 57.485 83.6364ZM68.302 79.3786L66.9075 76.9617C69.4651 75.3841 71.7737 73.4416 73.7607 71.2066L75.8971 73.0011C73.7005 75.4832 71.1412 77.6367 68.302 79.3786ZM77.0091 71.6777L74.8726 69.8831C76.7228 67.5509 78.2411 64.9433 79.3558 62.1319L81.9786 63.0863C80.7499 66.2064 79.0662 69.0975 77.0091 71.6777ZM76.3214 64.5564C76.8465 63.5831 77.3175 62.5763 77.7304 61.54L75.1082 60.5846C74.7533 61.4673 74.3516 62.3261 73.9063 63.1581L76.3214 64.5564ZM73.0405 64.6543C72.5389 65.4587 71.9948 66.2338 71.4114 66.9766L73.5483 68.7709C74.234 67.9036 74.8711 66.9961 75.4555 66.0525L73.0405 64.6543ZM75.6994 58.9602L78.3217 59.9156C78.667 58.8701 78.9543 57.7982 79.1799 56.7038L76.4319 56.219C76.2365 57.152 75.9914 58.0667 75.6994 58.9602ZM76.73 54.5163L79.478 55.0011C79.6346 53.9162 79.731 52.8118 79.7638 51.6914H76.9739C76.9429 52.6469 76.8607 53.5894 76.73 54.5163ZM82.5699 61.462L79.9471 60.5075C80.8715 57.7244 81.4082 54.7644 81.4931 51.6914H84.2837C84.1973 55.0993 83.6016 58.3806 82.5699 61.462ZM72.4364 70.0945L70.2995 68.3002C69.6667 69.0051 68.9961 69.6755 68.291 70.3082L70.0839 72.4464C70.9122 71.708 71.6977 70.9226 72.4364 70.0945ZM64.6454 73.0479C65.4496 72.5466 66.2246 72.0028 66.9672 71.4198L68.7601 73.558C67.893 74.2433 66.9857 74.88 66.0424 75.464L64.6454 73.0479ZM64.5461 76.3296L63.1491 73.9134C62.3187 74.3577 61.4615 74.7585 60.5806 75.1128L61.5361 77.7355C62.5701 77.3234 63.5748 76.8534 64.5461 76.3296ZM56.6993 79.1855C57.794 78.9598 58.8661 78.6723 59.9118 78.3268L58.9562 75.704C58.0625 75.9961 57.1475 76.2413 56.2143 76.4368L56.6993 79.1855ZM54.9966 79.4836L54.5116 76.7348C53.5849 76.8656 52.6427 76.9478 51.6875 76.9788V79.7696C52.8077 79.7367 53.9119 79.6403 54.9966 79.4836ZM49.9589 79.7697C48.8382 79.7369 47.7334 79.6403 46.648 79.4836L47.1331 76.7346C48.0603 76.8655 49.0031 76.9478 49.9589 76.9788V79.7697ZM44.9453 79.1855L45.4304 76.4365C44.4974 76.241 43.5827 75.9958 42.6892 75.7038L41.734 78.3272C42.7793 78.6725 43.8511 78.9599 44.9453 79.1855ZM41.0649 75.1125C40.1826 74.7577 39.3242 74.3562 38.4926 73.911L37.0963 76.3284C38.0687 76.8529 39.0745 77.3234 40.1097 77.7359L41.0649 75.1125ZM35.6002 75.4627L36.9964 73.0453C36.1917 72.5434 35.4162 71.999 34.6731 71.4153L32.8813 73.5555C33.7488 74.2412 34.6564 74.8783 35.6002 75.4627ZM31.5577 72.4437L33.3496 70.3033C32.6465 69.6721 31.9777 69.0033 31.3465 68.3001L29.2088 70.0951C29.9464 70.9219 30.7307 71.7062 31.5577 72.4437ZM28.0969 68.7715L30.2346 66.9765C29.6506 66.233 29.106 65.457 28.604 64.6518L26.1873 66.0495C26.7723 66.9944 27.4103 67.9031 28.0969 68.7715ZM25.3216 64.5533L27.7384 63.1555C27.2935 62.3242 26.8923 61.4661 26.5377 60.5842L23.9142 61.54C24.3267 62.5752 24.7971 63.5809 25.3216 64.5533ZM23.323 59.9157L25.9465 58.9598C25.6546 58.0665 25.4096 57.152 25.2142 56.2193L22.4649 56.7047C22.6905 57.7988 22.9778 58.8704 23.323 59.9157ZM22.1668 55.002L24.9161 54.5166C24.7853 53.5896 24.7031 52.647 24.6721 51.6914H21.8808C21.9136 52.8121 22.0101 53.9168 22.1668 55.002ZM50.8226 15.627C31.3819 15.627 15.6221 31.3868 15.6221 50.8275C15.6221 70.2682 31.3819 86.0281 50.8226 86.0281C70.2634 86.0281 86.0232 70.2682 86.0232 50.8275C86.0232 31.3868 70.2634 15.627 50.8226 15.627ZM50.823 26.3916C37.3273 26.3916 26.3868 37.3321 26.3868 50.8279C26.3868 64.3237 37.3273 75.2642 50.823 75.2642C64.3188 75.2642 75.2593 64.3237 75.2593 50.8279C75.2593 37.3321 64.3188 26.3916 50.823 26.3916Z" fill="#DADADA"/>
</svg>
