<svg width="71" height="53" viewBox="0 0 71 53" fill="none" xmlns="http://www.w3.org/2000/svg">
<path fill-rule="evenodd" clip-rule="evenodd" d="M34.0403 0C32.8437 9.97616e-05 31.6683 0.315129 30.6321 0.91343C29.596 1.51173 28.7355 2.37222 28.1372 3.40844L0.0546875 52.1762H7.76072C8.95443 52.1777 10.1275 51.8646 11.1616 51.2684C12.1958 50.6722 13.0545 49.8139 13.6514 48.7802L41.8945 0L34.0403 0ZM46.7598 0.321183V9.83444e-05L70.4089 9.83444e-05V0.321183L63.802 0.321183V36.5667C63.802 37.7646 63.7155 39.2465 63.5427 41.0248C63.3678 42.8314 62.8168 44.5814 61.9249 46.1622C60.8893 47.9197 59.412 49.3757 57.6396 50.3857C55.1337 51.7059 52.3176 52.3246 49.489 52.1763H49.242C50.0126 52.1709 50.7665 51.9522 51.4204 51.5446C52.0743 51.137 52.6027 50.5564 52.9469 49.867C53.018 49.7607 53.0721 49.6441 53.1074 49.5212C53.2441 49.1892 53.3355 48.8403 53.3791 48.4839C53.3849 48.4471 53.3849 48.4096 53.3791 48.3727V48.1504C53.386 48.093 53.386 48.035 53.3791 47.9776V46.508V6.92812C53.3791 6.05944 53.2078 5.19929 52.875 4.3969C52.5422 3.5945 52.0544 2.86561 51.4396 2.25194C50.8248 1.63827 50.095 1.15186 49.292 0.820557C48.489 0.489254 47.6285 0.319559 46.7598 0.321183ZM20.7784 0.00122256V0.322307C16.0528 0.320026 11.4664 1.92152 7.76933 4.8648C4.07228 7.80807 1.48353 11.9189 0.426572 16.5247H0.105488L0.105488 0.00122256L20.7784 0.00122256ZM38.2505 48.0969C40.2501 50.1543 42.8554 51.5183 45.6855 51.9896L45.8831 52.1748H22.9997L23.1849 51.9896C26.0158 51.5202 28.6221 50.1568 30.6221 48.099C32.6221 46.0412 33.9107 43.3972 34.2994 40.554L34.4352 40.4305L34.571 40.554C34.9615 43.3964 36.2508 46.0395 38.2505 48.0969Z" fill="#DADADA"/>
</svg>
