<svg width="100" height="100" viewBox="0 0 100 100" fill="none" xmlns="http://www.w3.org/2000/svg">
<path fill-rule="evenodd" clip-rule="evenodd" d="M55.3847 28.1668L55.2194 28.3336L55.2208 30.2672L55.2222 32.2009L55.3755 32.3665C55.5768 32.5838 55.8602 32.616 55.8984 32.4259C55.9404 32.2173 56.33 31.7772 56.6312 31.5983C56.7149 31.5485 56.7276 31.5189 56.7276 31.3741C56.7276 31.1841 56.8309 31.1401 56.9556 31.2771C56.9905 31.3154 57.0561 31.3468 57.1013 31.3468C57.2255 31.3468 57.2591 31.2888 56.4553 32.4596C56.3312 32.6403 56.2226 32.8067 56.2138 32.8295C56.205 32.8523 56.384 33.0101 56.6118 33.1802C56.8997 33.3953 57.0065 33.4933 56.9627 33.5018C56.928 33.5085 56.8806 33.4989 56.8575 33.4803C56.7713 33.4116 55.4272 32.7064 55.3822 32.7064C55.2084 32.7064 55.2194 31.9931 55.2194 43.2638V53.6936H55.6204H56.0214L56.4534 53.4308L56.8854 53.168L56.904 53.3175C56.9395 53.6027 57.1703 53.8331 57.4205 53.8331C57.5361 53.8331 57.5665 53.9177 57.5706 54.2514C57.5764 54.7281 57.6804 54.8092 58.2851 54.8092L58.7795 54.8091L58.9816 54.6697C59.2363 54.494 59.2265 54.4925 59.3781 54.728C59.6341 55.1257 59.5996 55.1578 58.9163 55.1578H58.4151L58.4044 55.3234L58.3937 55.489L58.1904 55.5141C57.8803 55.5524 57.5408 55.7463 57.2727 56.0383L57.0505 56.2802L56.9067 56.0697C56.7519 55.8431 56.7522 55.8407 56.9412 55.8068C57.2057 55.7595 57.2362 55.6804 57.2362 55.0418V54.478L56.7297 54.4683L56.2233 54.4586L56.036 54.6424L55.8487 54.8263L55.8585 55.2439L55.8683 55.6615L56.026 55.6882C56.3938 55.7505 56.4709 55.9464 56.1557 56.0175C55.853 56.0859 55.5417 56.3263 55.3105 56.6705L55.2194 56.8061V57.8311V58.8562L55.7718 59.4657C56.0757 59.8009 56.3297 60.091 56.3363 60.1104C56.3441 60.133 56.2068 60.142 55.9505 60.1356L55.5526 60.1257L55.5425 59.8033L55.5324 59.4808H55.3759H55.2194V63.1722V66.8637L55.3567 67.0681C55.5105 67.2969 55.6307 67.398 55.8244 67.4615C55.9849 67.514 55.9859 67.5264 55.8403 67.6666C55.7048 67.7972 55.6797 67.7998 55.4178 67.7102L55.2194 67.6424V69.9762V72.3102H55.3741C55.5464 72.3102 55.528 72.3463 55.5902 71.8867C55.6178 71.6826 55.7133 71.5239 55.8254 71.4959C55.8731 71.4841 56.1224 71.3732 56.3794 71.2495C56.8577 71.0194 56.923 71.0047 56.8827 71.1365C56.8272 71.3181 56.6396 71.4254 56.1501 71.5559C55.8932 71.6243 55.8686 71.6387 55.8446 71.7349C55.8102 71.8729 55.6753 72.5633 55.6754 72.6015C55.6754 72.6179 55.7885 72.7473 55.9268 72.8891L56.1783 73.1469H56.3816C56.5709 73.1469 56.5967 73.1366 56.7545 72.9987C57.0771 72.7169 57.3484 72.4853 57.4412 72.4128L57.5343 72.34L57.5338 72.4209C57.5334 72.4728 57.387 72.6751 57.1263 72.9838L56.7195 73.4658L56.7937 73.6905C56.8345 73.8142 56.8679 73.9228 56.8679 73.932C56.8679 73.9709 56.461 73.9442 56.2498 73.8915C55.9893 73.8264 55.7991 73.6777 55.7634 73.511C55.7223 73.3197 55.7004 73.3044 55.4525 73.2934L55.2194 73.2831V73.9746V74.666L55.3872 74.8303L55.555 74.9946H56.0525H56.5501L56.7984 74.8349C57.0723 74.6588 57.0437 74.656 57.2777 74.8813L57.3953 74.9946H58.0118C58.7777 74.9946 58.9023 74.9407 58.9023 74.6094V74.5065H59.4064H59.9105L59.9326 74.6441C59.9794 74.9352 60.0578 74.9756 60.6015 74.9886L61.0793 75L61.5858 74.5964C62.2567 74.0617 62.2639 74.0616 62.2771 74.5849L62.287 74.9771H63.2866H64.2863L64.2967 74.7409L64.3071 74.5046L64.8052 74.5143C65.3378 74.5246 65.561 74.6138 65.1175 74.6391L64.9315 74.6497L64.9421 74.8134L64.9527 74.9771L65.2948 74.9871L65.6369 74.9971L65.8122 74.8342C65.9839 74.6745 66.052 74.4805 65.9567 74.422C65.9398 74.4117 65.8604 74.2933 65.7802 74.1591L65.6343 73.9151L65.6442 73.5397L65.6542 73.1643L65.8208 73.1536L65.9874 73.143V72.3949V71.6467L65.6542 71.1506C65.4709 70.8778 65.321 70.6265 65.321 70.5922C65.321 70.3863 65.544 70.1491 65.7379 70.1488C65.948 70.1485 65.9874 70.0281 65.9874 69.3874V68.8041L65.8022 68.6223L65.6169 68.4404L65.3024 68.4405L64.9878 68.4406L64.7171 68.6148C64.468 68.7752 64.4296 68.789 64.2336 68.789C63.9093 68.789 63.9961 68.6977 64.5136 68.4944C64.9964 68.3047 64.9526 68.3548 65.1791 67.7345L65.3286 67.3248H65.4827H65.6367V67.7451V68.1654L65.8033 68.1547L65.9699 68.1441L65.9788 64.973L65.9878 61.8019L65.8223 61.6349C65.615 61.4257 65.6062 61.4257 64.9615 61.6329C64.5142 61.7766 64.4442 61.809 64.4442 61.8717C64.4441 61.9745 64.4203 61.9872 64.2931 61.9529C63.709 61.7952 63.6033 61.7817 62.9543 61.7817C62.4334 61.7817 62.3045 61.7724 62.3045 61.7348C62.3045 61.6283 62.4801 61.5367 62.743 61.5059L62.9184 61.4854L62.9359 61.3285L62.9534 61.1716L63.5494 61.162L64.1454 61.1524L64.3129 60.9884C64.4201 60.8835 64.4731 60.8052 64.46 60.7713C64.4487 60.7422 64.4106 60.5953 64.3753 60.4449L64.3112 60.1714L64.4261 60.1237C64.7322 59.9966 64.9283 59.4834 64.9384 58.7835C64.9405 58.6397 64.9526 58.4853 64.9653 58.4403L64.9884 58.3585L65.0549 58.4316C65.1116 58.4938 65.1618 58.5046 65.3938 58.5046H65.6663L65.8268 58.3222L65.9874 58.1398V57.4855V56.8312H65.7594C65.5295 56.8312 65.4876 56.8062 65.5841 56.7266C65.6572 56.6663 65.6499 56.4645 65.5655 56.2089L65.4943 55.9935L65.7409 55.5779L65.9874 55.1624V41.7428V28.3233L65.8135 28.1617L65.6397 28H60.5948H55.55L55.3847 28.1668ZM42.1013 28.1291C41.6835 28.1461 40.1722 28.2765 39.9793 28.3123C39.8828 28.3301 39.7171 28.3548 39.611 28.3671C37.0692 28.6611 34.3376 29.7418 32.5434 31.1632C30.1557 33.0546 28.4856 36.2216 28.3558 39.1037C28.3238 39.8159 28.306 39.7555 28.5725 39.84C28.8356 39.9235 28.8956 40.0381 28.6958 40.0758C28.3074 40.1488 28.2695 40.4084 28.4572 41.7114C28.667 43.1675 29.1266 44.0863 29.2529 43.3019C29.2758 43.1596 29.3128 42.9373 29.335 42.8078L29.3755 42.5725H29.7871C30.1808 42.5725 30.2023 42.5763 30.281 42.6597C30.4017 42.7874 30.4857 42.7682 30.7107 42.5617C30.9602 42.3327 30.988 42.1695 30.8072 41.9973C30.6422 41.8402 30.6655 41.7824 31.0373 41.4236L31.3726 41.1L31.4517 41.1739C31.5106 41.2289 31.5757 41.2477 31.7075 41.2477H31.8844L31.9646 40.9165L32.0449 40.5853H32.1856C32.3196 40.5853 32.3235 40.5883 32.2682 40.6491C32.1927 40.732 32.195 40.7701 32.2803 40.8468C32.3896 40.9451 32.3792 41.2436 32.2628 41.3523C32.1549 41.4531 32.1524 41.5234 32.2523 41.6496L32.3294 41.7471L32.2435 41.8018C31.8962 42.0231 31.5072 42.5195 31.236 43.0876C31.0119 43.5567 31.0013 43.8192 31.1656 44.8301L31.2068 45.0832L31.3314 45.062C31.4 45.0504 31.5665 45.0181 31.7016 44.9902C31.8366 44.9624 32.0016 44.93 32.0682 44.9182L32.1893 44.8969L32.1208 44.9854C32.0832 45.0342 31.9458 45.2076 31.8156 45.3709C31.5008 45.7657 31.4838 45.745 32.1225 45.745C32.6631 45.745 32.6661 45.7454 32.6655 45.8234C32.6651 45.8665 32.6338 46.231 32.5959 46.6333C32.5183 47.4579 32.5095 47.4191 32.7884 47.4861C33.138 47.5701 33.1718 47.8734 32.8766 48.276C32.7801 48.4075 32.7012 48.5239 32.7012 48.5346C32.7012 48.6333 34.1738 49.384 34.3597 49.3801C34.7355 49.3723 34.9767 49.1592 35.0564 48.7646L35.096 48.5688H35.7417H36.3873L36.3769 48.7991L36.3666 49.0294L36.0333 49.1127C35.3911 49.2733 33.7796 50.192 33.6895 50.4489C33.6373 50.5974 33.3066 50.7251 32.9635 50.7291C32.5576 50.7338 31.8494 51.4332 31.7333 51.9441C31.6805 52.1767 31.6698 52.1946 31.5838 52.1958C30.4066 52.2115 29.1587 53.7058 27.9824 56.5083L27.8326 56.8653L27.9019 56.9528C27.9507 57.0145 27.9575 57.0408 27.9248 57.0417C27.4802 57.0537 26.9248 59.5112 27.3558 59.5595C27.6785 59.5956 27.743 59.7869 27.487 59.9482C27.1602 60.1542 26.8561 60.9548 27.0732 61.0376C27.1211 61.0558 27.1205 61.0657 27.068 61.1233C26.9978 61.2005 27.0086 61.4607 27.1229 62.4441C27.3195 64.1351 27.6318 65.0577 28.0377 65.1462C28.1669 65.1744 28.1707 65.148 27.9849 65.5169L27.8283 65.8278L27.9965 66.1667C28.1928 66.5621 28.0841 66.5339 28.9506 66.4148L29.4968 66.3398L29.7496 66.5069C30.0019 66.6737 30.0027 66.6739 30.1724 66.635C30.7634 66.4994 31.0432 66.1855 30.8092 65.9205C30.5652 65.6443 30.737 65.6143 31.3021 65.8345L31.6825 65.9826L31.6833 66.2233C31.6845 66.594 31.4465 66.777 30.7633 66.9305L30.5266 66.9838L30.526 67.2502L30.5254 67.5166L30.7803 67.751L31.0351 67.9855L31.4454 67.9863L31.8556 67.9872L32.0155 68.1528C32.1655 68.3082 32.1749 68.329 32.1665 68.489L32.1575 68.6596L31.9988 68.6995C31.6599 68.7847 30.5476 69.5566 30.2513 69.9123L30.1716 70.0079L30.9717 70.8051C32.41 72.2382 33.3554 72.854 34.2996 72.9724C34.458 72.9922 34.5384 73.0229 34.6137 73.0924C34.7047 73.1762 35.293 73.4845 35.5603 73.5885C35.6179 73.6109 35.744 73.6612 35.8404 73.7002C36.2821 73.8789 36.8633 74.0946 37.0034 74.1318C37.2624 74.2007 37.5069 74.01 37.8981 73.4345C38.0841 73.1607 38.0881 73.1587 38.2957 73.233C38.5071 73.3087 38.5938 73.3016 38.5938 73.2086C38.5938 73.1659 38.6351 73.0235 38.6855 72.8923L38.7773 72.6538L38.7078 72.4732C38.6697 72.3739 38.6267 72.2653 38.6124 72.2317C38.5884 72.1755 38.6201 72.1707 39.0124 72.1707C39.4698 72.1707 39.4624 72.173 39.7628 71.9354C39.96 71.7794 39.9861 71.8737 39.8097 72.1047C39.2011 72.9015 38.7692 73.907 38.7692 74.5271C38.7692 74.6785 38.6512 74.6647 41.0062 74.7882C42.033 74.842 42.0621 74.8245 42.0946 74.1317C42.1072 73.863 42.1192 73.8092 42.1669 73.8091C42.3716 73.8086 42.5324 73.5862 42.5988 73.2113C42.631 73.0295 42.644 73.0074 42.7189 73.0074H42.8028L42.8029 73.4868V73.9661L43.1273 74.0293C43.7467 74.1497 43.8185 74.2173 43.6966 74.5642L43.6128 74.8024L43.7054 74.8985L43.798 74.9946H48.5016H53.2052L53.3705 74.8278L53.5358 74.661V70.5888V66.5167L53.3737 66.3281L53.2116 66.1395H49.8378H46.464L46.1328 66.4009C45.8071 66.6581 45.5663 66.7687 45.7459 66.5787C45.9512 66.3615 45.1312 65.9492 44.5411 65.9729L44.2976 65.9826L44.249 66.1744C44.1775 66.4563 43.6974 66.6655 43.6289 66.4445C43.6215 66.4206 43.606 66.3581 43.5944 66.3058C43.5406 66.0612 43.1869 65.8689 42.7327 65.8372C42.4515 65.8176 42.3544 65.7858 41.2595 65.3551C39.7374 64.7561 39.918 64.7722 39.8578 65.2308C39.8362 65.395 39.8035 65.6248 39.785 65.7414C39.7664 65.8581 39.7513 66.0738 39.7513 66.2208V66.4881H39.6314C39.4653 66.4881 39.4005 66.5189 39.4005 66.5979C39.4005 66.7548 38.9497 67.1273 38.4634 67.3721C38.2905 67.4592 38.2524 67.4643 37.7693 67.4643H37.2582L37.2684 67.1598L37.2785 66.8552L37.4013 66.835C37.7411 66.7791 37.8499 66.4115 37.7167 65.7695C37.6972 65.6758 37.6611 65.505 37.6364 65.39L37.5915 65.1808L37.3775 65.1705C37.0729 65.1559 36.9902 65.2315 36.9371 65.573C36.9019 65.7992 36.8896 65.8257 36.8198 65.8257C36.7379 65.8257 36.7295 65.8027 36.6313 65.3098C36.5672 64.9876 36.5138 65.0391 37.4188 64.5509C38.1816 64.1395 38.4208 63.9951 38.6026 63.8363L38.8043 63.6602V63.4576C38.8043 62.934 38.6568 62.4743 38.2776 61.8157L38.1028 61.512V60.5244V59.5369L38.014 59.4448L37.9252 59.3527L38.0688 59.0071C38.2777 58.5044 38.7295 57.4054 38.8271 57.1624C38.9447 56.8699 38.9298 56.8561 38.6464 56.9953C38.2574 57.1863 38.2511 57.1878 38.1723 57.1095C38.1162 57.0538 38.1028 56.9932 38.1028 56.7964V56.5523H38.6952H39.2876L39.6121 56.2025L39.9366 55.8527L39.8615 55.7732C39.66 55.56 39.7821 55.4992 40.1628 55.6231L40.414 55.7049L40.5474 55.5685C40.9061 55.2017 41.5789 54.9504 42.6625 54.7786C43.8645 54.588 44.5567 54.5652 49.1332 54.5652H53.2067L53.3712 54.3758L53.5358 54.1864V50.2845V46.3826L53.3448 46.2031L53.1538 46.0236L48.9868 46.0325L44.8196 46.0413L44.8093 46.2941L44.799 46.5468H44.6252C44.4679 46.5468 44.4513 46.5393 44.4513 46.4677C44.4513 46.0721 43.7615 45.807 42.5573 45.74L41.9084 45.7039L41.5744 45.5374C39.9362 44.7203 39.0578 43.3479 38.9625 41.4569C38.9504 41.2172 38.9185 40.8799 38.8917 40.7074C38.8649 40.5348 38.8324 40.2877 38.8195 40.1583L38.7961 39.923H38.958H39.1199V39.2606V38.5982H39.2481C39.3701 38.5982 39.3735 38.6013 39.3183 38.6619C39.1778 38.8162 39.3103 39.0871 39.5256 39.0855C39.6061 39.0849 39.6512 39.053 39.7326 38.9388C40.3262 38.1053 41.4134 37.4321 42.6262 37.1469C43.3956 36.9659 43.5707 36.9604 48.5673 36.96L53.1919 36.9596L53.3632 36.7766L53.5346 36.5936L53.5351 32.5134L53.5358 28.4332L53.368 28.2689L53.2001 28.1046L47.7823 28.1115C44.8024 28.1153 42.246 28.1232 42.1013 28.1291ZM49.8178 28.7112V29.1087L49.5285 29.0438C49.3693 29.0081 49.1938 28.966 49.1384 28.9501L49.0377 28.9212L49.2787 28.7289C49.6382 28.442 49.7993 28.3162 49.8091 28.3149C49.8139 28.3143 49.8178 28.4926 49.8178 28.7112ZM40.4423 30.7199C40.4866 30.8367 40.6606 30.9284 40.8375 30.9284C40.9417 30.9284 40.9438 30.9319 40.9438 31.1028V31.2771H40.6988C40.4555 31.2771 40.4534 31.2763 40.4061 31.1638C40.3423 31.0121 40.273 30.9608 40.101 30.9378L39.9568 30.9186L40.1069 30.7666C40.2862 30.585 40.3858 30.5711 40.4423 30.7199ZM52.694 30.8513C52.694 30.9875 52.3621 31.2535 52.2244 31.2278C51.7693 31.143 51.7148 30.9764 52.1065 30.868C52.4481 30.7735 52.694 30.7665 52.694 30.8513ZM44.0364 31.3696C44.1664 31.4865 44.1199 31.5907 43.793 31.914C43.4547 32.2487 43.4555 32.2484 43.2588 32.1486C43.0715 32.0537 42.562 31.9395 42.3255 31.9395C42.0895 31.9395 42.0694 31.8416 42.2767 31.7027C42.419 31.6075 42.5286 31.6091 43.1102 31.7153L43.4702 31.781L43.7061 31.5465C43.9731 31.2811 43.9511 31.2929 44.0364 31.3696ZM60.1468 32.4362C60.8528 32.7437 60.8819 32.7921 60.4631 32.9622C59.6269 33.3019 59.2736 33.4449 59.025 33.5445C58.8707 33.6063 58.7041 33.694 58.6548 33.7394C58.4373 33.9399 58.4182 33.8657 58.5369 33.2817C58.6235 32.8557 58.607 32.7052 58.4463 32.4582C58.3691 32.3395 58.306 32.2292 58.306 32.213C58.306 32.1967 58.5896 32.1835 58.9362 32.1835H59.5663L60.1468 32.4362ZM39.2252 33.9988C39.7188 34.0885 39.7311 34.0945 39.7446 34.2526C39.7579 34.4075 39.7415 34.4095 39.2602 34.3101C39.077 34.2722 38.8126 34.2411 38.6727 34.2408L38.4184 34.2404V34.0835V33.9266L38.6201 33.9261C38.7311 33.9257 39.0033 33.9585 39.2252 33.9988ZM36.6998 35.5129V35.9138H36.4718C36.2495 35.9138 36.2438 35.9115 36.2438 35.823C36.2438 35.6487 36.5783 35.1119 36.687 35.1119C36.694 35.1119 36.6998 35.2923 36.6998 35.5129ZM39.2484 35.6544C39.2661 35.7004 38.9979 36.5935 38.8165 37.0923C38.7412 37.2994 38.5894 37.2969 38.5556 37.0881C38.5132 36.8271 38.2387 36.5844 37.8549 36.4685C37.5784 36.385 37.5872 36.402 37.6867 36.1435L37.7618 35.9486H38.1731C38.5202 35.9486 38.5974 35.9385 38.668 35.884C38.9482 35.6674 39.213 35.5627 39.2484 35.6544ZM34.5251 36.3284C34.5251 36.3683 34.4929 36.4023 34.4433 36.4147C34.2303 36.4678 33.9285 36.8235 33.6806 37.3136C33.5169 37.6373 33.4365 37.7266 33.309 37.7266C32.8709 37.7266 33.1669 36.9008 33.7408 36.5222C34.074 36.3023 34.5251 36.1909 34.5251 36.3284ZM30.5266 36.7679V36.9248H30.1057H29.6848V36.7679V36.611H30.1057H30.5266V36.7679ZM38.3258 37.5323C38.4063 37.6544 38.3196 37.8872 38.1074 38.1188C37.9219 38.3212 37.752 38.1807 37.752 37.8251V37.5872H37.9277C38.06 37.5872 38.1183 37.5699 38.1635 37.5174C38.2405 37.4281 38.2582 37.4297 38.3258 37.5323ZM35.0162 38.1274C35.0162 38.137 34.9445 38.2416 34.8568 38.3599C34.7558 38.4963 34.7057 38.5952 34.7199 38.6302C34.7321 38.6605 34.7626 38.7481 34.7875 38.8248C34.8125 38.9015 34.9202 39.2113 35.0268 39.5133C35.2537 40.1557 35.2791 40.1186 34.7107 39.9767C34.5218 39.9296 34.099 39.8266 33.771 39.7478C33.443 39.6691 33.1539 39.5979 33.1285 39.5897C32.9702 39.5384 33.6672 38.6525 34.0683 38.3953C34.3719 38.2007 35.0162 38.0186 35.0162 38.1274ZM37.758 38.616C37.9435 39.9592 37.9615 39.8881 37.4369 39.8881H37.0976L36.999 39.5307C36.9447 39.3342 36.871 39.0737 36.8351 38.9519C36.7311 38.5986 36.7213 38.6129 37.1119 38.5462C37.3 38.514 37.4933 38.4744 37.5416 38.4581C37.6978 38.4055 37.7324 38.4307 37.758 38.616ZM36.5224 41.9711C36.4988 42.6812 36.055 42.7024 35.7908 42.006L35.7545 41.9101H36.1394C36.4835 41.9101 36.5242 41.9166 36.5224 41.9711ZM34.2828 42.4374C34.5017 42.5453 34.5221 42.5724 34.4374 42.6422C34.3592 42.7067 34.37 42.9319 34.455 43.0083C34.5865 43.1266 34.5482 43.2349 34.3749 43.2349H34.2247L34.0768 42.7846C33.9954 42.5369 33.9288 42.3241 33.9288 42.3116C33.9288 42.2789 34.0456 42.3204 34.2828 42.4374ZM29.5795 43.8064L29.2112 43.8832L29.2003 44.0331C29.1763 44.3608 29.3904 44.7885 29.6706 44.973C29.9727 45.1719 30.3807 45.0719 30.1423 44.8574C30.0523 44.7765 30.0522 44.7317 30.1419 44.6184C30.2056 44.5379 30.2121 44.4864 30.2033 44.1343L30.1933 43.7404L30.0706 43.7351C30.0031 43.7321 29.7821 43.7642 29.5795 43.8064ZM30.1758 45.3119C29.8089 45.5889 29.8166 45.5385 30.0933 45.8496C30.4584 46.2601 30.7774 46.6167 30.9272 46.7819C31.1387 47.0153 31.2078 46.9843 31.2206 46.6503L31.2307 46.3878L31.0214 46.1274C30.786 45.8347 30.6131 45.514 30.5514 45.2561C30.5011 45.0455 30.5354 45.0404 30.1758 45.3119ZM37.4188 45.7395C37.8394 45.9558 37.8668 46.0711 37.5674 46.3646L37.3799 46.5485L36.7329 46.5389L36.086 46.5294L36.0684 46.3725L36.0509 46.2156L35.6613 46.2058L35.2717 46.196L35.0215 46.3394C34.8839 46.4182 34.7623 46.4972 34.7513 46.5148C34.7102 46.581 34.4199 46.5525 34.4199 46.4822C34.4199 46.232 35.0738 45.9303 36.1035 45.7053C36.2868 45.6652 36.4919 45.6203 36.5595 45.6056C36.8775 45.5359 37.0864 45.5685 37.4188 45.7395ZM43.5529 46.4933C43.6743 46.6774 43.6298 46.8877 43.4605 46.9298C42.9725 47.0513 42.6832 47.2333 42.5898 47.4774C42.542 47.6023 42.4713 47.5574 42.4591 47.3945C42.4496 47.2684 42.4588 47.2497 42.5488 47.2127C42.6871 47.1558 42.7714 46.9977 42.7937 46.754C42.8123 46.5496 42.8133 46.548 42.9392 46.5255C43.0089 46.5131 43.0817 46.4906 43.101 46.4756C43.1349 46.4493 43.2666 46.4234 43.4214 46.4126C43.4662 46.4095 43.519 46.4418 43.5529 46.4933ZM56.5522 48.0808V48.8129H56.3789H56.2055L56.1279 48.5732L56.0502 48.3335L56.1784 47.9864C56.249 47.7956 56.3067 47.6284 56.3067 47.6149C56.3067 47.5183 56.4173 47.3487 56.4803 47.3487C56.5505 47.3487 56.5522 47.3658 56.5522 48.0808ZM43.1107 49.2143C43.1922 49.3776 43.2588 49.5188 43.2588 49.5281C43.2588 49.5374 43.1122 49.545 42.933 49.545H42.6073L42.4386 49.3748C42.1982 49.1322 42.3926 48.9509 42.9265 48.9196C42.9463 48.9184 43.0292 49.0511 43.1107 49.2143ZM39.0293 50.8539C38.9774 50.9774 38.858 51.1726 38.7612 51.2924C38.6798 51.3929 38.446 51.5321 38.3586 51.5321C38.2577 51.5321 38.2623 51.5088 38.4364 51.134C38.4994 50.9983 38.6014 50.7775 38.6628 50.6436L38.7747 50.3999L38.9291 50.5624L39.0836 50.7249L39.0293 50.8539ZM56.0311 51.7587C56.2691 52.3464 56.2732 52.3321 55.8927 52.2458C55.5438 52.1666 55.5575 52.1901 55.6253 51.7905C55.7295 51.1761 55.793 51.1712 56.0311 51.7587ZM33.5636 51.8116C34.1143 52.2284 34.454 52.6371 34.522 52.9646C34.5395 53.0491 34.6261 53.3459 34.7143 53.6239C34.9044 54.223 34.8995 54.1816 34.7794 54.182C34.3985 54.1834 34.1254 54.501 34.0527 55.0271L34.0298 55.1927H33.8077C33.5584 55.1927 33.5436 55.1784 33.5422 54.9371C33.5396 54.49 33.3045 54.2109 33.1304 54.4483L33.0627 54.5407L32.3881 54.3612C31.4265 54.1053 31.2706 54.1311 31.2119 54.5555C31.172 54.8433 30.9027 54.9851 30.3161 55.027C30.0819 55.0438 30.1139 55.3098 30.3849 55.5977C30.8364 56.0774 31.1726 56.5896 31.2944 56.9831C31.3986 57.3199 31.3961 57.329 31.1208 57.6026C30.8234 57.8982 30.8005 58.0119 31.0287 58.0587C31.1823 58.0902 31.4017 58.2325 31.5769 58.4142L31.6978 58.5395H32.0241H32.3505V59.1832C32.3505 59.7661 32.3564 59.8301 32.4132 59.8603C32.4719 59.8916 32.6544 59.9434 33.2956 60.1109L33.5567 60.1792L33.7044 60.0351C33.8414 59.9015 33.9286 59.8799 33.929 59.9796C33.9291 60.0025 33.9914 60.2115 34.0676 60.4441C34.1909 60.8209 34.2019 60.8819 34.168 61.0019C34.1471 61.0761 34.1098 61.2222 34.0851 61.3266L34.0401 61.5164L34.2816 61.7639L34.523 62.0114L34.2792 62.4282C33.8555 63.1526 33.933 63.3689 34.683 63.5552C35.1506 63.6714 35.3925 63.6852 35.4834 63.6009C35.5586 63.5312 35.5612 63.5311 35.6413 63.5961C35.7425 63.6781 35.7337 63.8164 35.6264 63.8316C35.5145 63.8475 35.3478 64.0447 35.2838 64.237C35.2037 64.4777 35.209 64.5046 35.3669 64.6578C35.5472 64.8328 35.5462 64.8356 35.2963 64.8615C34.8345 64.9096 34.5251 65.2234 34.5251 65.6438C34.5251 65.8879 34.1292 66.1437 33.3508 66.4025C33.0963 66.487 33.0537 66.4779 33.0525 66.3384C33.0512 66.1816 32.9312 65.8193 32.8528 65.7351L32.767 65.6431L32.8393 65.5666C32.9395 65.4606 32.9298 65.368 32.8064 65.2505C32.7486 65.1954 32.7012 65.1219 32.7012 65.0871C32.7012 65.0044 32.5954 65.0058 32.2102 65.0936C31.7286 65.2033 31.6966 65.1872 32.0172 64.9962C32.1716 64.9043 32.4591 64.7317 32.6562 64.6127C33.0668 64.3648 33.0315 64.3754 33.1476 64.4661C33.3123 64.5949 33.5781 64.4627 33.5781 64.252C33.5781 64.1341 33.2493 63.351 33.1929 63.3344C33.1636 63.3257 32.8792 63.3024 32.5609 63.2826C30.9838 63.1843 30.9124 63.1755 30.9124 63.0807C30.9124 62.9839 31.1818 62.5487 31.2417 62.5486C31.2631 62.5486 31.4464 62.5828 31.649 62.6245L32.0172 62.7005L32.3329 62.5871C32.5065 62.5247 32.7038 62.4473 32.7714 62.415L32.8941 62.3565L32.9043 62.0288C32.914 61.7139 32.9108 61.6974 32.8196 61.6028L32.7247 61.5044L32.8182 61.4314C32.9078 61.3613 32.9117 61.3445 32.9117 61.0244V60.6906L32.6322 60.4169L32.3527 60.1432H31.7904H31.2281V60.2422C31.2281 60.2967 31.2602 60.4943 31.2995 60.6815L31.371 61.0217L31.2782 61.1072C31.205 61.1747 31.1548 61.1905 31.0402 61.1821L30.895 61.1716L30.7972 60.7881L30.6994 60.4046L30.7762 59.9166C30.8185 59.6481 30.8603 59.3854 30.8692 59.3326C30.8874 59.2242 30.8119 59.1993 30.737 59.289C30.6573 59.3846 30.5209 59.3503 30.3613 59.1946C30.1924 59.0299 30.1667 58.9038 30.281 58.801C30.4492 58.6498 30.3796 58.5388 29.9989 58.3508C29.3179 58.0148 29.3001 57.9691 29.6356 57.4234C29.8992 56.9947 29.8977 57.0483 29.6585 56.5631C29.447 56.1342 29.2285 55.9236 29.1411 56.0643C29.1106 56.1133 29.0534 56.1077 29.0534 56.0555C29.0535 56.0316 29.1955 55.8002 29.3691 55.5413C29.7387 54.9901 29.7245 55.0588 29.5269 54.7743C29.3347 54.4977 29.2881 54.0807 29.4743 54.3037C29.536 54.3776 29.6843 54.3686 29.7733 54.2855L29.8487 54.215L29.9389 54.2855C30.1877 54.48 30.5266 54.2901 30.5266 53.9562V53.8679H31.8414H33.1562L33.2421 53.7372C33.3523 53.5696 33.4975 53.0096 33.5281 52.6342L33.552 52.3422L33.188 52.2325C32.9878 52.1721 32.7626 52.1001 32.6876 52.0724C32.5571 52.0242 32.5468 52.0258 32.4463 52.1098C32.3192 52.2162 31.922 52.2253 31.9022 52.1223C31.8941 52.0798 31.957 52.0536 32.1825 52.0056C32.51 51.9358 32.8034 51.822 33.0457 51.6708C33.2497 51.5434 33.1868 51.5263 33.5636 51.8116ZM42.5856 51.7139C42.576 51.8458 42.564 51.8631 42.4696 51.8825C42.3032 51.9168 42.0981 52.0368 41.9111 52.2094C41.6425 52.4573 41.5604 52.4111 41.7477 52.1175C41.804 52.0292 41.9342 51.8957 42.0371 51.8207C42.4784 51.4989 42.6032 51.4746 42.5856 51.7139ZM64.602 52.7349V53.1184H64.4617H64.3214L64.3113 52.7722C64.2986 52.3409 64.3038 52.3269 64.4701 52.3406L64.602 52.3514V52.7349ZM57.8698 52.4759C58.1726 52.7906 58.7929 53.0774 59.3319 53.1519C59.5338 53.1798 59.5353 53.1906 59.3603 53.3604L59.2221 53.4945L59.0008 53.4149C58.1294 53.1016 57.4547 52.6224 57.6237 52.4367C57.7079 52.3443 57.7495 52.3509 57.8698 52.4759ZM65.3145 54.0684C64.7898 54.4784 64.8244 54.4606 64.555 54.4606C64.0562 54.4606 64.3887 54.1671 65.1281 53.9546C65.5833 53.8238 65.6081 53.839 65.3145 54.0684ZM61.5956 54.4867L61.5855 54.7918L61.3487 54.8021L61.112 54.8124V54.7011C61.112 54.6398 61.1457 54.498 61.1868 54.3857L61.2617 54.1817H61.4337H61.6058L61.5956 54.4867ZM60.3483 55.8979C60.3954 55.9798 60.4701 56.1449 60.5142 56.2647L60.5944 56.4826H60.748C60.9391 56.4826 60.9706 56.6115 60.8051 56.7166C60.752 56.7504 60.3895 57.0017 59.9995 57.2752C59.6095 57.5487 59.282 57.7725 59.2717 57.7725C59.2614 57.7725 59.253 57.6402 59.253 57.4786V57.1846L59.4649 57.0015C59.8216 56.6931 60.0948 56.1893 60.0948 55.8398C60.0948 55.629 60.2086 55.655 60.3483 55.8979ZM62.3006 56.3867C62.3591 56.7126 62.4092 57.0499 62.4095 57.1199C62.4097 57.154 62.3063 57.2832 62.1799 57.407L61.9501 57.6321L61.9607 57.8156L61.9713 57.9991L62.2695 58.0628C62.4334 58.0978 62.7238 58.137 62.9147 58.1499L63.2619 58.1734L63.4313 58.5569C63.6518 59.0563 63.6509 59.1348 63.4222 59.3387L63.2491 59.4929L62.996 59.4506C62.8569 59.4274 62.6483 59.3874 62.5325 59.3618C62.2649 59.3025 62.2592 59.3085 62.1813 59.7308C62.1112 60.1115 62.0895 60.1622 62.0099 60.1319C61.9623 60.1137 61.9538 60.0391 61.9538 59.6379C61.9538 59.1685 61.9532 59.1651 61.8679 59.1329C61.7415 59.0851 61.6712 58.9541 61.649 58.7252C61.6095 58.317 61.4641 58.2465 60.9527 58.3875C60.5807 58.49 60.5681 58.4875 60.6 58.3184C60.6399 58.1074 60.8846 57.9335 61.411 57.7422L61.6223 57.6653L61.7004 57.2918C61.7433 57.0865 61.7785 56.8517 61.7784 56.7702L61.7784 56.6221H61.6005C61.3509 56.6221 61.3684 56.5225 61.6281 56.4643C61.8401 56.4169 61.9035 56.3734 61.9335 56.2546C61.9524 56.1799 61.9748 56.1688 62.1083 56.1688H62.2615L62.3006 56.3867ZM64.2804 56.285C64.5071 56.4652 64.6584 56.5451 64.8827 56.6032C65.1961 56.6844 65.2438 56.8045 64.9809 56.8509C64.7757 56.8871 64.5159 57.0498 64.29 57.2835C64.043 57.5392 64.0241 57.5377 63.7163 57.2383C63.4505 56.9797 63.4489 57.0451 63.7324 56.5663C64.002 56.1108 64.0379 56.0924 64.2804 56.285ZM56.0435 57.0952C56.5887 57.1734 56.5578 57.159 56.5454 57.3292L56.5347 57.4762H56.0436H55.5526L55.5418 57.2886C55.5285 57.0567 55.5507 56.9907 55.6317 57.0215C55.6652 57.0343 55.8505 57.0675 56.0435 57.0952ZM34.8719 57.842C35.0797 58.2052 35.0734 58.1793 34.9741 58.2592C34.9007 58.3183 34.8998 58.3255 34.9547 58.409C35.0366 58.5331 35.0171 58.5395 34.5564 58.5395C34.072 58.5395 34.0601 58.5302 34.225 58.2833C34.3823 58.0478 34.3831 57.9957 34.2297 57.9671C34.1637 57.9548 34.0296 57.921 33.9316 57.8921L33.7535 57.8396V57.684V57.5285H34.223H34.6926L34.8719 57.842ZM57.8713 58.9055C58.4016 59.3283 58.421 59.3368 58.6567 59.2542C58.903 59.1678 58.9023 59.167 58.9023 59.4998V59.7977L58.669 59.7874L58.4358 59.7771L58.3892 59.6177C58.3076 59.3388 57.9687 59.0728 57.4817 58.9054L57.2713 58.8331L57.2606 58.6689C57.2449 58.4277 57.2971 58.4479 57.8713 58.9055ZM59.731 61.2055C59.7961 61.3743 59.4812 61.6632 58.8585 62.006C58.6037 62.1462 58.5685 62.1372 58.5927 61.938C58.6017 61.8648 58.6334 61.8345 58.739 61.7986C58.9267 61.7348 59.0401 61.6177 59.0652 61.4616C59.1076 61.1981 59.6479 60.9903 59.731 61.2055ZM60.7544 62.2543C61.4575 62.3405 61.8558 62.4714 61.9192 62.6372C61.9695 62.7687 61.9295 62.8173 61.7548 62.8369C61.4935 62.8661 61.297 63.055 61.2626 63.31L61.2431 63.4551H61.0898C60.9525 63.4551 60.9366 63.4466 60.9366 63.3734C60.9366 63.1012 60.6787 62.6365 60.3816 62.3733C60.1566 62.174 60.1406 62.1791 60.7544 62.2543ZM64.2867 62.8711C64.3409 63.2762 64.4697 63.3578 64.8743 63.2433L65.1559 63.1636L65.2384 63.259C65.3705 63.4116 65.3611 63.7937 65.2245 63.8233C64.9417 63.8847 64.8304 63.9772 64.7975 64.1786C64.7644 64.3809 64.6439 64.3634 64.617 64.1523C64.5537 63.6567 64.2604 63.457 63.5935 63.4557C63.444 63.4553 63.3219 63.4433 63.3221 63.4289C63.3236 63.3092 63.756 62.9186 64.0443 62.7765C64.2697 62.6654 64.2585 62.661 64.2867 62.8711ZM30.5109 62.9003C30.5239 62.9212 30.5097 62.9957 30.4794 63.0659C30.4491 63.1362 30.3301 63.4133 30.215 63.6817L30.0057 64.1698L30.0726 64.4835C30.1743 64.9606 30.1703 64.989 30.0004 64.989C29.9073 64.989 29.8601 64.9735 29.8601 64.9428C29.8601 64.8493 29.695 64.7435 29.4889 64.705C29.3748 64.6836 29.2617 64.6609 29.2376 64.6544C29.1161 64.6217 29.1904 64.4011 29.3459 64.3327C29.7151 64.1704 29.8016 63.6615 29.5314 63.2417C29.3709 62.9924 29.3469 62.9309 29.3925 62.8857C29.4334 62.845 30.4851 62.8587 30.5109 62.9003ZM39.1019 63.8473C39.0932 63.8713 39.0621 63.9594 39.0329 64.0432C38.9489 64.2842 38.6945 64.6068 38.2963 64.9776C37.886 65.3596 37.8727 65.3916 38.0323 65.6106C38.1757 65.8074 38.4212 65.9245 38.7946 65.9741L39.0954 66.0141L39.1977 65.8938C39.5762 65.4486 39.8876 64.8624 39.9168 64.5402L39.9346 64.3441L39.5924 64.0739C39.2626 63.8135 39.1355 63.7548 39.1019 63.8473ZM57.3063 63.9954C58.0061 64.2717 58.3441 64.573 58.3987 64.9688C58.4282 65.1824 58.2893 65.2002 58.2191 64.9919C58.1269 64.7186 57.751 64.5327 57.1924 64.484L56.903 64.4589V64.1624V63.8659L56.9994 63.8891C57.0525 63.9019 57.1906 63.9497 57.3063 63.9954ZM56.257 65.0588C56.2971 65.1834 56.3408 65.3285 56.3541 65.3812L56.3782 65.4771H56.1334H55.8885L55.837 65.3045C55.8086 65.2097 55.7745 65.0598 55.7612 64.9716L55.737 64.8112L55.9605 64.8217L56.1839 64.8322L56.257 65.0588ZM32.7104 67.1807C32.9687 67.661 32.9496 67.6907 32.4908 67.5237C32.0498 67.3632 31.9782 67.2484 32.184 67.0316C32.4268 66.776 32.5048 66.7981 32.7104 67.1807ZM45.0947 66.9849C45.3335 67.1109 45.6088 67.3531 45.6088 67.4372C45.6088 67.5787 44.8188 67.8112 44.6873 67.7083C44.6383 67.67 44.5713 67.6386 44.5385 67.6386C44.47 67.6386 44.4653 67.6544 44.6678 67.1975C44.8328 66.825 44.8116 66.8355 45.0947 66.9849ZM47.3149 67.2913C47.2516 67.6063 46.9692 67.7382 46.2311 67.7978C45.8271 67.8303 45.7974 67.8175 45.8851 67.648C46.0621 67.3061 46.324 67.1893 46.9198 67.187L47.3363 67.1854L47.3149 67.2913ZM29.2814 67.4672C28.8129 67.6511 28.8271 67.6405 28.8143 67.8136C28.7767 68.3246 29.7052 68.8492 30.0375 68.5047L30.2109 68.325V67.9892V67.6534L30.0431 67.4891C29.8321 67.2825 29.7575 67.2804 29.2814 67.4672ZM49.0111 67.9029C49.0111 68.0095 49.2601 68.3289 49.592 68.6481C49.7765 68.8255 49.9225 68.9747 49.9165 68.9797C49.9105 68.9847 49.8345 69.0325 49.7477 69.086C49.578 69.1903 49.0282 69.7231 48.8397 69.9657C48.7107 70.1317 48.6607 70.1511 48.6596 70.0354C48.6577 69.8391 48.3973 69.4863 48.2543 69.4863C48.1889 69.4863 48.1912 69.4539 48.2621 69.3761C48.3157 69.3172 48.3144 69.2859 48.2445 68.9306C48.1381 68.39 48.1391 68.3815 48.3151 68.3343C48.4813 68.2899 48.6604 68.1308 48.6604 68.0276C48.6604 67.8818 48.6975 67.8478 48.857 67.8478C48.9741 67.8478 49.0111 67.861 49.0111 67.9029ZM43.2939 68.3837C43.2939 68.3909 43.3246 68.5191 43.3623 68.6688C43.4408 68.9809 43.4363 68.9982 43.2787 68.9982C42.9337 68.9982 42.5924 69.275 42.5924 69.5546C42.5924 69.6025 42.5694 69.6257 42.5222 69.6257C42.4252 69.6257 42.4267 69.2969 42.5262 68.7661L42.6004 68.3707H42.9471C43.1378 68.3707 43.2939 68.3766 43.2939 68.3837ZM45.1038 69.6934C45.1597 69.7115 45.2962 69.744 45.4071 69.7656C45.6357 69.8102 45.6755 69.9051 45.5387 70.079C45.4567 70.1832 45.4483 70.3327 45.5211 70.3927C45.58 70.4412 45.5908 70.4973 45.5414 70.4973C45.5236 70.4973 45.4608 70.457 45.402 70.4078L45.2951 70.3184L44.9355 70.3925C44.7377 70.4332 44.4768 70.4757 44.3558 70.487L44.1357 70.5074V70.1592V69.8111L44.5303 69.7406C45.0292 69.6514 44.9849 69.6551 45.1038 69.6934ZM59.7469 70.552C59.3891 71.0688 59.5318 71.563 60.0607 71.6387C60.4435 71.6934 60.3101 71.7698 59.8317 71.7698H59.4108L59.3322 71.3725L59.2536 70.9753L59.3607 70.759C59.4878 70.5024 59.645 70.3047 59.7939 70.2142C59.9774 70.1027 59.9571 70.2485 59.7469 70.552ZM42.1013 72.4845V72.7982H41.7856H41.47V72.4845V72.1707H41.7856H42.1013V72.4845ZM63.2617 73.3099C63.6433 73.4797 63.6341 73.4593 63.4425 73.7106C63.3499 73.832 63.271 73.936 63.267 73.9417C63.26 73.9518 62.8228 73.8122 62.8037 73.7938C62.7824 73.7732 62.9307 73.1817 62.9571 73.1817C62.9662 73.1817 63.1033 73.2394 63.2617 73.3099ZM46.2756 73.417C46.2758 73.4698 46.2411 73.6117 46.1984 73.7324L46.1208 73.9519L45.9655 73.9416L45.8102 73.9313L45.7455 73.6872C45.6437 73.3033 45.6324 73.3212 45.9771 73.3212H46.2752L46.2756 73.417ZM47.5415 74.0707C47.5771 74.2049 47.6067 74.3501 47.6072 74.3932L47.6081 74.4716H46.9592H46.3103V74.3193C46.3103 74.1854 46.3306 74.1456 46.4769 73.9911L46.6435 73.8153L47.0601 73.821L47.4766 73.8267L47.5415 74.0707Z" fill="#DADADA"/>
</svg>
