<svg width="663" height="301" viewBox="0 0 663 301" fill="none" xmlns="http://www.w3.org/2000/svg">
<path fill-rule="evenodd" clip-rule="evenodd" d="M104.772 74.0002C109.345 73.1666 115.206 72.4623 120.182 72.1483C132.703 71.3583 136.695 73.9415 132.963 80.4183C127.978 89.0689 130.294 95.8314 138.964 97.9389C139.947 98.1779 143.261 98.1833 144.071 97.9471C144.402 97.8502 144.921 97.7075 145.224 97.6299C149.913 96.4276 153.306 91.8603 152.723 87.5367C152.426 85.3318 151.107 81.8543 149.843 79.9395C149.644 79.6385 149.406 79.2229 149.313 79.016C149.221 78.8091 149.068 78.4766 148.973 78.2771C147.466 75.0982 150.543 72.5144 156.369 72.0662C160.611 71.7399 171.009 72.6568 178.315 74.0015C178.731 74.0782 179.301 74.1742 179.582 74.2151C180.365 74.3291 180.423 74.48 180.184 75.7887C179.73 78.2764 179.018 83.7678 178.803 86.4381C178.433 91.0231 178.401 97.5323 178.738 99.5037C179.249 102.498 179.737 103.567 180.987 104.429L181.781 104.976H183.316H184.851L185.908 104.33C187.298 103.481 189.324 102.442 190.354 102.049C190.808 101.876 191.304 101.685 191.455 101.625C197.57 99.1878 201.782 101.488 204.305 108.643C205.817 112.929 204.82 117.682 201.721 120.962C199.266 123.561 194.228 124.123 190.4 122.224C190.162 122.106 189.89 122.009 189.796 122.009C189.701 122.009 189.385 121.892 189.095 121.748C183.981 119.217 182.791 118.988 181.024 120.195C178.298 122.057 178.202 132.197 180.766 147.525C180.82 147.849 180.867 148.165 180.902 148.436C181.001 148.295 181.187 148.257 181.488 148.213C181.816 148.165 182.394 148.069 182.772 148C187.345 147.167 193.206 146.462 198.182 146.148C210.703 145.358 214.695 147.941 210.963 154.418C205.978 163.069 208.294 169.831 216.964 171.939C217.947 172.178 221.261 172.183 222.071 171.947C222.402 171.85 222.921 171.708 223.224 171.63C227.913 170.428 231.306 165.86 230.723 161.537C230.426 159.332 229.107 155.854 227.843 153.939C227.644 153.639 227.406 153.223 227.313 153.016C227.221 152.809 227.068 152.477 226.974 152.277C225.466 149.098 228.543 146.514 234.369 146.066C238.611 145.74 249.009 146.657 256.315 148.002C256.731 148.078 257.301 148.174 257.582 148.215C258.365 148.329 258.423 148.48 258.184 149.789C257.73 152.276 257.018 157.768 256.803 160.438C256.433 165.023 256.401 171.532 256.738 173.504C257.249 176.498 257.737 177.567 258.987 178.429L259.781 178.976H261.316H262.851L263.908 178.33C265.298 177.481 267.324 176.442 268.354 176.049C268.808 175.876 269.304 175.685 269.455 175.625C275.57 173.188 279.782 175.488 282.305 182.643C283.817 186.929 282.82 191.682 279.721 194.962C277.266 197.561 272.228 198.123 268.4 196.224C268.162 196.106 267.89 196.009 267.796 196.009C267.701 196.009 267.385 195.892 267.095 195.748C261.981 193.217 260.791 192.988 259.024 194.195C256.298 196.057 256.202 206.197 258.766 221.525C258.904 222.353 258.993 223.126 258.964 223.243C258.906 223.475 257.652 223.776 255.042 224.185C254.531 224.264 253.727 224.391 253.254 224.466C250.926 224.833 246.956 225.315 242.9 225.722C231.463 226.87 224.759 224.379 226.959 219.801C227.046 219.621 227.217 219.257 227.339 218.994C227.461 218.731 227.747 218.207 227.974 217.831C232.316 210.64 231.309 204.098 225.426 201.277L225.371 201.25L225.371 201.25C224.807 200.98 224.481 200.824 224.145 200.696C223.685 200.522 223.205 200.401 222.07 200.116L221.986 200.095C218.389 199.192 213.718 200.557 211.008 203.305C207.378 206.987 207.366 211.325 210.967 217.626C213.27 221.655 212.553 224.074 208.678 225.344C204.899 226.583 192.757 225.873 181.671 223.765C181.293 223.693 180.775 223.598 180.521 223.555L180.234 223.506C180.219 223.593 180.203 223.688 180.184 223.789C179.73 226.276 179.018 231.768 178.803 234.438C178.433 239.023 178.401 245.532 178.738 247.504C179.249 250.498 179.737 251.567 180.987 252.429L181.781 252.976H183.316H184.851L185.908 252.33C187.298 251.481 189.324 250.442 190.354 250.049C190.808 249.876 191.304 249.685 191.455 249.625C197.57 247.188 201.782 249.488 204.305 256.643C205.817 260.929 204.82 265.682 201.721 268.962C199.266 271.561 194.228 272.123 190.4 270.224C190.162 270.106 189.89 270.009 189.796 270.009C189.701 270.009 189.385 269.892 189.095 269.748C183.981 267.217 182.791 266.988 181.024 268.195C178.298 270.057 178.202 280.197 180.766 295.525C180.904 296.353 180.993 297.126 180.964 297.243C180.906 297.475 179.652 297.776 177.042 298.185C176.531 298.264 175.727 298.391 175.254 298.466C172.926 298.833 168.956 299.315 164.9 299.722C153.463 300.87 146.759 298.379 148.959 293.801C149.025 293.666 149.138 293.426 149.241 293.204C149.276 293.131 149.309 293.059 149.339 292.994C149.461 292.731 149.747 292.207 149.974 291.831C154.316 284.64 153.309 278.098 147.426 275.277L147.371 275.25C146.807 274.98 146.481 274.824 146.145 274.696C145.685 274.522 145.205 274.401 144.069 274.116L143.986 274.095C140.389 273.192 135.718 274.557 133.008 277.305C129.378 280.987 129.366 285.325 132.967 291.626C135.27 295.655 134.553 298.074 130.678 299.344C126.899 300.583 114.757 299.873 103.671 297.765C103.293 297.693 102.775 297.598 102.521 297.555L102.058 297.475L102.127 296.774C102.165 296.388 102.361 295.026 102.563 293.746C104.517 281.341 104.658 272.046 102.934 269.257C102.129 267.954 101.442 267.615 99.6124 267.617L98.1677 267.619L96.035 268.696C94.8621 269.288 93.7785 269.818 93.6272 269.873C93.4758 269.928 93.1972 270.039 93.008 270.119C85.3852 273.358 79.8536 270.384 78.1455 262.13C77.4202 258.625 79.4909 253.063 82.4745 250.502C84.2972 248.937 86.2862 248.378 88.4951 248.809C91.392 249.374 93.4552 250.205 97.0765 252.265C98.7702 253.228 100.216 253.334 101.768 252.609C103.114 251.98 103.702 250.841 104.294 247.709C104.649 245.832 104.706 241.782 104.438 237.448C104.14 232.637 103.929 230.732 102.976 224.29C102.92 223.911 102.876 223.606 102.847 223.358C102.478 223.573 101.242 223.841 99.0422 224.185C98.5315 224.264 97.7266 224.391 97.2535 224.466C94.926 224.833 90.9561 225.315 86.8997 225.722C75.4631 226.87 68.7585 224.379 70.9595 219.801C71.0463 219.621 71.2172 219.257 71.3392 218.994C71.4611 218.731 71.7468 218.207 71.9739 217.831C76.3161 210.64 75.309 204.098 69.4256 201.277L69.371 201.25C68.8068 200.98 68.4812 200.824 68.1446 200.696C67.6851 200.522 67.2054 200.401 66.0706 200.116L66.07 200.116L66.0696 200.116L65.9858 200.095C62.3886 199.192 57.7179 200.557 55.008 203.305C51.3779 206.987 51.3656 211.325 54.9672 217.626C57.2703 221.655 56.5528 224.074 52.6779 225.344C48.8985 226.583 36.7566 225.873 25.6714 223.765C25.293 223.693 24.7751 223.598 24.5206 223.555L24.0579 223.475L24.1269 222.774C24.1649 222.388 24.361 221.026 24.5625 219.746C26.5169 207.341 26.6579 198.046 24.9343 195.257C24.1291 193.954 23.4417 193.615 21.6124 193.617L20.1677 193.619L18.035 194.696C16.8621 195.288 15.7785 195.818 15.6272 195.873C15.4758 195.928 15.1972 196.039 15.008 196.119C7.38516 199.358 1.85356 196.384 0.145493 188.13C-0.579753 184.625 1.49087 179.063 4.47454 176.502C6.29722 174.937 8.28625 174.378 10.4951 174.809C13.392 175.374 15.4552 176.205 19.0765 178.265C20.7702 179.228 22.2163 179.334 23.7675 178.609C25.1144 177.98 25.7018 176.841 26.2941 173.709C26.6493 171.832 26.7059 167.782 26.4379 163.448C26.1402 158.637 25.9286 156.732 24.9759 150.29C24.6964 148.4 24.7149 148.326 25.4877 148.213C25.8157 148.165 26.3937 148.069 26.7721 148C31.3451 147.167 37.2056 146.462 42.1824 146.148C54.703 145.358 58.6952 147.941 54.963 154.418C49.9784 163.069 52.2944 169.831 60.9637 171.939C61.9473 172.178 65.2611 172.183 66.0705 171.947C66.4023 171.85 66.9214 171.708 67.2241 171.63C71.9127 170.428 75.306 165.86 74.7229 161.537C74.4255 159.332 73.107 155.854 71.8425 153.939C71.6437 153.639 71.4055 153.223 71.3132 153.016C71.221 152.809 71.0682 152.477 70.9735 152.277C69.4663 149.098 72.5429 146.514 78.3691 146.066C82.6107 145.74 93.009 146.657 100.315 148.002C100.731 148.078 101.301 148.174 101.582 148.215C101.868 148.257 102.057 148.303 102.171 148.409C102.248 147.817 102.403 146.756 102.563 145.746C104.517 133.341 104.658 124.046 102.934 121.257C102.129 119.954 101.442 119.615 99.6124 119.617L98.1677 119.619L96.035 120.696C94.8621 121.288 93.7785 121.818 93.6272 121.873C93.4758 121.928 93.1972 122.039 93.008 122.119C85.3852 125.358 79.8536 122.384 78.1455 114.13C77.4202 110.625 79.4909 105.063 82.4745 102.502C84.2972 100.937 86.2862 100.378 88.4951 100.809C91.392 101.374 93.4552 102.205 97.0765 104.265C98.7702 105.228 100.216 105.334 101.768 104.609C103.114 103.98 103.702 102.841 104.294 99.709C104.649 97.8319 104.706 93.7815 104.438 89.448C104.14 84.6367 103.929 82.7318 102.976 76.29C102.696 74.4003 102.715 74.3258 103.488 74.2128C103.816 74.1648 104.394 74.0691 104.772 74.0002Z" fill="#252525"/>
<path fill-rule="evenodd" clip-rule="evenodd" d="M484.772 75.0002C489.345 74.1666 495.206 73.4623 500.182 73.1483C512.703 72.3583 516.695 74.9415 512.963 81.4183C507.978 90.0689 510.294 96.8314 518.964 98.9389C519.947 99.1779 523.261 99.1833 524.071 98.9471C524.402 98.8502 524.921 98.7075 525.224 98.6299C529.913 97.4276 533.306 92.8603 532.723 88.5367C532.426 86.3318 531.107 82.8543 529.843 80.9395C529.644 80.6385 529.406 80.2229 529.313 80.016C529.221 79.8091 529.068 79.4766 528.973 79.2771C527.466 76.0982 530.543 73.5144 536.369 73.0662C540.611 72.7399 551.009 73.6568 558.315 75.0015C558.731 75.0782 559.301 75.1742 559.582 75.2151C560.365 75.3291 560.423 75.48 560.184 76.7887C559.73 79.2764 559.018 84.7678 558.803 87.4381C558.433 92.0231 558.401 98.5323 558.738 100.504C559.249 103.498 559.737 104.567 560.987 105.429L561.781 105.976H563.316H564.851L565.908 105.33C567.298 104.481 569.324 103.442 570.354 103.049C570.808 102.876 571.304 102.685 571.455 102.625C577.57 100.188 581.782 102.488 584.305 109.643C585.817 113.929 584.82 118.682 581.721 121.962C579.266 124.561 574.228 125.123 570.4 123.224C570.162 123.106 569.89 123.009 569.796 123.009C569.701 123.009 569.385 122.892 569.095 122.748C563.981 120.217 562.791 119.988 561.024 121.195C558.298 123.057 558.202 133.197 560.766 148.525C560.82 148.849 560.867 149.165 560.902 149.436C561.001 149.295 561.187 149.257 561.488 149.213C561.816 149.165 562.394 149.069 562.772 149C567.345 148.167 573.206 147.462 578.182 147.148C590.703 146.358 594.695 148.941 590.963 155.418C585.978 164.069 588.294 170.831 596.964 172.939C597.947 173.178 601.261 173.183 602.071 172.947C602.402 172.85 602.921 172.708 603.224 172.63C607.913 171.428 611.306 166.86 610.723 162.537C610.426 160.332 609.107 156.854 607.843 154.939C607.644 154.639 607.406 154.223 607.313 154.016C607.221 153.809 607.068 153.477 606.974 153.277C605.466 150.098 608.543 147.514 614.369 147.066C618.611 146.74 629.009 147.657 636.315 149.002C636.731 149.078 637.301 149.174 637.582 149.215C638.365 149.329 638.423 149.48 638.184 150.789C637.73 153.276 637.018 158.768 636.803 161.438C636.433 166.023 636.401 172.532 636.738 174.504C637.249 177.498 637.737 178.567 638.987 179.429L639.781 179.976H641.316H642.851L643.908 179.33C645.298 178.481 647.324 177.442 648.354 177.049C648.808 176.876 649.304 176.685 649.455 176.625C655.57 174.188 659.782 176.488 662.305 183.643C663.817 187.929 662.82 192.682 659.721 195.962C657.266 198.561 652.228 199.123 648.4 197.224C648.162 197.106 647.89 197.009 647.796 197.009C647.701 197.009 647.385 196.892 647.095 196.748C641.981 194.217 640.791 193.988 639.024 195.195C636.298 197.057 636.202 207.197 638.766 222.525C638.904 223.353 638.993 224.126 638.964 224.243C638.906 224.475 637.652 224.776 635.042 225.185C634.531 225.264 633.727 225.391 633.254 225.466C630.926 225.833 626.956 226.315 622.9 226.722C611.463 227.87 604.759 225.379 606.959 220.801C607.046 220.621 607.217 220.257 607.339 219.994C607.461 219.731 607.747 219.207 607.974 218.831C612.316 211.64 611.309 205.098 605.426 202.277L605.371 202.25L605.371 202.25C604.807 201.98 604.481 201.824 604.145 201.696C603.685 201.522 603.205 201.401 602.07 201.116L601.986 201.095C598.389 200.192 593.718 201.557 591.008 204.305C587.378 207.987 587.366 212.325 590.967 218.626C593.27 222.655 592.553 225.074 588.678 226.344C584.899 227.583 572.757 226.873 561.671 224.765C561.293 224.693 560.775 224.598 560.521 224.555L560.234 224.506C560.219 224.593 560.203 224.688 560.184 224.789C559.73 227.276 559.018 232.768 558.803 235.438C558.433 240.023 558.401 246.532 558.738 248.504C559.249 251.498 559.737 252.567 560.987 253.429L561.781 253.976H563.316H564.851L565.908 253.33C567.298 252.481 569.324 251.442 570.354 251.049C570.808 250.876 571.304 250.685 571.455 250.625C577.57 248.188 581.782 250.488 584.305 257.643C585.817 261.929 584.82 266.682 581.721 269.962C579.266 272.561 574.228 273.123 570.4 271.224C570.162 271.106 569.89 271.009 569.796 271.009C569.701 271.009 569.385 270.892 569.095 270.748C563.981 268.217 562.791 267.988 561.024 269.195C558.298 271.057 558.202 281.197 560.766 296.525C560.904 297.353 560.993 298.126 560.964 298.243C560.906 298.475 559.652 298.776 557.042 299.185C556.531 299.264 555.727 299.391 555.254 299.466C552.926 299.833 548.956 300.315 544.9 300.722C533.463 301.87 526.759 299.379 528.959 294.801C529.025 294.666 529.138 294.426 529.241 294.204C529.276 294.131 529.309 294.059 529.339 293.994C529.461 293.731 529.747 293.207 529.974 292.831C534.316 285.64 533.309 279.098 527.426 276.277L527.371 276.25C526.807 275.98 526.481 275.824 526.145 275.696C525.685 275.522 525.205 275.401 524.069 275.116L523.986 275.095C520.389 274.192 515.718 275.557 513.008 278.305C509.378 281.987 509.366 286.325 512.967 292.626C515.27 296.655 514.553 299.074 510.678 300.344C506.899 301.583 494.757 300.873 483.671 298.765C483.293 298.693 482.775 298.598 482.521 298.555L482.058 298.475L482.127 297.774C482.165 297.388 482.361 296.026 482.563 294.746C484.517 282.341 484.658 273.046 482.934 270.257C482.129 268.954 481.442 268.615 479.612 268.617L478.168 268.619L476.035 269.696C474.862 270.288 473.779 270.818 473.627 270.873C473.476 270.928 473.197 271.039 473.008 271.119C465.385 274.358 459.854 271.384 458.145 263.13C457.42 259.625 459.491 254.063 462.475 251.502C464.297 249.937 466.286 249.378 468.495 249.809C471.392 250.374 473.455 251.205 477.076 253.265C478.77 254.228 480.216 254.334 481.768 253.609C483.114 252.98 483.702 251.841 484.294 248.709C484.649 246.832 484.706 242.782 484.438 238.448C484.14 233.637 483.929 231.732 482.976 225.29C482.92 224.911 482.876 224.606 482.847 224.358C482.478 224.573 481.242 224.841 479.042 225.185C478.531 225.264 477.727 225.391 477.254 225.466C474.926 225.833 470.956 226.315 466.9 226.722C455.463 227.87 448.759 225.379 450.959 220.801C451.046 220.621 451.217 220.257 451.339 219.994C451.461 219.731 451.747 219.207 451.974 218.831C456.316 211.64 455.309 205.098 449.426 202.277L449.371 202.25C448.807 201.98 448.481 201.824 448.145 201.696C447.685 201.522 447.205 201.401 446.071 201.116L446.07 201.116L446.07 201.116L445.986 201.095C442.389 200.192 437.718 201.557 435.008 204.305C431.378 207.987 431.366 212.325 434.967 218.626C437.27 222.655 436.553 225.074 432.678 226.344C428.899 227.583 416.757 226.873 405.671 224.765C405.293 224.693 404.775 224.598 404.521 224.555L404.058 224.475L404.127 223.774C404.165 223.388 404.361 222.026 404.563 220.746C406.517 208.341 406.658 199.046 404.934 196.257C404.129 194.954 403.442 194.615 401.612 194.617L400.168 194.619L398.035 195.696C396.862 196.288 395.779 196.818 395.627 196.873C395.476 196.928 395.197 197.039 395.008 197.119C387.385 200.358 381.854 197.384 380.145 189.13C379.42 185.625 381.491 180.063 384.475 177.502C386.297 175.937 388.286 175.378 390.495 175.809C393.392 176.374 395.455 177.205 399.076 179.265C400.77 180.228 402.216 180.334 403.768 179.609C405.114 178.98 405.702 177.841 406.294 174.709C406.649 172.832 406.706 168.782 406.438 164.448C406.14 159.637 405.929 157.732 404.976 151.29C404.696 149.4 404.715 149.326 405.488 149.213C405.816 149.165 406.394 149.069 406.772 149C411.345 148.167 417.206 147.462 422.182 147.148C434.703 146.358 438.695 148.941 434.963 155.418C429.978 164.069 432.294 170.831 440.964 172.939C441.947 173.178 445.261 173.183 446.071 172.947C446.402 172.85 446.921 172.708 447.224 172.63C451.913 171.428 455.306 166.86 454.723 162.537C454.426 160.332 453.107 156.854 451.843 154.939C451.644 154.639 451.406 154.223 451.313 154.016C451.221 153.809 451.068 153.477 450.973 153.277C449.466 150.098 452.543 147.514 458.369 147.066C462.611 146.74 473.009 147.657 480.315 149.002C480.731 149.078 481.301 149.174 481.582 149.215C481.868 149.257 482.057 149.303 482.171 149.409C482.248 148.817 482.403 147.756 482.563 146.746C484.517 134.341 484.658 125.046 482.934 122.257C482.129 120.954 481.442 120.615 479.612 120.617L478.168 120.619L476.035 121.696C474.862 122.288 473.779 122.818 473.627 122.873C473.476 122.928 473.197 123.039 473.008 123.119C465.385 126.358 459.854 123.384 458.145 115.13C457.42 111.625 459.491 106.063 462.475 103.502C464.297 101.937 466.286 101.378 468.495 101.809C471.392 102.374 473.455 103.205 477.076 105.265C478.77 106.228 480.216 106.334 481.768 105.609C483.114 104.98 483.702 103.841 484.294 100.709C484.649 98.8319 484.706 94.7815 484.438 90.448C484.14 85.6367 483.929 83.7318 482.976 77.29C482.696 75.4003 482.715 75.3258 483.488 75.2128C483.816 75.1648 484.394 75.0691 484.772 75.0002Z" fill="#252525"/>
<path fill-rule="evenodd" clip-rule="evenodd" d="M335.272 2.00019C339.845 1.16659 345.706 0.462277 350.682 0.148292C363.203 -0.641666 367.195 1.9415 363.463 8.41835C358.478 17.0689 360.794 23.8314 369.464 25.9389C370.447 26.1779 373.761 26.1834 374.571 25.9471C374.902 25.8502 375.421 25.7075 375.724 25.63C380.413 24.4276 383.806 19.8603 383.223 15.5367C382.926 13.3319 381.607 9.85434 380.343 7.93951C380.144 7.63852 379.906 7.22288 379.813 7.01602C379.721 6.80916 379.568 6.47657 379.473 6.2771C377.966 3.09825 381.043 0.514403 386.869 0.0662042C391.111 -0.260094 401.509 0.656825 408.815 2.00156C409.231 2.07817 409.801 2.17422 410.082 2.21512C410.865 2.32909 410.923 2.47999 410.684 3.78874C410.23 6.27641 409.518 11.7678 409.303 14.4381C408.933 19.0231 408.901 25.5323 409.238 27.5037C409.749 30.4979 410.237 31.5668 411.487 32.429L412.281 32.9763H413.816H415.351L416.408 32.3304C417.798 31.481 419.824 30.4417 420.854 30.0492C421.308 29.8761 421.804 29.6851 421.955 29.6248C428.07 27.1878 432.282 29.4884 434.805 36.6431C436.317 40.9295 435.32 45.6822 432.221 48.9624C429.766 51.5613 424.728 52.1227 420.9 50.2238C420.662 50.1059 420.39 50.0095 420.296 50.0095C420.201 50.0095 419.885 49.8917 419.595 49.7477C414.481 47.2174 413.291 46.9885 411.524 48.1953C408.798 50.0571 408.702 60.1972 411.266 75.5251C411.32 75.8491 411.367 76.1648 411.402 76.4361C411.501 76.2949 411.687 76.2567 411.988 76.2128C412.316 76.1648 412.894 76.0691 413.272 76.0002C417.845 75.1666 423.706 74.4623 428.682 74.1483C441.203 73.3583 445.195 75.9415 441.463 82.4184C436.478 91.0689 438.794 97.8314 447.464 99.9389C448.447 100.178 451.761 100.183 452.571 99.9471C452.902 99.8502 453.421 99.7075 453.724 99.63C458.413 98.4276 461.806 93.8603 461.223 89.5367C460.926 87.3318 459.607 83.8543 458.343 81.9395C458.144 81.6385 457.906 81.2229 457.813 81.016C457.721 80.8092 457.568 80.4766 457.474 80.2771C455.966 77.0983 459.043 74.5144 464.869 74.0662C469.111 73.7399 479.509 74.6568 486.815 76.0016C487.231 76.0782 487.801 76.1742 488.082 76.2151C488.865 76.3291 488.923 76.48 488.684 77.7887C488.23 80.2764 487.518 85.7678 487.303 88.4381C486.933 93.0231 486.901 99.5323 487.238 101.504C487.749 104.498 488.237 105.567 489.487 106.429L490.281 106.976H491.816H493.351L494.408 106.33C495.798 105.481 497.824 104.442 498.854 104.049C499.308 103.876 499.804 103.685 499.955 103.625C506.07 101.188 510.282 103.488 512.805 110.643C514.317 114.929 513.32 119.682 510.221 122.962C507.766 125.561 502.728 126.123 498.9 124.224C498.662 124.106 498.39 124.009 498.296 124.009C498.201 124.009 497.885 123.892 497.595 123.748C492.481 121.217 491.291 120.988 489.524 122.195C486.798 124.057 486.702 134.197 489.266 149.525C489.404 150.353 489.493 151.126 489.464 151.243C489.406 151.475 488.152 151.776 485.542 152.185C485.031 152.264 484.227 152.391 483.754 152.466C481.426 152.833 477.456 153.315 473.4 153.722C461.963 154.87 455.259 152.379 457.459 147.801C457.546 147.621 457.717 147.257 457.839 146.994C457.961 146.731 458.247 146.207 458.474 145.831C462.816 138.64 461.809 132.098 455.926 129.277L455.871 129.25L455.871 129.25C455.307 128.98 454.981 128.824 454.645 128.696C454.185 128.522 453.705 128.401 452.57 128.116L452.486 128.095C448.889 127.192 444.218 128.557 441.508 131.305C437.878 134.987 437.866 139.325 441.467 145.626C443.77 149.655 443.053 152.074 439.178 153.344C435.399 154.583 423.257 153.873 412.171 151.765C411.793 151.693 411.275 151.598 411.021 151.555L410.734 151.506C410.719 151.593 410.703 151.688 410.684 151.789C410.23 154.276 409.518 159.768 409.303 162.438C408.933 167.023 408.901 173.532 409.238 175.504C409.749 178.498 410.237 179.567 411.487 180.429L412.281 180.976H413.816H415.351L416.408 180.33C417.798 179.481 419.824 178.442 420.854 178.049C421.308 177.876 421.804 177.685 421.955 177.625C428.07 175.188 432.282 177.488 434.805 184.643C436.317 188.929 435.32 193.682 432.221 196.962C429.766 199.561 424.728 200.123 420.9 198.224C420.662 198.106 420.39 198.009 420.296 198.009C420.201 198.009 419.885 197.892 419.595 197.748C414.481 195.217 413.291 194.988 411.524 196.195C408.798 198.057 408.702 208.197 411.266 223.525C411.404 224.353 411.493 225.126 411.464 225.243C411.406 225.475 410.152 225.776 407.542 226.185C407.314 226.22 407.027 226.265 406.737 226.311C406.378 226.367 406.015 226.424 405.754 226.466C403.426 226.833 399.456 227.315 395.4 227.722C383.963 228.87 377.259 226.379 379.459 221.801C379.525 221.666 379.638 221.426 379.741 221.204C379.776 221.131 379.809 221.059 379.839 220.994C379.961 220.731 380.247 220.207 380.474 219.831C384.816 212.64 383.809 206.098 377.926 203.277L377.871 203.25C377.307 202.98 376.981 202.824 376.645 202.696C376.185 202.522 375.705 202.401 374.569 202.116L374.486 202.095C370.889 201.192 366.218 202.557 363.508 205.305C359.878 208.987 359.866 213.325 363.467 219.626C365.77 223.655 365.053 226.074 361.178 227.344C357.399 228.583 345.257 227.873 334.171 225.765C333.793 225.693 333.275 225.598 333.021 225.555L332.558 225.475L332.627 224.774C332.665 224.388 332.861 223.026 333.063 221.746C335.017 209.341 335.158 200.046 333.434 197.257C332.629 195.954 331.942 195.615 330.112 195.617L328.668 195.619L326.535 196.696C325.362 197.288 324.279 197.818 324.127 197.873C323.976 197.928 323.697 198.039 323.508 198.119C315.885 201.358 310.354 198.384 308.646 190.13C307.92 186.625 309.991 181.063 312.975 178.502C314.797 176.937 316.786 176.378 318.995 176.809C321.892 177.374 323.955 178.205 327.576 180.265C329.27 181.228 330.716 181.334 332.268 180.609C333.614 179.98 334.202 178.841 334.794 175.709C335.149 173.832 335.206 169.782 334.938 165.448C334.64 160.637 334.429 158.732 333.476 152.29C333.42 151.911 333.376 151.606 333.347 151.358C332.978 151.573 331.742 151.841 329.542 152.185C329.032 152.264 328.227 152.391 327.754 152.466C325.426 152.833 321.456 153.315 317.4 153.722C305.963 154.87 299.259 152.379 301.459 147.801C301.546 147.621 301.717 147.257 301.839 146.994C301.961 146.731 302.247 146.207 302.474 145.831C306.816 138.64 305.809 132.098 299.926 129.277L299.871 129.25C299.307 128.98 298.981 128.824 298.645 128.696C298.185 128.522 297.705 128.401 296.571 128.116L296.57 128.116L296.57 128.116L296.486 128.095C292.889 127.192 288.218 128.557 285.508 131.305C281.878 134.987 281.866 139.325 285.467 145.626C287.77 149.655 287.053 152.074 283.178 153.344C279.399 154.583 267.257 153.873 256.171 151.765C255.793 151.693 255.275 151.598 255.021 151.555L254.558 151.475L254.627 150.774C254.665 150.388 254.861 149.026 255.063 147.746C257.017 135.341 257.158 126.046 255.434 123.257C254.629 121.954 253.942 121.615 252.112 121.617L250.668 121.619L248.535 122.696C247.362 123.288 246.279 123.818 246.127 123.873C245.976 123.928 245.697 124.039 245.508 124.119C237.885 127.358 232.354 124.384 230.645 116.13C229.92 112.625 231.991 107.063 234.975 104.502C236.797 102.937 238.786 102.378 240.995 102.809C243.892 103.374 245.955 104.205 249.576 106.265C251.27 107.228 252.716 107.334 254.268 106.609C255.614 105.98 256.202 104.841 256.794 101.709C257.149 99.8319 257.206 95.7815 256.938 91.448C256.64 86.6367 256.429 84.7319 255.476 78.29C255.196 76.4004 255.215 76.3258 255.988 76.2128C256.316 76.1648 256.894 76.0691 257.272 76.0002C261.845 75.1666 267.706 74.4623 272.682 74.1483C285.203 73.3583 289.195 75.9415 285.463 82.4184C280.478 91.0689 282.794 97.8314 291.464 99.9389C292.447 100.178 295.761 100.183 296.571 99.9471C296.902 99.8502 297.421 99.7075 297.724 99.63C302.413 98.4276 305.806 93.8603 305.223 89.5367C304.926 87.3318 303.607 83.8543 302.343 81.9395C302.144 81.6385 301.906 81.2229 301.813 81.016C301.721 80.8092 301.568 80.4766 301.474 80.2771C299.966 77.0983 303.043 74.5144 308.869 74.0662C313.111 73.7399 323.509 74.6568 330.815 76.0016C331.231 76.0782 331.801 76.1742 332.082 76.2151C332.368 76.2567 332.557 76.3033 332.671 76.4092C332.748 75.8169 332.903 74.7559 333.063 73.7465C335.017 61.3414 335.158 52.0463 333.434 49.257C332.629 47.954 331.942 47.6147 330.112 47.6173L328.668 47.6193L326.535 48.6959C325.362 49.288 324.279 49.8176 324.127 49.8726C323.976 49.9278 323.697 50.0386 323.508 50.119C315.885 53.3575 310.354 50.3842 308.646 42.1299C307.92 38.6251 309.991 33.0634 312.975 30.502C314.797 28.9373 316.786 28.378 318.995 28.8089C321.892 29.3741 323.955 30.205 327.576 32.2648C329.27 33.2283 330.716 33.3344 332.268 32.6093C333.614 31.9799 334.202 30.8408 334.794 27.709C335.149 25.8319 335.206 21.7815 334.938 17.448C334.64 12.6367 334.429 10.7319 333.476 4.29003C333.196 2.40037 333.215 2.3258 333.988 2.2128C334.316 2.16478 334.894 2.06914 335.272 2.00019Z" fill="#252525"/>
<path d="M269.5 137.5L241.5 161L205 209.5L339 261L500 226.5L496.5 165L470.5 116H403.5L300.5 107L269.5 137.5Z" fill="#252525"/>
</svg>
