<svg width="143" height="45" viewBox="0 0 143 45" fill="none" xmlns="http://www.w3.org/2000/svg">
<path fill-rule="evenodd" clip-rule="evenodd" d="M36.973 26.3393C36.85 27.9258 36.6073 29.508 36.1493 31.073C33.9411 38.8115 26.6065 44.0855 18.7483 44.2257C10.8871 44.0855 3.55205 38.8115 1.34729 31.073C0.885923 29.508 0.646666 27.9253 0.523608 26.3393C0.364905 24.2893 0.406464 22.229 0.448008 20.1694C0.474483 18.8569 0.500952 17.5447 0.475585 16.2356C0.38983 10.9857 0.475585 0 0.475585 0L7.94401 0C7.94401 0 7.77979 17.4559 8.00232 26.0486C8.14897 31.7976 11.8986 35.7389 17.2956 36.5763C17.7531 36.6436 18.2144 36.6825 18.6767 36.6925H18.8165C19.2799 36.6823 19.7423 36.6435 20.201 36.5763C25.598 35.7389 29.3477 31.7976 29.4947 26.0486C29.5161 25.1711 29.5355 23.5426 29.5512 22.2299V22.2299C29.5554 21.8812 29.5593 21.5548 29.5629 21.2707H37.0824C37.0927 22.6141 37.0755 25.0028 36.973 26.3393ZM43.8518 0.00100043L51.6208 6.93346H73.4074C73.3456 4.45213 73.4074 0.00100043 73.4074 0.00100043L43.8518 0.00100043ZM79.8506 0.00129304L88.0912 0.00129304L101.955 27.6411L97.7747 35.8989L79.8506 0.00129304ZM106.938 16.484L120.887 44.2258L142.902 0.00352243L134.627 0.00352243C134.627 0.00352243 125.648 18.0048 120.883 27.4452C119.147 24.0441 117.514 20.8414 115.899 17.6726C114.299 14.5347 112.716 11.43 111.067 8.19873C110.095 10.1455 109.269 11.8047 108.498 13.353L108.487 13.375L108.484 13.3805C107.952 14.448 107.447 15.4631 106.938 16.484ZM73.4075 28.3079V21.2704L44.0055 21.2704V44.2254H51.3783V28.3079L73.4075 28.3079ZM29.5624 0.000578145L37.0845 0.000578145V6.93303H29.5624V0.000578145Z" fill="#DADADA"/>
</svg>
