<svg width="100" height="100" viewBox="0 0 100 100" fill="none" xmlns="http://www.w3.org/2000/svg">
<g clip-path="url(#clip0_641_3652)">
<path d="M46.2839 44.8323C46.1033 45.639 46.1602 46.4807 46.4479 47.2557C46.7356 48.0307 47.2417 48.7058 47.905 49.1992L62.4517 59.8759C61.0969 63.0455 58.6769 65.6418 55.6103 67.2159C52.5437 68.7899 49.0234 69.2426 45.6583 68.4956C45.4848 68.457 45.3139 68.4121 45.143 68.3675C42.1455 67.5937 39.4697 65.8916 37.4983 63.5047C36.8992 62.7877 36.0783 62.2906 35.1653 62.092V62.092C31.1999 61.2046 28.3221 65.8408 30.9082 68.975C33.6913 72.3305 37.3592 74.8388 41.4957 76.2154C45.6322 77.592 50.0717 77.7818 54.3105 76.7633C58.5494 75.7447 62.418 73.5586 65.4774 70.4529C68.5368 67.3472 70.6646 63.4462 71.6194 59.1925L72.2257 56.4834L53.0117 42.3343C52.4396 41.9087 51.77 41.6328 51.064 41.5319C50.3581 41.4309 49.638 41.508 48.9695 41.7563C48.3009 42.0045 47.705 42.4159 47.236 42.9531C46.7669 43.4904 46.4397 44.1363 46.2839 44.8323V44.8323Z" fill="#DADADA"/>
<path d="M52.3592 57.0942L37.7789 46.192C38.7715 43.8658 40.3447 41.8335 42.348 40.2898C44.3513 38.7461 46.7174 37.7427 49.2197 37.3757C51.722 37.0088 54.2766 37.2905 56.6388 38.1941C59.001 39.0976 61.0915 40.5926 62.7102 42.5358C63.3315 43.2738 64.1801 43.7848 65.1231 43.9885V43.9885C69.0699 44.8717 71.9259 40.2645 69.36 37.1382C66.5822 33.7718 62.9156 31.2523 58.777 29.8662C54.6384 28.4801 50.1939 28.283 45.9489 29.2973C41.7039 30.3116 37.8286 32.4966 34.7637 35.6039C31.6987 38.7112 29.5671 42.6161 28.6112 46.8747L28.0049 49.5838L47.2529 63.9587C47.8252 64.3844 48.4948 64.6603 49.2008 64.7612C49.9069 64.8622 50.6269 64.785 51.2955 64.5367C51.9641 64.2884 52.56 63.8769 53.029 63.3395C53.4981 62.8022 53.8253 62.1562 53.9809 61.4601V61.4601C54.1613 60.6535 54.1042 59.8119 53.8164 59.0371C53.5286 58.2623 53.0225 57.5874 52.3592 57.0942V57.0942Z" fill="#DADADA"/>
</g>
<defs>
<clipPath id="clip0_641_3652">
<rect width="44.2211" height="48.7517" fill="white" transform="translate(28.0049 28.6572)"/>
</clipPath>
</defs>
</svg>
