<svg width="84" height="107" viewBox="0 0 84 107" fill="none" xmlns="http://www.w3.org/2000/svg">
<g clip-path="url(#clip0_637_2164)">
<path d="M36.1189 37.2568L22.0724 47.6419C21.3919 45.0717 19.8681 42.8044 17.7453 41.2035C15.5757 39.5643 12.9327 38.6732 10.2134 38.6643H0.199219V62.4966H10.2514C12.9926 62.5464 15.6713 61.6758 17.8595 60.024C19.9749 58.4091 21.464 56.1099 22.0724 53.5191L36.1189 63.8851L50.1272 53.5191V62.4966H65.933V57.656H55.4719V38.6358H49.7658V47.6228L36.4517 57.9984L33.5987 55.5828L40.0655 50.7422L46.8938 45.5592L42.9376 42.4493L29.6805 52.473L26.8275 50.0574L40.1416 40.3761L36.1189 37.2568ZM5.58193 43.4859H9.89001C10.7776 43.4841 11.6556 43.6687 12.4672 44.028C13.2834 44.392 14.0226 44.9084 14.6451 45.5496C15.289 46.2151 15.802 46.9959 16.1572 47.8511C16.8704 49.66 16.8704 51.6722 16.1572 53.4811C15.831 54.337 15.3471 55.1241 14.7306 55.8015C14.1252 56.4821 13.3874 57.0322 12.5623 57.4182C11.7043 57.8161 10.7693 58.0207 9.82344 58.0174H5.58193V43.4955V43.4859ZM83.8881 57.656V62.4966H68.0823V38.6453H73.8359V57.6655H83.8881V57.656Z" fill="#252525"/>
</g>
<defs>
<clipPath id="clip0_637_2164">
<rect width="83.6889" height="106.199" fill="white" transform="translate(0.199219)"/>
</clipPath>
</defs>
</svg>
