<svg width="166" height="38" viewBox="0 0 166 38" fill="none" xmlns="http://www.w3.org/2000/svg">
<path fill-rule="evenodd" clip-rule="evenodd" d="M7.48217 -5.71743e-08L0.589844 0L0.589844 37.2186L7.48217 37.2186L7.48217 -5.71743e-08ZM71.1945 0.000375479L100.125 0.000375239C101.394 0.000367506 102.65 0.250232 103.822 0.735703C104.994 1.22117 106.059 1.93275 106.956 2.82979C107.853 3.72683 108.565 4.79177 109.05 5.96381C109.536 7.13585 109.786 8.39204 109.786 9.66065L109.786 28.2285C109.786 29.4092 109.553 30.5783 109.101 31.669C108.649 32.7598 107.987 33.7509 107.152 34.5858C106.318 35.4206 105.326 36.0829 104.236 36.5347C103.145 36.9865 101.976 37.219 100.795 37.219L70.5247 37.219C69.3441 37.219 68.175 36.9865 67.0842 36.5347C65.9934 36.0829 65.0023 35.4206 64.1674 34.5858C63.3326 33.7509 62.6704 32.7598 62.2185 31.669C61.7667 30.5783 61.5342 29.4092 61.5342 28.2285L61.5342 9.66065C61.5342 8.39204 61.7841 7.13585 62.2695 5.96381C62.755 4.79177 63.4666 3.72683 64.3636 2.82979C65.2607 1.93275 66.3256 1.22117 67.4976 0.735703C68.6697 0.250232 69.9259 0.000367767 71.1945 0.000375479ZM101.733 30.6432C102.35 30.0265 102.696 29.1901 102.696 28.3179L102.696 8.96559C102.696 8.07633 102.343 7.2235 101.714 6.5947C101.085 5.9659 100.232 5.61263 99.3432 5.6126L71.9766 5.6126C71.0873 5.61263 70.2345 5.9659 69.6057 6.5947C68.9769 7.2235 68.6236 8.07633 68.6236 8.96559L68.6236 28.3179C68.6237 29.1901 68.9703 30.0265 69.587 30.6432C70.2038 31.2598 71.0403 31.6062 71.9125 31.6062L99.4073 31.6062C100.28 31.6062 101.116 31.2598 101.733 30.6432ZM14.3744 28.2288L14.3744 9.66069C14.3744 7.09868 15.3922 4.64159 17.2038 2.82995C19.0154 1.01832 21.4725 0.000527678 24.0345 0.00048087L56.0237 0.000480605L56.0237 5.61282L24.8166 5.61282C23.9273 5.61282 23.0745 5.96607 22.4457 6.59486C21.8169 7.22364 21.4637 8.07646 21.4637 8.96569L21.4637 28.3179C21.4637 28.7498 21.5488 29.1774 21.714 29.5765C21.8793 29.9755 22.1216 30.338 22.427 30.6434C22.7324 30.9488 23.0949 31.1911 23.4939 31.3564C23.893 31.5216 24.3206 31.6067 24.7525 31.6067L56.0238 31.6067L56.0238 37.219L23.3646 37.219C20.9803 37.219 18.6936 36.2719 17.0076 34.5859C15.3216 32.8999 14.3744 30.6132 14.3744 28.2288ZM159.507 27.9637L159.507 0.000680996L165.316 0.000680948L165.316 37.2193L161.87 37.2193L122.387 8.2713L122.387 37.2193L116.184 37.2193L116.184 0.000681355L122.387 0.000681304L159.507 27.9637Z" fill="#DADADA"/>
</svg>
