<svg width="100" height="100" viewBox="0 0 100 100" fill="none" xmlns="http://www.w3.org/2000/svg">
<g clip-path="url(#clip0_641_3617)">
<path d="M37.6027 28.6063V28.3257H19.5342V42.7675H19.8148C20.7386 38.7419 23.0012 35.149 26.2325 32.5765C29.4638 30.0041 33.4724 28.6043 37.6027 28.6063V28.6063Z" fill="#DADADA"/>
<path d="M60.3125 28.3257V28.6063C61.0717 28.6049 61.8238 28.7532 62.5257 29.0428C63.2275 29.3323 63.8654 29.7575 64.4027 30.2938C64.9401 30.8302 65.3664 31.4673 65.6573 32.1686C65.9482 32.8699 66.0979 33.6217 66.0979 34.3809V68.9744C66.0979 69.3522 66.0979 69.7839 66.0979 70.2588C66.1039 70.309 66.1039 70.3597 66.0979 70.4099C66.0979 70.4747 66.0979 70.5395 66.0979 70.6042C66.1029 70.6364 66.1029 70.6692 66.0979 70.7014C66.0598 71.0129 65.9799 71.3178 65.8604 71.608C65.8296 71.7154 65.7822 71.8174 65.7201 71.9102C65.4192 72.5128 64.9575 73.0203 64.386 73.3765C63.8144 73.7328 63.1555 73.9239 62.482 73.9286H62.6979C65.1701 74.0582 67.6314 73.5175 69.8217 72.3636C71.3707 71.4808 72.6619 70.2082 73.567 68.6722C74.3466 67.2905 74.8282 65.761 74.981 64.182C75.1321 62.6277 75.2077 61.3325 75.2077 60.2855V28.6063H80.9823V28.3257H60.3125Z" fill="#DADADA"/>
<path d="M49.1952 28.3257C48.1494 28.3258 47.1221 28.6011 46.2164 29.124C45.3108 29.647 44.5587 30.399 44.0359 31.3047L19.4912 73.9286H26.2264C27.2697 73.9299 28.295 73.6563 29.1989 73.1352C30.1027 72.6141 30.8533 71.864 31.375 70.9604L56.0599 28.3257H49.1952Z" fill="#DADADA"/>
<path d="M59.3728 73.7664C56.8992 73.3545 54.6221 72.1623 52.8744 70.3641C51.1267 68.5659 49.9998 66.2558 49.6585 63.7715L49.5398 63.6636L49.4211 63.7715C49.0814 66.2565 47.9551 68.5674 46.2071 70.3659C44.459 72.1645 42.1811 73.3561 39.7068 73.7664L39.5449 73.9283H59.5455L59.3728 73.7664Z" fill="#DADADA"/>
</g>
<defs>
<clipPath id="clip0_641_3617">
<rect width="62.0955" height="46.1868" fill="white" transform="translate(19.0918 27.6562)"/>
</clipPath>
</defs>
</svg>
