<svg width="95" height="46" viewBox="0 0 95 46" fill="none" xmlns="http://www.w3.org/2000/svg">
<path fill-rule="evenodd" clip-rule="evenodd" d="M14.4781 1.77235C14.4781 0.793509 15.2716 0 16.2504 0L92.5058 0C93.4846 0 94.2782 0.793509 94.2782 1.77235C94.2782 2.7512 93.4846 3.5447 92.5058 3.5447L55.0591 3.5447V13.658H78.4764C79.4552 13.658 80.2488 14.4516 80.2488 15.4304C80.2488 16.4092 79.4552 17.2028 78.4764 17.2028L55.0591 17.2028V27.6871L92.4239 27.6871C93.4027 27.6871 94.1963 28.4806 94.1963 29.4595C94.1963 30.4383 93.4027 31.2318 92.4239 31.2318L41.1946 31.2318V41.6354H78.4763C79.4551 41.6354 80.2486 42.4289 80.2486 43.4077C80.2486 44.3866 79.4551 45.1801 78.4763 45.1801H2.25673C1.27788 45.1801 0.484375 44.3866 0.484375 43.4077C0.484375 42.4289 1.27788 41.6354 2.25673 41.6354H37.6499V31.2318H16.1219C15.1431 31.2318 14.3496 30.4383 14.3496 29.4595C14.3496 28.4806 15.1431 27.6871 16.1219 27.6871H37.6499V17.2028H2.25687C1.27802 17.2028 0.484514 16.4092 0.484514 15.4304C0.484514 14.4516 1.27802 13.658 2.25687 13.658L51.5144 13.658V3.5447L16.2504 3.5447C15.2716 3.5447 14.4781 2.7512 14.4781 1.77235ZM41.1946 27.6871H51.5144V17.2028H41.1946V27.6871Z" fill="#DADADA"/>
</svg>
