<svg width="164" height="164" viewBox="0 0 164 164" fill="none" xmlns="http://www.w3.org/2000/svg">
<path fill-rule="evenodd" clip-rule="evenodd" d="M61.175 81.2157L55.6227 86.7679C49.4903 92.9004 49.4903 102.843 55.6227 108.976C61.7552 115.108 71.6979 115.108 77.8304 108.976L89.5511 97.2548C95.6836 91.1224 95.6836 81.1797 89.5511 75.0472C89.551 75.0471 89.551 75.0471 89.5509 75.047L87.4296 77.1683C87.4296 77.1684 87.4297 77.1684 87.4298 77.1685C92.3907 82.1294 92.3907 90.1726 87.4298 95.1335L75.7091 106.854C70.7482 111.815 62.705 111.815 57.7441 106.854C52.7832 101.893 52.7832 93.8501 57.7441 88.8892L63.2963 83.337L61.175 81.2157Z" fill="#DADADA"/>
<path fill-rule="evenodd" clip-rule="evenodd" d="M103.343 82.4572L108.895 76.905C115.027 70.7725 115.027 60.8298 108.895 54.6973C102.762 48.5648 92.8197 48.5648 86.6872 54.6973L74.9665 66.418C68.834 72.5505 68.834 82.4932 74.9665 88.6257C74.9665 88.6257 74.9666 88.6258 74.9667 88.6259L77.088 86.5045C77.0879 86.5045 77.0879 86.5044 77.0878 86.5043C72.1269 81.5434 72.1269 73.5002 77.0878 68.5393L88.8085 56.8186C93.7694 51.8577 101.813 51.8577 106.774 56.8186C111.734 61.7795 111.734 69.8227 106.774 74.7836L101.221 80.3359L103.343 82.4572Z" fill="#DADADA"/>
</svg>
