<svg width="116" height="107" viewBox="0 0 116 107" fill="none" xmlns="http://www.w3.org/2000/svg">
<g clip-path="url(#clip0_637_2154)">
<path d="M29.3367 70.1555L93.0719 64.6313H23.8125L29.3367 70.1555Z" fill="#252525"/>
<path d="M107.849 41.8438C106.542 41.8743 105.271 42.2819 104.189 43.0176V42.2581H99.9082V61.0403H104.189V50.061C104.159 49.5799 104.228 49.0979 104.391 48.6444C104.555 48.191 104.809 47.7758 105.139 47.4245C105.469 47.0732 105.868 46.7933 106.31 46.6019C106.752 46.4105 107.229 46.3118 107.711 46.3118C108.193 46.3118 108.67 46.4105 109.112 46.6019C109.555 46.7933 109.953 47.0732 110.283 47.4245C110.613 47.7758 110.868 48.191 111.031 48.6444C111.194 49.0979 111.263 49.5799 111.233 50.061V61.1093H115.514V50.061C115.514 45.5035 112.407 41.8438 107.849 41.8438Z" fill="#252525"/>
<path d="M90.0325 41.7744C85.0607 41.7744 81.5391 46.1247 81.5391 51.6489C81.5391 57.4493 85.9584 61.5234 90.4468 61.5234C92.7255 61.5234 95.5567 60.7638 97.9735 57.3112L94.1756 55.1015C91.2754 59.3827 86.3727 57.2421 85.8203 52.8918H98.1116C99.2164 46.2628 94.8662 41.7744 90.0325 41.7744ZM86.0965 49.2321C86.9942 44.8818 92.9327 44.6056 93.7613 49.2321H86.0965Z" fill="#252525"/>
<path d="M72.4252 54.8251C72.3871 55.6858 72.5229 56.5454 72.8243 57.3525C73.1257 58.1597 73.5866 58.8978 74.1795 59.5229C74.7724 60.1481 75.4851 60.6474 76.2752 60.991C77.0653 61.3347 77.9165 61.5156 78.778 61.5232C80.2336 61.4722 81.6552 61.0694 82.9212 60.3493L80.1591 56.6204C79.735 56.923 79.2298 57.0914 78.709 57.1038C78.4244 57.0958 78.1446 57.0292 77.887 56.9082C77.6293 56.7872 77.3994 56.6144 77.2115 56.4005C77.0236 56.1867 76.8817 55.9365 76.7949 55.6654C76.708 55.3943 76.6779 55.1083 76.7065 54.8251V46.746H80.3662V42.2576H76.7065V37.562H72.4252V42.2576H70.1465V46.746H72.4252V54.8251Z" fill="#252525"/>
<path d="M60.7546 61.5239C62.0622 61.4933 63.3331 61.0857 64.4144 60.35V61.0405H68.6957V42.2583H64.4144V53.3067C64.4446 53.7877 64.3758 54.2698 64.2125 54.7232C64.0491 55.1767 63.7946 55.5918 63.4647 55.9431C63.1347 56.2944 62.7362 56.5744 62.2939 56.7658C61.8516 56.9571 61.3747 57.0559 60.8928 57.0559C60.4108 57.0559 59.9339 56.9571 59.4916 56.7658C59.0493 56.5744 58.6508 56.2944 58.3208 55.9431C57.9909 55.5918 57.7364 55.1767 57.573 54.7232C57.4097 54.2698 57.341 53.7877 57.3711 53.3067V42.2583H53.0898V53.3067C53.0898 57.8641 56.1972 61.5239 60.7546 61.5239Z" fill="#252525"/>
<path d="M41.2819 53.3756L47.6347 61.1094H53.5732L45.0798 51.0969L52.3993 42.2582H46.4609L41.2819 48.8181V36.0435H36.9316V61.1094H41.2819V53.3756Z" fill="#252525"/>
<path d="M30.2335 60.2114V61.04H34.5148V42.2578H30.2335V43.0864C29.0668 42.2445 27.6672 41.786 26.2285 41.7744C21.3948 41.7744 17.666 46.1938 17.666 51.6489C17.666 57.104 21.3258 61.5234 26.2285 61.5234C27.669 61.5225 29.0718 61.063 30.2335 60.2114V60.2114ZM22.0163 51.7179C22.0163 48.7487 23.7426 46.4009 26.1594 46.4009C28.5763 46.4009 30.2335 48.7487 30.2335 51.7179C30.2335 54.6872 28.5763 57.035 26.1594 57.035C23.7426 57.035 22.0163 54.6872 22.0163 51.7179Z" fill="#252525"/>
<path d="M16.2854 45.6411C16.2835 43.499 15.4318 41.4451 13.917 39.9303C12.4023 38.4156 10.3484 37.5638 8.20626 37.562H0.886719V61.0398H5.37512V53.7893H8.48247L13.9376 61.0398H19.5308L12.9018 52.2701C13.9597 51.5211 14.8202 50.5266 15.4095 49.3721C15.9988 48.2175 16.2993 46.9373 16.2854 45.6411ZM8.27531 49.3699H5.37512V42.0504H8.27531C9.24594 42.0504 10.1768 42.436 10.8632 43.1223C11.5495 43.8087 11.9351 44.7395 11.9351 45.7102C11.9351 46.6808 11.5495 47.6117 10.8632 48.298C10.1768 48.9844 9.24594 49.3699 8.27531 49.3699V49.3699Z" fill="#252525"/>
</g>
<defs>
<clipPath id="clip0_637_2154">
<rect width="114.627" height="106.199" fill="white" transform="translate(0.886719)"/>
</clipPath>
</defs>
</svg>
