<svg width="100" height="100" viewBox="0 0 100 100" fill="none" xmlns="http://www.w3.org/2000/svg">
<g clip-path="url(#clip0_641_3679)">
<path d="M69.0352 56.4389L62.9366 50.3403L69.0013 44.2759C69.9498 43.3451 70.7044 42.2356 71.2216 41.0115C71.7387 39.7874 72.0082 38.4729 72.0145 37.1441C72.0207 35.8152 71.7636 34.4983 71.2579 33.2693C70.7522 32.0404 70.0081 30.9239 69.0684 29.9842C68.1288 29.0446 67.0122 28.3004 65.7833 27.7948C64.5544 27.2891 63.2375 27.032 61.9086 27.0382C60.5797 27.0444 59.2653 27.3139 58.0412 27.8311C56.8171 28.3483 55.7076 29.1029 54.7768 30.0513L40.0543 44.7738C39.5569 45.2861 39.281 45.9736 39.2862 46.6877C39.2915 47.4018 39.5776 48.0852 40.0825 48.5901C40.5875 49.095 41.2709 49.381 41.985 49.3862C42.6991 49.3914 43.3866 49.1155 43.8989 48.618L58.6215 33.8955C59.4882 33.0289 60.6637 32.542 61.8893 32.542C63.115 32.5421 64.2905 33.029 65.1571 33.8957C66.0238 34.7624 66.5106 35.9379 66.5106 37.1636C66.5106 38.3892 66.0237 39.5647 65.157 40.4313L59.0924 46.4958L56.7183 44.122C56.466 43.8688 56.1663 43.6678 55.8362 43.5305C55.5062 43.3933 55.1523 43.3225 54.7948 43.3221C54.4374 43.3218 54.0833 43.3919 53.753 43.5286C53.4227 43.6652 53.1226 43.8657 52.8698 44.1184C52.6171 44.3712 52.4167 44.6713 52.28 45.0017C52.1434 45.332 52.0732 45.686 52.0736 46.0435C52.0739 46.4009 52.1448 46.7548 52.2821 47.0849C52.4193 47.4149 52.6204 47.7147 52.8736 47.9669L65.1901 60.2833C65.6218 60.7119 65.9645 61.2215 66.1988 61.7828C66.433 62.3441 66.5542 62.9462 66.5552 63.5544C66.5563 64.1627 66.4373 64.7652 66.205 65.3273C65.9728 65.8895 65.6318 66.4002 65.2017 66.8304C64.7716 67.2605 64.2609 67.6014 63.6987 67.8337C63.1365 68.066 62.5341 68.185 61.9258 68.184C61.3176 68.1829 60.7155 68.0618 60.1542 67.8275C59.5928 67.5933 59.0833 67.2505 58.6547 66.8189L48.6829 56.8475C48.303 56.4667 47.8186 56.2071 47.2911 56.1016C46.7636 55.9962 46.2167 56.0496 45.7196 56.2551C45.2224 56.4606 44.7974 56.809 44.4984 57.2561C44.1993 57.7032 44.0396 58.2291 44.0395 58.767V63.4852C44.0395 64.7108 43.5526 65.8863 42.6859 66.753C41.8192 67.6196 40.6438 68.1065 39.4181 68.1065C38.1925 68.1065 37.017 67.6196 36.1503 66.753C35.2836 65.8863 34.7968 64.7108 34.7968 63.4852V37.1971C34.7983 35.9719 35.2857 34.7973 36.152 33.931C37.0183 33.0647 38.1929 32.5773 39.4181 32.5758H46.8574C47.2145 32.5758 47.568 32.5054 47.8978 32.3688C48.2277 32.2322 48.5274 32.0319 48.7798 31.7795C49.0323 31.527 49.2325 31.2273 49.3692 30.8975C49.5058 30.5676 49.5761 30.2141 49.5761 29.8571C49.5761 29.5 49.5058 29.1465 49.3692 28.8167C49.2325 28.4868 49.0323 28.1871 48.7798 27.9347C48.5274 27.6822 48.2277 27.4819 47.8978 27.3453C47.568 27.2087 47.2145 27.1384 46.8574 27.1384H39.4181C36.7513 27.1414 34.1945 28.2021 32.3088 30.0878C30.4231 31.9735 29.3624 34.5303 29.3594 37.1971V63.4852C29.3593 66.0052 30.3052 68.4335 32.0098 70.2895C33.7144 72.1456 36.0536 73.2942 38.5646 73.508C41.0756 73.7219 43.5753 72.9855 45.5693 71.4445C47.5633 69.9035 48.9062 67.6701 49.3323 65.1864L54.8096 70.6637C56.6996 72.5328 59.2526 73.5777 61.9107 73.5703C64.5688 73.5629 67.1159 72.5036 68.9954 70.624C70.8749 68.7444 71.934 66.1972 71.9413 63.5391C71.9486 60.8811 70.9034 58.3281 69.0342 56.4383L69.0352 56.4389Z" fill="#DADADA"/>
</g>
<defs>
<clipPath id="clip0_641_3679">
<rect width="42.6224" height="46.5059" fill="white" transform="translate(29.3584 27.1055)"/>
</clipPath>
</defs>
</svg>
