<svg width="110" height="55" viewBox="0 0 110 55" fill="none" xmlns="http://www.w3.org/2000/svg">
<path fill-rule="evenodd" clip-rule="evenodd" d="M42.2476 8.92756C42.5445 8.73494 42.8558 8.56558 43.1788 8.42102C57.2837 3.33699 71.7089 -0.223699 86.8009 0.0109484C91.2012 0.0795011 95.5752 0.705243 99.8182 1.87323C109.681 4.61823 112.426 13.0209 106.455 21.3825C105.582 22.6039 104.552 23.7131 103.522 24.8219C103.051 25.3294 102.58 25.8368 102.124 26.3548L101.681 25.9823C102.148 25.4615 102.582 24.9117 102.98 24.3361C103.297 23.8155 103.629 23.2988 103.961 22.7814L103.962 22.7813L103.962 22.7812C104.873 21.3628 105.788 19.9385 106.4 18.4103C108.098 14.1494 106.746 10.2423 102.925 7.68728C98.8275 4.94227 94.1085 4.0819 89.3075 3.75786C76.5658 2.89376 64.2486 5.24769 52.0283 8.61842C49.9147 9.19719 47.6788 9.33264 45.4439 9.46803C44.414 9.53042 43.3843 9.5928 42.3668 9.69854L42.2476 8.92756ZM31.1038 11.4042C27.8932 14.9227 24.6802 18.4375 21.4646 21.9485L21.0736 21.7995C21.0913 21.6961 21.1087 21.5928 21.1262 21.4894C21.1785 21.1794 21.2309 20.8693 21.2896 20.5592C21.629 18.75 21.9744 16.9426 22.3198 15.1352L22.3199 15.1349L22.3199 15.1346L22.32 15.1343L22.3201 15.134C22.835 12.4398 23.3498 9.74581 23.8446 7.0465C24.2208 4.99426 23.5765 3.8173 21.852 3.18412C21.0649 2.87366 20.193 2.85303 19.392 3.12593C18.5911 3.39882 17.9132 3.94747 17.4794 4.67395C17.0888 5.37424 16.8003 6.12676 16.6227 6.90869C14.671 14.6682 12.7305 22.4252 10.8012 30.1798C9.39333 35.8361 7.99413 41.49 6.60363 47.1414C6.23117 48.6685 6.17903 50.1881 7.78059 51.0709C10.6448 52.6538 15.4085 50.5159 16.1311 47.3463C16.4073 46.1327 16.6298 44.908 16.8523 43.6841L16.8523 43.6841L16.8523 43.6838C16.9958 42.8945 17.1392 42.1055 17.2969 41.3199C17.6184 39.7072 17.9554 38.0962 18.3173 36.3665L18.3175 36.3652L18.319 36.3583L18.3191 36.3579C18.489 35.5456 18.6644 34.707 18.8463 33.8298C19.9881 35.0401 21.1021 36.2136 22.1941 37.3636L22.1945 37.364C24.7248 40.0291 27.1362 42.569 29.4985 45.1525C31.5061 47.3463 33.9345 48.337 36.821 47.9646C38.7011 47.7192 40.5593 47.3253 42.4157 46.9317L42.4159 46.9317L42.4161 46.9316L42.4163 46.9316L42.4164 46.9316C42.9834 46.8114 43.5502 46.6912 44.1174 46.5753C44.3706 46.5062 44.6075 46.3872 44.8139 46.2252C44.2165 45.8574 43.5922 45.5154 42.9673 45.1731C41.5354 44.3888 40.1003 43.6026 38.9775 42.5006C36.5879 40.1581 34.3103 37.7011 32.0322 35.2436C30.3477 33.4263 28.6629 31.6088 26.9323 29.8371C25.692 28.5782 25.7702 27.7923 26.8094 26.4552C30.9525 21.117 35.0233 15.7289 39.0931 10.342L39.0933 10.3418L39.0934 10.3416L39.0935 10.3415L39.0936 10.3413C39.9958 9.14719 40.8979 7.95314 41.8008 6.75971C42.5866 5.72055 43.2347 4.54359 42.0429 3.44484C40.918 2.40942 39.6182 2.67013 38.471 3.52678C37.8883 3.99148 37.3497 4.5089 36.862 5.07248C35.8538 6.17209 34.8528 7.27679 33.852 8.38126L33.8512 8.38215C32.937 9.39105 32.0229 10.3998 31.1038 11.4042ZM51.5402 20.4975H45.2755C45.1786 17.5178 45.417 17.2385 48.1434 17.2459C48.5158 17.2459 48.892 17.2252 49.2681 17.2046L49.2682 17.2045C50.0206 17.1632 50.7729 17.1218 51.4955 17.2459C55.1083 17.8754 57.0116 16.1099 58.1997 12.9441C58.7174 11.5622 58.5536 10.9067 57.0302 10.9067C56.1109 10.9031 55.1918 10.8985 54.2729 10.8939C50.4716 10.8748 46.6743 10.8557 42.8769 10.9067C41.0742 10.9328 39.4912 11.7373 39.0443 13.5996C37.4837 20.0468 35.9715 26.5126 34.6344 33.0083C34.0645 35.7682 36.1205 37.9992 38.873 37.8502C42.8148 37.6398 46.7529 37.3627 50.6899 37.0857L50.6906 37.0857L50.6913 37.0857L50.692 37.0856L50.6928 37.0856C52.2603 36.9753 53.8277 36.865 55.3951 36.7589C57.4213 36.6137 59.1234 35.6751 59.7603 33.7793C60.6952 30.997 62.5128 30.0957 65.2243 30.3713C65.599 30.3902 65.9746 30.3602 66.3416 30.2819C67.4292 30.1031 67.8687 30.6022 68.0922 31.6451C68.9601 35.6712 69.0032 35.6695 72.9308 35.5209L73.1874 35.5112C75.0497 35.4404 75.3364 34.703 75.0497 33.053C74.5235 30.0415 74.0357 27.0232 73.5479 24.0045L73.5478 24.0038L73.5476 24.0032L73.5475 24.0025L73.5474 24.0019C73.0857 21.145 72.6239 18.2877 72.1296 15.4358C72.0033 14.7095 71.9172 14.0983 71.8447 13.584C71.6698 12.3432 71.5744 11.6664 71.1863 11.2967C70.7207 10.8529 69.8335 10.8516 67.8815 10.8486H67.8814C67.5018 10.848 67.082 10.8474 66.6172 10.8434C65.0715 10.8322 64.1143 11.3835 63.3918 12.7988C60.7175 18.0467 57.9502 23.2499 55.1679 28.442C54.8551 29.0305 54.2591 29.8908 53.7377 29.9318C51.0248 30.1534 48.3032 30.2645 45.5763 30.3758L45.5762 30.3758L45.576 30.3758L45.5759 30.3758L45.5757 30.3758C44.7275 30.4104 43.8787 30.445 43.0296 30.483C43.0668 26.9708 43.1786 26.8516 46.2811 26.8218C46.653 26.7937 47.0266 26.7937 47.3985 26.8218C49.9126 27.1756 51.5923 26.1961 52.4155 23.7714C52.5656 23.4304 52.7398 23.1005 52.9369 22.7844C53.8755 20.9258 53.6297 20.4975 51.5402 20.4975ZM64.9002 24.2779L64.5687 23.79L66.0064 20.7433L66.5241 20.8029C66.6545 21.8428 66.7018 22.8915 66.6657 23.939C66.6554 24.0522 66.1102 24.1192 65.5715 24.1854C65.3302 24.215 65.0903 24.2445 64.9002 24.2779ZM84.2712 42.8736L84.2687 42.8741C83.1999 43.0748 82.2686 43.2496 81.3404 43.4401C75.8059 44.5812 70.7522 46.9715 65.7025 49.3598C65.1484 49.6219 64.5944 49.8839 64.0398 50.1443C58.6578 52.6845 53.071 54.3493 47.0632 54.5803C44.7045 54.7082 42.3441 54.3617 40.1216 53.5614C37.8992 52.761 35.8598 51.5231 34.1241 49.9208C33.8298 49.6005 33.5573 49.2608 33.3084 48.904C40.9922 49.5894 47.5549 47.0418 53.8978 43.6114C60.602 39.9763 67.6266 37.5478 75.3848 37.9054C78.4576 38.0469 81.4596 38.4864 84.0221 40.3599C84.4778 40.6992 84.8758 41.134 85.3553 41.6577L85.3554 41.6578C85.597 41.9217 85.8593 42.2082 86.16 42.5164C85.4752 42.6476 84.8529 42.7644 84.2712 42.8736ZM91.1282 18.1944L91.1279 18.1958L91.1276 18.1972C90.9563 18.9629 90.7851 19.7289 90.6183 20.4968L90.2682 20.5974C90.0614 20.0548 89.8528 19.5125 89.6441 18.97L89.6436 18.9687L89.6434 18.9681C89.1231 17.6158 88.6022 16.262 88.108 14.8988C87.9691 14.5175 87.8461 14.1713 87.7345 13.8573C87.1775 12.2901 86.9036 11.5196 86.358 11.1466C85.8303 10.7859 85.0484 10.7969 83.5103 10.8187C83.0844 10.8247 82.6006 10.8315 82.0481 10.8315H81.4894C80.3907 10.8576 79.9773 11.3828 80.0518 12.5001C80.1254 13.4813 80.0715 14.4678 79.8916 15.4351C79.1331 19.2469 78.3394 23.0524 77.5461 26.8563L77.5457 26.8582C77.2756 28.1533 77.0055 29.4482 76.7369 30.7431L76.7297 30.7773C76.2514 33.0508 76.0131 34.1837 76.4715 34.7121C76.9268 35.2368 78.0695 35.1651 80.3471 35.0223L80.4615 35.0151C81.9289 34.922 82.6887 34.382 82.9457 32.8586C83.2365 31.1481 83.6287 29.4545 84.0209 27.7605L84.021 27.7602C84.1813 27.0677 84.3417 26.3752 84.4952 25.6814C85.8327 27.8651 86.9197 30.1928 87.7355 32.6202C88.3957 34.5867 89.7022 34.4343 91.006 34.2822C91.4308 34.2326 91.8553 34.1831 92.2571 34.2069C93.7619 34.2926 94.2088 33.313 94.4695 32.002C95.6018 26.291 96.775 20.58 97.9893 14.869L98.0179 14.7346C98.4525 12.6982 98.6702 11.6779 98.2576 11.181C97.8434 10.6821 96.7938 10.7107 94.6904 10.7682L94.5515 10.7719C93.192 10.8129 92.5477 11.3381 92.2944 12.6752C91.9478 14.5291 91.5382 16.3608 91.1283 18.1938L91.1283 18.1941L91.1282 18.1944ZM1.00172 41.7602C0.673962 43.6311 1.09103 45.556 2.16378 47.1235C1.76153 42.4306 2.02225 40.5832 3.97764 37.5477C4.61264 36.5647 5.36178 35.6554 6.11114 34.7459C6.78148 33.9322 7.452 33.1183 8.04114 32.2513C8.59394 31.4454 8.98371 30.5319 9.37322 29.6191C9.54532 29.2158 9.71738 28.8125 9.90343 28.4188L9.28515 28.1059C5.37435 31.9496 1.82485 36.0169 1.00172 41.7602Z" fill="#DADADA"/>
</svg>
