<svg width="48" height="29" viewBox="0 0 48 29" fill="none" xmlns="http://www.w3.org/2000/svg">
<path d="M19.2357 22.4476V0H22.6356V27.5089H18.5402L4.16756 5.17724V27.5089H0.767578V0H4.7471L19.2357 22.4476Z" fill="white"/>
<path d="M44.7868 25.693C42.9065 27.3158 40.2922 28.1271 36.9437 28.1271C33.5952 28.1271 30.9937 27.3158 29.1392 25.693C27.2589 24.1218 26.3187 21.8294 26.3187 18.8158V0H29.9119V18.9317C29.9119 20.8635 30.5043 22.3446 31.6892 23.3749C32.874 24.4052 34.6255 24.9203 36.9437 24.9203C39.2619 24.9203 41.0134 24.4052 42.1982 23.3749C43.383 22.3446 43.9755 20.8635 43.9755 18.9317V0H47.5686V18.8158C47.5686 21.8037 46.6414 24.0961 44.7868 25.693Z" fill="white"/>
</svg>
