<svg width="107" height="24" viewBox="0 0 107 24" fill="none" xmlns="http://www.w3.org/2000/svg">
<path d="M0.357422 0.512001H8.58142C11.8241 0.512001 14.2988 1.504 16.0054 3.488C17.7334 5.472 18.5974 8.27733 18.5974 11.904C18.5974 15.488 17.6908 18.2827 15.8774 20.288C14.0641 22.2933 11.4188 23.296 7.94142 23.296H0.357422V0.512001ZM3.33342 20.704H7.81342C10.4374 20.704 12.3788 19.9787 13.6374 18.528C14.9174 17.0773 15.5574 14.8693 15.5574 11.904C15.5574 8.91733 14.9281 6.70933 13.6694 5.28C12.4321 3.82933 10.5334 3.104 7.97342 3.104H3.33342V20.704Z" fill="white"/>
<path d="M23.7459 23.296H20.7699V0.512001H23.7459V23.296Z" fill="white"/>
<path d="M37.3042 13.696V11.104H47.1602V23.296H44.9842L44.3122 20.224C42.6908 22.6133 40.2162 23.808 36.8882 23.808C33.7308 23.808 31.1388 22.7307 29.1122 20.576C27.1068 18.4427 26.1042 15.5307 26.1042 11.84C26.1042 8.23467 27.0855 5.35467 29.0482 3.2C30.9895 1.06667 33.6668 0 37.0802 0C39.6615 0 41.8375 0.629333 43.6082 1.888C45.3575 3.168 46.4028 4.90667 46.7442 7.104L43.8642 7.296C43.5442 5.78133 42.7975 4.62933 41.6242 3.84C40.4508 3.05067 38.9895 2.656 37.2402 2.656C34.6802 2.656 32.6855 3.47733 31.2562 5.12C29.8482 6.76267 29.1442 9.03467 29.1442 11.936C29.1442 14.7093 29.8375 16.9387 31.2242 18.624C32.5895 20.3093 34.4988 21.152 36.9522 21.152C38.8722 21.152 40.4615 20.608 41.7202 19.52C42.9788 18.432 43.8108 16.9067 44.2162 14.944V13.696H37.3042Z" fill="white"/>
<path d="M53.1647 23.296H50.1887V0.512001H53.1647V23.296Z" fill="white"/>
<path d="M54.5949 0.512001H72.8029V3.104H65.1869V23.296H62.2109V3.104H54.5949V0.512001Z" fill="white"/>
<path d="M90.2769 23.296H86.9809L84.5809 16.608H74.9169L72.4529 23.296H69.2849L78.1169 0.512001H81.4769L90.2769 23.296ZM79.0449 5.376L75.8769 14.016H83.6529L80.5489 5.376L79.8129 3.008L79.0449 5.376Z" fill="white"/>
<path d="M94.5272 0.512001V20.704H106.399V23.296H91.5512V0.512001H94.5272Z" fill="white"/>
</svg>
