<svg width="100" height="100" viewBox="0 0 100 100" fill="none" xmlns="http://www.w3.org/2000/svg">
<g clip-path="url(#clip0_641_3631)">
<path d="M84.2965 48.706L74.108 38.5174C73.9342 38.3437 73.7279 38.2058 73.5009 38.1118C73.2738 38.0178 73.0305 37.9694 72.7848 37.9694C72.539 37.9694 72.2957 38.0178 72.0687 38.1119C71.8416 38.2059 71.6354 38.3438 71.4616 38.5175C71.2878 38.6913 71.15 38.8976 71.056 39.1246C70.962 39.3517 70.9135 39.595 70.9136 39.8407C70.9136 40.0865 70.962 40.3298 71.056 40.5568C71.1501 40.7839 71.2879 40.9902 71.4617 41.1639L80.3269 50.0291L57.3041 73.0523L49.7622 65.5104L67.4923 47.78L69.7412 50.0291L55.9808 63.7898C55.807 63.9635 55.6692 64.1698 55.5751 64.3969C55.4811 64.6239 55.4327 64.8672 55.4327 65.113C55.4327 65.3587 55.4811 65.6021 55.5751 65.8291C55.6692 66.0562 55.807 66.2625 55.9808 66.4362C56.1545 66.61 56.3608 66.7478 56.5879 66.8419C56.8149 66.9359 57.0582 66.9843 57.304 66.9843C57.5497 66.9843 57.7931 66.9359 58.0201 66.8419C58.2472 66.7478 58.4535 66.61 58.6272 66.4362L73.7108 51.3521C73.8846 51.1783 74.0224 50.9721 74.1164 50.7451C74.2105 50.518 74.2589 50.2747 74.2589 50.029C74.2589 49.7833 74.2105 49.54 74.1164 49.313C74.0224 49.086 73.8846 48.8797 73.7108 48.706L68.8152 43.8104C68.6415 43.6366 68.4352 43.4987 68.2081 43.4046C67.9811 43.3106 67.7378 43.2622 67.492 43.2622C67.2462 43.2622 67.0029 43.3106 66.7758 43.4046C66.5488 43.4987 66.3425 43.6366 66.1688 43.8104L36.927 73.0521L34.2804 70.4058L68.815 35.871C68.9888 35.6972 69.1267 35.4909 69.2207 35.2639C69.3148 35.0369 69.3631 34.7936 69.3631 34.5478C69.3631 34.3021 69.3148 34.0588 69.2207 33.8317C69.1267 33.6047 68.9888 33.3984 68.815 33.2247L63.5227 27.9316C63.3489 27.7578 63.1426 27.6199 62.9156 27.5258C62.6885 27.4318 62.4452 27.3834 62.1994 27.3834C61.9537 27.3834 61.7103 27.4318 61.4833 27.5258C61.2562 27.6199 61.0499 27.7578 60.8762 27.9316L52.0106 36.796L43.1456 27.931C42.9718 27.7572 42.7655 27.6193 42.5385 27.5253C42.3114 27.4312 42.0681 27.3828 41.8223 27.3828C41.5766 27.3828 41.3332 27.4312 41.1062 27.5253C40.8791 27.6193 40.6729 27.7572 40.4991 27.931L14.8295 53.6012C14.6557 53.775 14.5178 53.9813 14.4237 54.2083C14.3297 54.4354 14.2812 54.6787 14.2812 54.9244C14.2812 55.1702 14.3297 55.4136 14.4237 55.6406C14.5178 55.8676 14.6557 56.0739 14.8295 56.2477L25.0178 66.4359C25.1916 66.6096 25.3978 66.7474 25.6249 66.8415C25.8519 66.9355 26.0952 66.9839 26.341 66.9839C26.5867 66.9839 26.83 66.9355 27.057 66.8415C27.2841 66.7474 27.4903 66.6096 27.6641 66.4359C27.8379 66.2621 27.9757 66.0558 28.0697 65.8288C28.1638 65.6018 28.2122 65.3585 28.2122 65.1127C28.2122 64.867 28.1638 64.6237 28.0697 64.3966C27.9757 64.1696 27.8379 63.9633 27.6641 63.7896L18.7993 54.9244L41.8219 31.9012L49.3636 39.4431L31.6335 57.1735L29.3848 54.9244L43.1454 41.1639C43.3192 40.9901 43.457 40.7838 43.5511 40.5568C43.6451 40.3298 43.6935 40.0864 43.6935 39.8407C43.6935 39.5949 43.6451 39.3516 43.5511 39.1245C43.457 38.8975 43.3192 38.6912 43.1454 38.5174C42.9716 38.3437 42.7653 38.2058 42.5383 38.1118C42.3113 38.0177 42.0679 37.9693 41.8222 37.9693C41.5764 37.9693 41.3331 38.0177 41.106 38.1118C40.879 38.2058 40.6727 38.3437 40.4989 38.5174L25.4151 53.6012C25.2413 53.775 25.1035 53.9813 25.0094 54.2083C24.9153 54.4354 24.8669 54.6787 24.8669 54.9244C24.8669 55.1702 24.9153 55.4136 25.0094 55.6406C25.1035 55.8676 25.2413 56.0739 25.4151 56.2477L30.3107 61.1431C30.4845 61.3169 30.6908 61.4547 30.9178 61.5488C31.1448 61.6428 31.3882 61.6912 31.6339 61.6912C31.8796 61.6912 32.1229 61.6428 32.35 61.5488C32.577 61.4547 32.7833 61.3169 32.957 61.1431L62.1986 31.9012L64.8454 34.5478L30.3109 69.0827C30.1372 69.2564 29.9994 69.4627 29.9053 69.6897C29.8113 69.9167 29.7629 70.16 29.7629 70.4057C29.7629 70.6515 29.8113 70.8948 29.9053 71.1218C29.9994 71.3488 30.1372 71.555 30.3109 71.7288L35.6037 77.0221C35.9547 77.3729 36.4307 77.57 36.927 77.57V77.57C37.1727 77.57 37.416 77.5217 37.6431 77.4277C37.8701 77.3336 38.0764 77.1958 38.2501 77.0221L47.1154 68.1567L55.9804 77.0221C56.1542 77.1959 56.3604 77.3338 56.5875 77.4278C56.8145 77.5219 57.0579 77.5703 57.3036 77.5703C57.5494 77.5703 57.7927 77.5219 58.0198 77.4278C58.2468 77.3338 58.4531 77.1959 58.6269 77.0221L84.2965 51.3523C84.4703 51.1785 84.6081 50.9722 84.7022 50.7452C84.7962 50.5182 84.8446 50.2749 84.8446 50.0291C84.8446 49.7834 84.7962 49.5401 84.7022 49.313C84.6081 49.086 84.4703 48.8797 84.2965 48.706V48.706Z" fill="#DADADA"/>
</g>
<defs>
<clipPath id="clip0_641_3631">
<rect width="70.5631" height="50.1866" fill="white" transform="translate(14.2812 27.3838)"/>
</clipPath>
</defs>
</svg>
