<svg width="136" height="107" viewBox="0 0 136 107" fill="none" xmlns="http://www.w3.org/2000/svg">
<g clip-path="url(#clip0_637_2143)">
<path d="M24.6489 45.8521C19.8821 45.8521 16.8535 49.0598 16.8535 53.522C16.8535 58.2172 19.8642 61.3533 24.9177 61.3533C27.1578 61.3533 29.6846 60.5827 31.2258 58.9699L28.8961 56.676C28.0718 57.5362 26.3155 58.038 24.9715 58.038C22.4089 58.038 20.8319 56.7298 20.5989 54.9198H32.0501C32.6236 48.8806 29.5592 45.8521 24.6489 45.8521ZM20.6527 51.9271C21.1903 50.0275 22.8031 49.0777 24.7565 49.0777C26.8352 49.0777 28.3226 50.0275 28.5735 51.9271H20.6527Z" fill="#252525"/>
<path d="M39.3258 57.8764C38.1968 57.8764 37.4262 57.1955 37.4262 55.7977V49.4538H41.5121V46.3356H37.4621V42.1602L33.8242 42.5544V46.3356V49.4538V55.7977C33.8242 59.4534 35.903 61.2813 39.0928 61.1559C40.1322 61.138 41.1537 60.9229 42.1035 60.5287L41.0999 57.4284C40.5265 57.7152 39.9351 57.8585 39.3258 57.8764Z" fill="#252525"/>
<path d="M66.8341 45.9062C65.3467 45.9062 63.8235 46.1751 62.6945 47.985L62.4257 46.2826H59.0566V60.9595H62.6945V53.2357C62.6945 50.5297 64.4507 49.5262 66.3503 49.5262C67.551 49.5262 68.0527 49.6696 68.7875 50.2968L70.4182 47.1428C69.6297 46.3363 68.3395 45.9062 66.8341 45.9062Z" fill="#252525"/>
<path d="M77.5159 45.9951C72.8387 45.9951 69.9355 49.4538 69.9355 53.6472C69.9355 57.8764 72.7849 61.2992 77.5518 61.2992C82.3186 61.2992 85.2038 57.8764 85.2038 53.6472C85.1859 49.4538 82.1932 45.9951 77.5159 45.9951ZM77.5518 57.966C74.8995 57.966 73.5734 55.8872 73.5734 53.6472C73.5734 51.443 74.9354 49.3104 77.5518 49.3104C79.989 49.3104 81.5301 51.4609 81.5301 53.6472C81.5301 55.8872 80.1861 57.966 77.5518 57.966Z" fill="#252525"/>
<path d="M97.6581 53.809C97.6581 56.0311 96.1348 57.9128 93.9127 57.9128C91.583 57.9128 90.3644 56.2103 90.3644 53.9882V46.3003H86.7266V54.0061C86.7266 58.5579 89.2892 61.2102 92.8016 61.2102C94.8625 61.2102 96.2603 60.4933 97.7656 59.0059L97.9986 60.9951H101.242V46.3003H97.6402V53.809H97.6581Z" fill="#252525"/>
<path d="M111.635 46.0669C109.789 46.0669 108.302 46.8196 106.814 48.2711L106.582 46.264H103.338V60.9588H106.94V53.4681C106.94 51.228 108.463 49.3643 110.685 49.3643C113.015 49.3643 114.234 51.0667 114.234 53.2889V60.9588H117.871V53.253C117.854 48.6474 115.094 46.0669 111.635 46.0669Z" fill="#252525"/>
<path d="M131.581 40.1714V48.2894C130.72 46.7661 128.301 45.9418 126.76 45.9418C122.477 45.9418 119.287 48.5582 119.287 53.6118C119.287 58.4324 122.531 61.2817 126.85 61.2817C128.642 61.2817 130.452 60.6904 131.581 58.9342L131.814 60.9592H135.201V40.1714H131.581ZM127.083 57.9485C124.753 57.9485 122.925 56.1923 122.925 53.6297C122.925 50.9775 124.771 49.3467 127.083 49.3467C129.394 49.3108 131.294 51.1567 131.33 53.4684C131.33 53.5222 131.33 53.5759 131.33 53.6297C131.348 56.264 129.376 57.9485 127.083 57.9485Z" fill="#252525"/>
<path d="M54.5238 46.5343C52.7856 45.5666 49.3269 45.495 47.4452 45.9967C45.0618 46.6419 43.6103 48.4698 43.5027 50.7277L46.9435 51.5163C47.2123 49.7959 47.732 49.2045 49.2015 48.9715C50.2767 48.7923 51.7999 48.8282 52.6422 49.6884C53.1081 50.1722 53.1619 50.3873 53.0902 51.1758C53.0544 51.5521 52.3017 51.6775 51.8537 51.7671C50.2408 52.1255 47.7141 52.3048 46.1371 52.7348C43.0189 53.595 42.5709 57.3763 44.1479 59.3296C45.7607 61.3367 49.8108 61.8026 52.0867 60.2973C52.4271 60.0643 52.7676 59.8314 53.1977 59.5267V60.9245H56.9431C56.9431 59.6701 56.9431 58.3798 56.9431 57.1612C56.961 54.9391 57.0327 52.699 56.961 50.4769C56.9073 48.8282 55.9754 47.3229 54.5238 46.5343ZM51.6745 57.5913C51.1906 57.8601 50.6709 58.0214 50.1333 58.111C49.4523 58.2364 48.7534 58.3619 48.0725 58.2185C47.6065 58.111 47.1227 57.878 46.8718 57.4659C46.7284 57.215 46.6567 56.9282 46.6747 56.6415C46.6926 56.3727 46.8001 56.1039 46.9793 55.8889C47.1944 55.638 47.4632 55.4408 47.7678 55.3333C48.7176 54.9211 49.7749 54.7957 50.7964 54.6882L52.4988 54.509L52.9289 54.4552L53.126 54.4373C53.1977 54.4373 53.2157 54.4194 53.2336 54.4911C53.2336 54.7419 53.2156 54.9928 53.1798 55.2437C53.144 55.4946 53.0902 55.7276 53.0006 55.9605C52.8035 56.5161 52.4451 57.0178 51.9791 57.3763C51.8537 57.4659 51.7641 57.5375 51.6745 57.5913Z" fill="#252525"/>
<path d="M7.76856 61.2992C3.0017 61.2992 0.152344 57.8764 0.152344 53.6472C0.152344 49.4538 3.07339 45.9951 7.73272 45.9951H16.8184C16.8184 45.9951 16.4242 48.3785 14.1662 49.2925H7.78648C5.17009 49.3104 3.79021 51.443 3.79021 53.6472C3.79021 55.8693 5.13425 57.966 7.76856 57.966C10.4029 57.966 11.7469 55.8872 11.7469 53.6472C11.7469 52.4465 11.281 51.2817 10.4566 50.4215H14.7576C15.1877 51.443 15.4206 52.5361 15.4206 53.6472C15.4206 56.0485 14.4888 58.199 12.7863 59.5968C14.883 60.8333 15.4206 62.5357 15.4206 64.3278C15.4206 68.5033 12.2308 71.0838 7.84024 71.0838C3.73645 71.0838 0.600356 68.7362 0.206105 65.0984L3.89773 64.7041C4.11278 66.4603 5.83315 67.5893 7.84024 67.5893C9.9907 67.5893 11.6752 66.4245 11.6752 64.3278C11.6752 62.2311 9.7219 61.2992 7.84024 61.2813L7.76856 61.2992Z" fill="#252525"/>
</g>
<defs>
<clipPath id="clip0_637_2143">
<rect width="135.049" height="106.199" fill="white" transform="translate(0.152344)"/>
</clipPath>
</defs>
</svg>
