<svg width="100" height="100" viewBox="0 0 100 100" fill="none" xmlns="http://www.w3.org/2000/svg">
<g clip-path="url(#clip0_641_3683)">
<path d="M31.5363 49.8087C35.0338 56.545 37.3659 66.4763 42.7202 68.6786C31.0616 67.0814 26.3979 61.1221 22.3909 52.8739C20.3655 48.7053 17.1573 45.5337 11.3281 45.145C19.3595 45.145 28.4232 43.8128 31.5363 49.8087Z" fill="#DADADA"/>
<path d="M63.4814 50.4167C64.6042 54.9937 65.9007 64.1915 74.2562 59.342C79.4583 54.52 81.7904 51.67 89.2179 51.67C87.7499 49.3381 85.8495 48.5609 84.036 48.5609C81.2722 44.7608 75.7449 45.4518 71.6862 48.9926C68.4526 51.8121 65.8133 53.828 63.4814 50.4167Z" fill="url(#paint0_linear_641_3683)"/>
<path d="M44.139 32.5273C55.2139 32.5273 56.7085 36.6866 61.0431 44.9627C65.3177 53.1237 67.455 62.4507 74.2559 59.3409C69.5924 63.4215 63.9213 68.9805 57.9991 65.6239C53.4756 63.06 51.2389 54.6502 46.4772 42.4246C43.2817 34.2206 39.4678 32.959 33.8594 32.5273H44.139Z" fill="#DADADA"/>
<path d="M31.7559 37.9204C42.8311 37.9204 43.7232 41.4687 46.6164 49.1259C50.1919 58.5891 52.8679 69.6714 60.6409 68.2032C55.3721 70.0169 46.4682 71.7263 41.0286 64.5362C37.8914 60.3904 36.81 56.0419 33.9379 49.234C31.2401 42.839 27.2881 37.9204 22.1064 37.9204H31.7559Z" fill="#DADADA"/>
</g>
<defs>
<linearGradient id="paint0_linear_641_3683" x1="63.4804" y1="53.3617" x2="89.2176" y2="53.3617" gradientUnits="userSpaceOnUse">
<stop stop-color="#7E7E7E"/>
<stop offset="1" stop-color="white"/>
</linearGradient>
<clipPath id="clip0_641_3683">
<rect width="77.8901" height="37.2602" fill="white" transform="translate(11.3281 32.5273)"/>
</clipPath>
</defs>
</svg>
