<svg width="74" height="107" viewBox="0 0 74 107" fill="none" xmlns="http://www.w3.org/2000/svg">
<g clip-path="url(#clip0_637_2179)">
<path fill-rule="evenodd" clip-rule="evenodd" d="M12.2672 43.9589C12.266 43.0222 11.8933 42.1242 11.2307 41.4621C10.5681 40.7999 9.66991 40.4277 8.73319 40.4271H4.07389V47.5375H8.73319C9.20131 47.5384 9.66494 47.4462 10.097 47.2661C10.5292 47.086 10.9211 46.8218 11.25 46.4887C11.579 46.1556 11.8383 45.7604 12.0129 45.3261C12.1876 44.8917 12.274 44.427 12.2672 43.9589ZM8.73319 36.3828C10.7443 36.3828 12.673 37.1817 14.095 38.6038C15.5171 40.0258 16.316 41.9545 16.316 43.9656C16.316 45.9767 15.5171 47.9054 14.095 49.3274C12.673 50.7495 10.7443 51.5484 8.73319 51.5484H4.07389V61.961H0.0429688V36.3828H8.73319ZM20.4538 51.2787H29.5496C29.2886 50.2719 28.6996 49.3807 27.8756 48.746C27.0516 48.1112 26.0396 47.7691 24.9995 47.7737C22.7712 47.7737 20.9441 49.1953 20.4427 51.2787H20.4538ZM25.0396 44.2018C30.2537 44.2018 33.8947 48.353 33.8947 54.2936V54.6145H20.4427C21.158 56.8427 23.0899 58.3223 25.3649 58.3223C27.7358 58.3223 29.5251 56.8293 30.1824 56.1876L30.432 55.947L32.8541 58.9016L32.6447 59.1066C30.6036 61.1121 28.0077 62.2262 25.3315 62.2262C20.2065 62.2262 16.2068 58.1641 16.2068 52.9767C16.1975 51.8178 16.4197 50.6687 16.8603 49.5968C17.3009 48.525 17.9511 47.5518 18.7728 46.7345C19.5944 45.9172 20.571 45.2722 21.6452 44.8373C22.7194 44.4024 23.8697 44.1863 25.0285 44.2018H25.0396ZM40.4815 39.1124V44.4603H45.992V48.0767H40.4703V55.6528C40.4665 55.9521 40.5224 56.2491 40.635 56.5265C40.7475 56.8038 40.9143 57.0558 41.1257 57.2678C41.337 57.4797 41.5885 57.6473 41.8656 57.7607C42.1426 57.874 42.4394 57.9309 42.7387 57.9279H45.914V61.9722H42.6719C38.8838 61.9722 36.4327 59.4787 36.4327 55.6194V39.1303L40.4815 39.1124ZM61.4851 53.1817C61.4758 52.2031 61.1772 51.2492 60.6269 50.4401C60.0765 49.631 59.299 49.0028 58.3923 48.6347C57.4856 48.2666 56.4902 48.1751 55.5316 48.3716C54.573 48.5682 53.6939 49.044 53.0052 49.7392C52.3165 50.4344 51.849 51.3179 51.6614 52.2783C51.4739 53.2388 51.5748 54.2332 51.9513 55.1364C52.3279 56.0396 52.9634 56.8112 53.7777 57.3539C54.5919 57.8967 55.5486 58.1863 56.5272 58.1864C57.1808 58.1831 57.8273 58.0511 58.4298 57.7977C59.0323 57.5444 59.5789 57.1747 60.0384 56.7098C60.4979 56.245 60.8612 55.6941 61.1075 55.0887C61.3538 54.4833 61.4783 53.8353 61.4739 53.1817H61.4851ZM61.9307 46.1872V44.4714H65.4603V61.961H61.9441V60.2453C60.4172 61.5347 58.4811 62.2385 56.4826 62.2307C55.2869 62.2495 54.0994 62.0302 52.9892 61.5856C51.8791 61.141 50.8685 60.48 50.0162 59.6411C49.164 58.8022 48.4872 57.8021 48.0252 56.699C47.5633 55.596 47.3253 54.4121 47.3253 53.2162C47.3253 52.0204 47.5633 50.8364 48.0252 49.7334C48.4872 48.6304 49.164 47.6303 50.0162 46.7913C50.8685 45.9524 51.8791 45.2914 52.9892 44.8468C54.0994 44.4023 55.2869 44.183 56.4826 44.2018C58.4682 44.2097 60.3885 44.912 61.9107 46.1872H61.9307ZM69.1191 61.961V37.7309H73.13V61.961H69.1191Z" fill="#252525"/>
</g>
<defs>
<clipPath id="clip0_637_2179">
<rect width="73.087" height="106.199" fill="white" transform="translate(0.0429688)"/>
</clipPath>
</defs>
</svg>
