<svg width="427" height="379" viewBox="0 0 427 379" fill="none" xmlns="http://www.w3.org/2000/svg">
<path fill-rule="evenodd" clip-rule="evenodd" d="M202.289 0.227074C202.272 0.554545 203.703 3.86881 205.467 7.59425C209.656 16.436 213.27 30.8428 213.27 38.6975C213.27 47.14 210.387 57.7433 205.663 66.6742C203.491 70.7814 201.416 74.1417 201.053 74.1417C199.952 74.1417 192.335 57.0405 190.825 51.1819C189.063 44.3372 189.02 36.0483 190.714 29.4998C192.363 23.1261 191.937 22.6119 189.74 28.3224C187.941 32.9962 187.374 46.3204 188.717 52.3685L189.397 55.4317L185.554 52.5985C183.441 51.0402 181.07 49.7672 180.286 49.769C179.483 49.7708 180.073 50.5132 181.639 51.4698C186.86 54.6627 190.728 59.7881 193.735 67.5002C197.035 75.9621 197.392 79.9156 195.377 85.6399C194.62 87.7906 194.001 90.5336 194.001 91.7349C194.001 92.9363 193.782 93.9187 193.515 93.9187C193.247 93.9187 190.254 91.6025 186.862 88.7711C183.471 85.9407 178.13 81.4904 174.994 78.8826C166.182 71.5568 166.147 71.4409 167.091 52.4854C167.829 37.6774 168.072 36.1173 170.099 33.182L172.305 29.9883L169.849 32.218C168.497 33.4451 167.391 34.9969 167.391 35.6675C167.391 38.2854 165.882 36.6913 164.843 32.9778C163.705 28.9074 157.565 19.7548 156.614 20.7096C156.313 21.0104 156.944 22.1915 158.015 23.334C161.688 27.2535 164.019 34.1231 164.465 42.3347C164.863 49.6715 163.149 65.403 161.95 65.403C160.911 65.403 151.87 51.1745 149.093 45.166C145.602 37.6139 142.621 26.0329 142.603 19.9526C142.592 16.4709 142.348 15.6246 141.65 16.6503C140.43 18.4413 141.408 29.8917 143.478 38.0619C144.346 41.4902 144.817 44.1606 144.525 43.9969C140.543 41.7616 133.208 38.6534 132.825 39.0388C132.55 39.3138 133.886 40.1932 135.795 40.9926C141.288 43.2932 147.053 48.6054 149.649 53.7584C153.042 60.4937 156.622 65.6366 164.202 74.6641L170.819 82.5455L163.278 81.427C154.953 80.1934 151.647 78.7906 146.604 74.3541C143.823 71.9082 143.424 71.7537 144.346 73.4803C144.961 74.6347 147.198 76.8405 149.317 78.3813C152.997 81.059 153.046 81.1565 150.416 80.5604C143.198 78.924 140.124 77.9664 135.463 75.8995C130.493 73.6964 130.444 73.6376 132.1 71.8034C133.024 70.7805 135.17 69.0815 136.87 68.0282C138.569 66.975 139.768 65.9199 139.532 65.6835C138.946 65.0948 135.365 67.0587 132.179 69.7171C130.727 70.9277 129.075 71.7638 128.508 71.5752C127.941 71.3876 127.211 68.5756 126.886 65.3285C126.561 62.0813 125.627 57.9751 124.811 56.2043C123.819 54.0491 123.5 53.7446 123.848 55.2845C124.134 56.5493 124.576 60.2747 124.829 63.5632L125.288 69.5423L122.483 66.3578C118.836 62.2175 118.847 63.6267 122.498 68.2481C125.255 71.7371 125.295 71.9312 124.283 76.8185C123.713 79.5688 122.675 82.2953 121.975 82.8767C121.276 83.4589 120.921 84.5002 121.185 85.191C121.449 85.8828 121.279 87.143 120.804 87.992C120.14 89.1823 119.804 88.5117 119.336 85.0586C118.381 78.0032 117.049 77.1919 117.594 83.997C118.124 90.6219 117.119 94.707 113.297 101.469L110.848 105.8L108.348 96.8696C106.973 91.9584 103.519 83.1793 100.672 77.3612C95.5389 66.8711 95.4957 66.7138 95.5205 58.539C95.5398 52.4476 95.3223 50.8866 94.6883 52.5599C94.2166 53.8054 93.7624 56.9835 93.6789 59.6216L93.5266 64.4196L88.7442 59.0541C84.216 53.9737 71.5534 44.3501 70.6239 45.2828C70.3863 45.5211 72.5958 47.4721 75.5348 49.6172C80.9127 53.5432 87.8395 61.4154 92.6623 69.0824C95.3443 73.346 102.366 89.5043 101.788 90.0829C101.61 90.2613 97.1841 88.3388 91.9539 85.8092C80.1997 80.1254 73.9153 74.6835 70.1716 66.9456C68.6594 63.8199 67.4124 62.0041 67.3996 62.9101C67.3702 64.966 70.5047 71.2984 73.596 75.4295L75.9367 78.557L73.5675 77.9609C72.2636 77.6325 70.2431 77.7181 69.076 78.1513C67.3583 78.7879 67.9336 79.0197 72.0948 79.3655C76.1367 79.7013 78.193 80.4924 81.711 83.0652C84.1719 84.8654 89.0764 87.8071 92.609 89.6027C104.167 95.4769 104.959 97.0057 106.846 117.074C107.385 122.796 108.076 128.48 108.383 129.706C108.864 131.628 108.701 131.834 107.198 131.196C106.24 130.79 103.092 129.78 100.206 128.952C94.2487 127.243 90.1719 123.801 84.8133 115.958C80.9522 110.305 79.3712 105.653 79.2005 99.4379C79.0987 95.7244 79.0197 95.5827 78.4353 98.0581C78.0774 99.5758 77.9884 102.255 78.2389 104.013L78.6931 107.209L73.7226 102.825C68.0465 97.8198 59.4488 93.3245 54.0709 92.5518C50.8401 92.0882 51.0897 92.2905 56.1565 94.2434C65.8617 97.9845 73.7813 104.332 79.3739 112.854C85.0978 121.576 88.48 127.048 88.48 127.587C88.48 128.559 74.6833 126.946 67.7024 125.158C57.1347 122.452 50.3666 118.481 42.0782 110.124C38.0051 106.018 32.5345 99.3652 29.9203 95.3408C24.67 87.2589 23.9185 86.8873 27.5704 94.179C32.9428 104.904 43.8491 117.397 51.1998 121.246L54.0709 122.749L49.483 124.006C46.7046 124.767 41.8038 125.142 37.0572 124.955C30.6076 124.7 28.4357 124.206 24.7901 122.164C22.2668 120.75 20.8749 120.303 21.5557 121.125C22.2127 121.919 24.4295 123.47 26.4822 124.571C29.9075 126.409 31.5334 126.574 46.2715 126.574C56.3988 126.574 63.0071 126.954 64.1642 127.602C65.1735 128.168 68.2704 129.135 71.046 129.752C71.4252 129.836 71.788 129.917 72.1348 129.993C76.4673 130.953 78.3009 131.359 78.3747 131.976C78.4289 132.429 77.5358 132.995 75.9873 133.976C75.819 134.082 75.643 134.194 75.4596 134.311C71.6278 136.751 65.5406 142.922 65.5406 144.365C65.5406 144.756 67.7813 142.9 70.5193 140.241C74.575 136.302 76.7065 135.039 82.0211 133.42C89.3122 131.201 93.7661 131.442 101.749 134.488C108.47 137.054 110.373 138.891 113.157 145.497C116.457 153.327 121.525 161.139 127.225 167.18L131.872 172.107L123.251 172.085C116.39 172.067 113.584 171.631 109.501 169.947C102.896 167.223 96.8583 162.838 94.0827 158.746C92.8742 156.965 91.6777 155.717 91.4226 155.972C90.661 156.736 95.6251 163.332 98.7678 165.733C100.377 166.962 103.72 169.032 106.195 170.332L110.695 172.697L101.127 174.34C92.9752 175.741 90.7537 175.817 86.1209 174.853C77.3727 173.032 72.0921 170.13 62.2557 161.739C54.3975 155.034 52.6312 153.009 50.5052 148.26C49.1297 145.186 47.813 142.671 47.579 142.671C46.9101 142.671 48.2278 147.46 49.7041 150.395C50.7841 152.54 50.8034 152.953 49.8051 152.516C39.9118 148.191 36.2727 147.112 30.3901 146.764L23.7909 146.373L31.627 148.088C35.9369 149.031 41.5175 150.847 44.028 152.122C49.4738 154.889 58.378 161.507 62.6612 165.971L65.7461 169.187L58.4532 168.686C53.8158 168.368 49.9134 168.598 47.7369 169.318C43.0462 170.87 44.0748 171.383 49.7243 170.309C56.4713 169.026 63.7256 170.511 73.0445 175.083C80.7099 178.843 82.6772 180.386 79.807 180.386C79.0748 180.386 72.1141 183.618 64.3395 187.569C43.3307 198.245 38.2381 198.845 27.8943 191.867C25.2838 190.105 22.9183 188.664 22.6394 188.664C21.2859 188.664 26.1408 192.854 30.2139 195.202L34.8018 197.846L27.2768 197.855C17.8074 197.865 11.5257 196.565 4.52184 193.146C0.0495792 190.962 -0.555104 190.825 1.30115 192.417C8.42612 198.526 20.6381 201.934 33.1584 201.307C43.0187 200.812 43.0664 200.989 35.2294 208.845C29.3083 214.781 23.9753 217.862 16.7568 219.516L10.9449 220.848L16.1071 220.558C23.8992 220.119 30.6296 216.348 40.3027 206.997C46.4165 201.088 49.9978 198.408 54.0709 196.696C57.0989 195.423 63.499 192.639 68.2933 190.51C77.4232 186.456 93.2743 181.872 101.898 180.791L106.966 180.157L102.761 184.181C100.449 186.394 95.7728 191.89 92.3714 196.394C81.4816 210.814 76.9084 212.883 65.3112 208.637C58.1412 206.013 56.9356 206.814 63.6779 209.722C72.3802 213.475 79.6327 213.159 85.8988 208.752L88.3643 207.019L87.5046 210.024C87.032 211.677 86.6833 215.101 86.731 217.634L86.8173 222.239L88.068 215.929C89.9994 206.189 93.7578 199.224 101.08 191.82C104.616 188.243 109.493 184 111.917 182.391C115.858 179.774 117.006 179.471 122.817 179.521C133.351 179.609 137.398 180.669 145.097 185.355C154.228 190.912 172.252 204.783 169.227 203.925C167.965 203.567 163.4 203.039 159.083 202.751C150.796 202.198 142.452 203.84 138.527 206.796C136.697 208.175 136.696 208.193 138.488 207.569C148.473 204.093 154.51 203.651 164.18 205.686C186.689 210.424 198.753 226.057 201.446 253.975C202.22 261.996 201.916 270.988 199.656 307.005L196.935 350.376L194.053 356.43C191.38 362.045 187.881 365.585 182.559 367.925C162.231 368.905 148.423 370.822 148.423 373.026C148.423 376.226 177.542 378.821 213.461 378.821C249.381 378.821 278.5 376.226 278.5 373.026C278.5 370.809 264.535 368.883 244.017 367.908C239.147 364.232 235.906 357.37 233.471 350.846C230.026 341.615 227.416 268.998 229.824 249.351C232.688 225.983 239.615 214.984 256.928 206.309C265.424 202.052 273.083 200.348 281.171 200.915C284.956 201.18 289.085 201.641 290.346 201.939C291.979 202.325 291.714 202.016 289.429 200.869C285.418 198.855 267.394 198.559 263.737 200.448C261.992 201.349 262.211 200.946 264.654 198.759C268.929 194.933 284.59 184.465 288.052 183.118C289.566 182.529 294.986 181.823 300.095 181.55L309.384 181.054L314.474 184.44C326.336 192.333 336.355 206.259 337.714 216.741C338.666 224.077 340.089 225.002 339.469 217.882C339.172 214.473 338.654 210.965 338.317 210.086C337.816 208.777 338.174 208.858 340.296 210.531C346.021 215.045 355.033 215.301 362.835 211.171C367.982 208.446 367.154 208.352 359.823 210.83C349.159 214.434 343.792 212.004 334.462 199.343C331.066 194.735 326.324 188.998 323.925 186.595C318.859 181.519 318.982 181.479 331.748 184.088C341.841 186.15 352.671 189.915 367.823 196.634C376.837 200.63 378.624 201.843 385.385 208.557C394.77 217.876 403.647 222.758 410.901 222.592L415.595 222.484L410.756 221.676C402.25 220.256 393.267 214.465 386.724 206.182L383.876 202.577L391.937 203.085C404.475 203.875 416.953 200.719 423.414 195.124L426.606 192.36L422.472 194.605C416.259 197.978 408.356 199.703 399.116 199.702L390.821 199.701L394.569 197.842C396.63 196.818 399.52 194.685 400.992 193.099L403.667 190.217L399.275 193.187C396.859 194.821 392.993 196.803 390.681 197.593C384.613 199.666 378.945 198.111 363.36 190.103C356.258 186.454 349.002 182.94 347.236 182.293L344.025 181.12L346.777 180.141C348.291 179.603 351.388 178.025 353.659 176.636C355.93 175.247 359.646 173.612 361.917 173.001C366.464 171.779 375.764 171.46 379.351 172.404C380.664 172.75 380.272 172.378 378.434 171.537C376.05 170.445 373.377 170.172 368.062 170.477L360.903 170.888L365.31 166.326C373.813 157.521 385.439 151.41 397.703 149.301L402.749 148.432L398.161 148.322C392.998 148.199 386.49 149.733 380.035 152.596C377.64 153.657 375.681 154.393 375.681 154.23C375.681 154.068 376.3 152.449 377.057 150.632C379.713 144.26 378.401 144.331 375.206 150.731C373.431 154.288 371.057 157.818 369.93 158.576C368.804 159.333 365.198 162.326 361.917 165.226C355.187 171.177 347.335 175.28 339.892 176.733C335.867 177.519 332.888 177.396 325.139 176.125L315.429 174.533L320.092 172.214C324.873 169.836 334.39 161.147 334.39 159.159C334.39 158.549 332.712 159.962 330.66 162.298C328.196 165.104 324.555 167.723 319.939 170.011C313.577 173.162 312.098 173.515 303.482 173.94C298.274 174.197 294.015 174.388 294.016 174.365C294.016 174.342 296.109 172.066 298.665 169.306C303.967 163.584 310.567 153.366 312.899 147.271C315.07 141.595 317.087 139.601 323.682 136.609C335.339 131.319 348.325 133.95 357.225 143.405C360.881 147.289 361.118 147.415 359.543 144.639C357.575 141.173 352.884 136.976 348.711 134.951L345.937 133.603L348.651 133.057C350.144 132.756 354.255 131.6 357.788 130.487C363.409 128.717 365.906 128.497 377.781 128.724C392.932 129.013 398.897 127.878 403.667 123.799L406.42 121.446L401.544 123.907C395.535 126.94 386.361 127.8 378.303 126.086C373.226 125.006 372.849 124.771 374.411 123.656C385.076 116.045 391.485 108.839 397.618 97.5586C403.004 87.6526 402.226 87.6958 395.683 97.6662C381.865 118.725 367.99 127.252 344.058 129.392L336.752 130.046L338.315 127.85C339.175 126.642 341.512 122.929 343.508 119.6C350.785 107.457 361.342 98.2466 370.82 95.7676C373.241 95.1338 374.686 94.4182 374.031 94.1762C372.334 93.5489 364.229 96.3637 359.754 99.1334C357.663 100.428 354.067 103.315 351.763 105.55L347.574 109.613L347.802 103.836C347.928 100.659 347.829 99.0929 347.583 100.358C345.849 109.254 344.165 113.605 340.32 119.118C335.581 125.913 331.635 129.345 327.508 130.26C325.994 130.595 323.198 131.456 321.296 132.171C317.244 133.695 316.668 133.764 317.362 132.638C317.644 132.18 318.295 127.523 318.807 122.29C320.703 102.898 321.469 99.6954 324.928 96.6497C326.648 95.1357 330.991 92.4147 334.579 90.6035C338.168 88.7923 343.149 85.8993 345.649 84.1755C349.188 81.7351 351.138 81.0342 354.45 81.013C357.845 80.99 358.374 80.7913 357.065 80.0279C356.161 79.5008 354.1 79.3527 352.477 79.6976L349.53 80.3259L351.996 77.6932C354.633 74.8785 359.176 65.8463 359.103 63.5632C359.078 62.8044 358.087 64.3258 356.9 66.9437C352.704 76.1966 344.021 83.7018 331.46 88.933C330.965 89.1391 330.501 89.3348 330.065 89.5181C327.099 90.767 325.493 91.4431 324.982 90.9603C324.379 90.3906 325.301 88.2068 327.31 83.4459C327.56 82.8536 327.827 82.2214 328.11 81.5475C333.223 69.3667 342.499 57.3615 353.231 49.0331L355.953 46.9211L351.824 49.0276C349.553 50.1866 344.337 54.4502 340.232 58.5022L332.77 65.8703L332.303 60.0328C331.605 51.3282 330.215 51.4284 330.555 60.1598C330.844 67.5968 330.785 67.8332 326.268 77.0438C321.737 86.2811 316.039 102.349 316.039 105.888C316.039 109.182 314.714 107.776 311.476 101.05C308.731 95.3472 308.291 93.4983 308.291 87.6967C308.291 80.6276 307.059 81.2494 306.899 88.3995C306.836 91.2253 306.554 92.101 306.008 91.1591C305.107 89.6036 301.357 78.3776 301.357 77.2361C301.357 76.8286 303.695 75.3862 306.554 74.0313C312.582 71.1723 318.294 66.2943 320.347 62.2524C321.524 59.9353 321.093 60.203 317.966 63.7343C314.433 67.7265 304.675 73.6817 301.669 73.6817C300.053 73.6817 300.069 67.5646 301.704 60.5976C302.384 57.7019 302.595 55.5457 302.174 55.807C301.01 56.5281 299.551 62.7234 299.126 68.7513C298.917 71.716 298.394 74.1417 297.965 74.1417C297.535 74.1417 296.02 73.2245 294.598 72.1032L292.013 70.0639L293.981 67.2924C299.825 59.0651 305.25 39.5015 302.461 36.706C301.601 35.8441 301.357 36.4154 301.357 39.2954C301.357 46.4446 296.262 58.9888 290.38 66.3228L288.536 68.6225L289.098 64.323C289.407 61.9581 289.321 58.4396 288.906 56.5042C288.229 53.339 288.094 53.7722 287.566 60.8037C287.243 65.104 286.377 69.7732 285.641 71.1797C283.711 74.8674 275.397 81.4058 267.189 85.6924C263.284 87.7317 257.409 91.2023 254.133 93.4045L248.177 97.4086L248.709 90.3745C249.631 78.167 251.899 72.0517 258.041 65.2135C260.571 62.3978 260.906 61.7125 259.35 62.5431C256.867 63.8668 252.225 69.9811 249.991 74.8702L248.398 78.3574L247.121 73.9503C246.329 71.2156 245.849 65.1767 245.856 58.0441C245.869 45.7069 247.351 39.5714 251.906 32.9972L253.99 29.9883L251.959 31.7609C248.85 34.4754 244.648 43.9932 243.475 50.9832L242.421 57.2613L240.823 54.6627C239.944 53.2341 238.279 51.2371 237.122 50.2252C235.617 48.908 235.992 49.8637 238.444 53.5938C241.588 58.3771 241.998 59.7835 243.472 70.8439C245.261 84.2666 244.893 89.9982 241.689 98.587C240.599 101.508 238.611 105.115 237.27 106.601C235.93 108.087 232.948 111.39 230.643 113.94L226.455 118.577L226.845 111.077C227.251 103.254 226.208 97.4307 223.849 94.3501C222.632 92.7615 222.637 93.0476 223.883 96.6783C225.59 101.652 225.774 112.057 224.261 118.033C223.656 120.418 221.205 125.475 218.814 129.272L214.467 136.174L213.315 130.914C211.638 123.249 207.141 112.895 202.479 105.959C198.5 100.041 198.414 99.7561 198.823 93.9187C199.053 90.6302 200.172 85.7816 201.309 83.1434C204.789 75.0624 215.78 66.3992 222.621 66.3431C223.979 66.332 225.384 65.8454 225.744 65.2631C226.756 63.6212 219.153 65.1068 213.651 67.6254L208.985 69.7613L211.097 64.5926C212.26 61.7502 213.712 57.1472 214.326 54.3646C215.649 48.3653 216.833 46.2873 222.575 39.875C228.012 33.8048 231.628 26.2288 232.284 19.5331C232.907 13.1842 231.969 13.6414 230.71 20.3012C229.419 27.1192 226.512 32.5161 221.122 38.0923L216.508 42.8664L215.786 35.5075C214.856 26.031 213.071 19.7907 208.682 10.6712C205.373 3.7943 202.356 -1.13524 202.289 0.227074ZM293.833 72.9458C295.745 74.8619 295.05 75.5214 291.122 75.5214C287.367 75.5214 287.335 75.4939 288.97 73.6817C290.87 71.5762 292.258 71.3664 293.833 72.9458ZM127.63 74.2953C127.293 74.6319 127.018 74.356 127.018 73.6817C127.018 73.0075 127.293 72.7315 127.63 73.0682C127.966 73.4058 127.966 73.9577 127.63 74.2953ZM132.753 76.3889C136.159 78.0998 135.929 78.8661 131.835 79.4492C129.943 79.7188 127.628 80.2486 126.691 80.6258C125.192 81.2301 125.247 80.9128 127.15 77.9692C128.339 76.1304 129.518 74.7377 129.771 74.8729C130.023 75.0091 131.366 75.6907 132.753 76.3889ZM298.781 79.4309C299.498 80.5687 300.607 83.3633 301.244 85.6399C301.881 87.9166 304.492 94.2553 307.045 99.7248C311.242 108.717 311.731 110.448 312.148 117.766C313.175 135.813 305.218 153.907 291.715 164.231L288.353 166.803L289.009 161.406C289.813 154.796 292.193 149.88 296.62 145.684C298.474 143.927 299.123 142.928 298.067 143.457C297.014 143.983 294.692 146.035 292.906 148.017L289.661 151.618L289.051 144.079C287.727 127.719 290.457 123.251 305.486 117.18L308.239 116.068L305.028 116.561C296.266 117.905 287.715 124.798 286.193 131.747L285.586 134.513L283.28 130.084C280.137 124.046 278.69 122.714 272.557 120.215C267.297 118.072 267.285 118.058 269.875 117.153C276.636 114.79 281.884 107.371 282.611 99.1453L283.033 94.3786L281.285 100.233C277.73 112.142 273.562 114.7 255.622 115.985C248.967 116.462 241.834 117.307 239.772 117.864C237.712 118.42 235.826 118.678 235.585 118.435C234.795 117.643 250.262 102.674 257.314 97.4059C263.521 92.7679 272.434 86.9452 281.988 81.2844C284.843 79.5937 290.611 78.0704 296.435 77.4688C297.007 77.4099 298.063 78.293 298.781 79.4309ZM145.589 81.9292C149.253 82.9236 155.968 84.1829 160.51 84.7274C174.147 86.3639 184.868 92.7026 193.626 104.308C198.907 111.307 202.03 118.133 203.773 126.497C205.847 136.438 205.404 137.18 200.164 132.546C195.096 128.062 193.178 124.772 192.178 118.844L191.464 114.616L191.357 118.571C191.297 120.746 191.902 123.793 192.701 125.342C192.751 125.439 192.8 125.533 192.847 125.625C193.396 126.686 193.748 127.365 193.57 127.559C193.254 127.904 191.259 126.71 185.714 123.389C185.447 123.229 185.171 123.064 184.888 122.894C180.185 120.08 176.155 116.867 174.502 114.616C171.938 111.124 171.824 110.584 172.276 104.037C172.538 100.243 173.014 96.1034 173.335 94.8385C173.857 92.7873 173.749 92.8369 172.34 95.2985C171.426 96.8935 170.583 100.802 170.341 104.56C169.899 111.453 171.042 115.108 175.002 119.448L176.893 121.52L171.453 120.975C168.448 120.673 164.989 120.851 163.721 121.374C161.743 122.188 162.127 122.326 166.511 122.376C179.413 122.525 193.225 129.909 202.544 141.645L205.185 144.971L204.869 164.056C204.695 174.553 204.456 183.142 204.337 183.143C204.218 183.144 202.844 180.609 201.283 177.51C197.926 170.842 191.497 163.671 185.962 160.419C180.593 157.265 180.059 158.268 185.33 161.608C192.612 166.222 199.785 177.32 202.65 188.403C203.997 193.614 204.69 207.062 203.612 207.062C203.346 207.062 197.669 203.411 190.995 198.949C184.322 194.487 171.165 185.992 161.759 180.07C149.181 172.152 144.392 168.641 143.658 166.797C141.693 161.857 140.827 155.869 140.804 147.076C140.779 137.22 142.23 131.956 147.224 123.769L150.003 119.215L146.84 122.735C145.1 124.672 142.946 127.776 142.054 129.634L140.431 133.013L139.556 129.387C138.257 124.007 131.594 117.732 124.967 115.649C117.687 113.358 116.267 114.253 123.174 116.778C129.833 119.212 134.131 122.584 135.86 126.731C136.674 128.684 137.1 133.362 137.08 140.112L137.05 150.49L134.208 147.002C132.646 145.084 130.078 142.871 128.504 142.084C125.764 140.716 125.79 140.78 129.114 143.596C133.526 147.333 136.743 153.735 137.313 159.919C137.559 162.574 137.583 164.748 137.367 164.748C136.043 164.748 125.239 153.271 122.282 148.722C113.908 135.843 111.182 116.082 116.182 104.497C116.582 103.569 116.966 102.679 117.333 101.827C124.119 86.095 125.4 83.1234 127.605 82.0528C128.118 81.8035 128.682 81.6573 129.377 81.477C129.538 81.4351 129.706 81.3914 129.883 81.3442C135.64 79.8025 138.09 79.8945 145.589 81.9292ZM264.256 119.757C267.251 120.308 271.687 121.61 274.113 122.652C278.913 124.714 281.117 128.009 284.384 138.008C287.236 146.738 284.799 167.63 280.492 171.366C279.603 172.137 270.825 177.859 260.984 184.081C251.143 190.304 238.239 198.649 232.31 202.626C224.076 208.148 221.526 209.473 221.516 208.23C221.51 207.334 220.885 199.358 220.127 190.504L218.749 174.407L221.991 167.804C225.763 160.123 231.411 153.919 237.713 150.533C240.167 149.215 241.141 148.409 239.88 148.74C233.548 150.406 226.245 156.46 221.356 164.098C217.686 169.83 217.488 169.293 218.032 155.062C218.411 145.139 218.523 144.683 222.346 137.563C227.014 128.867 228.247 127.391 232.763 125.08C235.993 123.428 247.992 120.237 254.102 119.405C255.616 119.199 257.295 118.968 257.833 118.893C258.372 118.817 261.262 119.206 264.256 119.757Z" fill="#252525"/>
</svg>
