<svg width="32" height="31" viewBox="0 0 32 31" fill="none" xmlns="http://www.w3.org/2000/svg">
<g clip-path="url(#clip0_630_1400)">
<path d="M15.6988 29.5792L8.55859 22.439L15.6988 15.3555L22.839 22.439L15.6988 29.5792Z" stroke="white" stroke-width="1.8" stroke-linejoin="round"/>
<path d="M15.6992 29.5787L22.8394 22.4385L29.923 29.5787H15.6992Z" stroke="white" stroke-width="1.8" stroke-linejoin="round"/>
<path d="M15.6984 15.3556L8.61483 8.21539L1.47461 1.13184H29.9222L22.8386 8.21539L15.6984 15.3556Z" stroke="white" stroke-width="1.8" stroke-linejoin="round"/>
<path d="M15.6992 15.3556L22.8394 8.21539L29.923 1.13184V29.5794L22.8394 22.4392L15.6992 15.3556Z" stroke="white" stroke-width="1.8" stroke-linejoin="round"/>
<path d="M15.6988 15.3551L8.55859 22.4386L8.61526 8.21484L15.6988 15.3551Z" stroke="white" stroke-width="1.8" stroke-linejoin="round"/>
<path d="M15.6984 29.5792H1.47461V15.3555L15.6984 29.5792Z" stroke="white" stroke-width="1.8" stroke-linejoin="round"/>
<path d="M1.47461 1.13184V15.3556L8.55816 22.4392L8.61483 8.21539L1.47461 1.13184Z" stroke="white" stroke-width="1.8" stroke-linejoin="round"/>
</g>
<defs>
<clipPath id="clip0_630_1400">
<rect width="30.7143" height="30.7143" fill="white" transform="translate(0.341797)"/>
</clipPath>
</defs>
</svg>
