<svg width="74" height="107" viewBox="0 0 74 107" fill="none" xmlns="http://www.w3.org/2000/svg">
<g clip-path="url(#clip0_637_2140)">
<path d="M48.4526 48.8009C46.2245 49.2013 45.0092 50.8026 45.0092 53.7051C45.0092 56.6076 46.5283 58.6094 48.959 58.6094C50.073 58.6094 51.0858 58.209 53.2126 57.2082V59.6102C50.6807 60.7112 49.1615 61.1115 47.136 61.1115C44.9079 61.1115 43.3887 60.511 42.0722 59.2099C40.7556 57.9088 40.1479 56.2073 40.1479 54.3057C40.1479 50.102 43.2875 47.2996 47.9462 47.2996C50.9845 47.2996 53.1113 48.7008 53.1113 50.7026C53.1113 52.0037 52.0985 52.9044 50.6807 52.9044C49.9717 52.9044 49.3641 52.7043 48.5538 52.3039V48.8009H48.4526ZM37.2109 54.4057C39.2364 51.9036 39.9454 50.8026 39.9454 49.6016C39.9454 48.4006 38.9326 47.3997 37.616 47.3997C36.8058 47.3997 36.0968 47.8001 35.6917 48.2004V53.4049L32.3496 57.8087V47.8001H29.2101L23.8424 56.3074V47.7H22.0194L17.2594 48.901V50.102L19.8926 50.4023V61.0114H23.2347L28.2986 52.8044V61.0114H32.0458L37.2109 54.4057ZM7.13179 50.4023C7.94201 50.3022 8.24584 50.3022 8.65094 50.3022C10.879 50.3022 12.0943 51.7034 12.0943 54.5058C12.0943 57.7086 10.6765 59.4101 7.94201 59.4101C7.73945 59.4101 7.5369 59.4101 7.23307 59.4101V50.4023H7.13179ZM7.13179 60.8113C8.04328 60.9113 8.85349 60.9113 9.35988 60.9113C13.9173 60.9113 16.7531 58.0088 16.7531 53.8052C16.7531 50.102 14.6262 47.4998 11.6892 47.4998C10.4739 47.4998 9.56243 47.8001 7.13179 49.2013V47.3997H5.8152L0.548828 49.0011V50.3022H2.77691V65.115L0.751381 65.6154V66.8164H9.35988V65.6154L7.13179 65.115V60.8113V60.8113ZM32.3496 39.7932H45.5156V36.5904H32.3496V39.7932ZM73.4678 29.2841V36.5904H45.5156V11.5688H59.7955V14.4713H62.7325V18.7751H69.7206V29.2841H73.4678ZM62.7325 19.876V29.3842H68.7079V19.876H62.7325ZM46.5283 29.2841H53.4151V26.6819H46.5283V29.2841ZM46.5283 18.7751H58.6815V15.4722H46.5283V18.7751ZM46.5283 19.876V25.681H54.4279V29.2841H58.6815V19.876H46.5283ZM46.5283 35.4894H53.4151V30.285H46.5283V35.4894ZM54.4279 35.4894H58.6815V30.285H54.4279V35.4894ZM59.7955 35.4894H61.7198V30.285H59.7955V35.4894ZM61.7198 29.2841V19.876H59.7955V29.3842H61.7198V29.2841ZM59.7955 15.4722V18.7751H61.7198V15.4722H59.7955ZM46.5283 14.4713H58.6815V12.5697H46.5283V14.4713ZM68.7079 35.4894V30.285H62.7325V35.4894H68.7079ZM72.4551 30.285H69.8219V35.4894H72.4551V30.285Z" fill="#252525"/>
</g>
<defs>
<clipPath id="clip0_637_2140">
<rect width="72.919" height="106.199" fill="white" transform="translate(0.548828)"/>
</clipPath>
</defs>
</svg>
