<svg width="49" height="28" viewBox="0 0 49 28" fill="none" xmlns="http://www.w3.org/2000/svg">
<path d="M17.2515 12.7113C20.7546 13.7416 22.5061 16.0082 22.5061 19.5113C22.5061 22.0097 21.7076 23.9673 20.1106 25.3839C18.5137 26.8006 16.2856 27.5089 13.4266 27.5089H0.753906V0H13.1561C15.6803 0 17.6508 0.592421 19.0674 1.77726C20.5099 2.9621 21.2311 4.61058 21.2311 6.72269C21.2311 9.63328 19.9046 11.6295 17.2515 12.7113ZM12.7311 3.12953H4.34707V11.6681H12.3834C14.0576 11.6681 15.3326 11.2818 16.2084 10.509C17.1099 9.73631 17.5606 8.64162 17.5606 7.22496C17.5606 4.49467 15.9508 3.12953 12.7311 3.12953ZM4.34707 24.3794H13.1561C16.9425 24.3794 18.8356 22.7567 18.8356 19.5113C18.8356 16.2916 16.9425 14.6817 13.1561 14.6817H4.34707V24.3794Z" fill="white"/>
<path d="M48.9972 27.5089H45.0176L42.1199 19.434H30.4518L27.4768 27.5089H23.6519L34.3154 0H38.3722L48.9972 27.5089ZM35.4359 5.87269L31.6109 16.3045H40.9995L37.2518 5.87269L36.3632 3.01362L35.4359 5.87269Z" fill="white"/>
</svg>
