<svg width="50" height="29" viewBox="0 0 50 29" fill="none" xmlns="http://www.w3.org/2000/svg">
<path d="M12.8393 28.668C9.02718 28.668 6.00068 27.3286 3.75978 24.6499C1.51889 21.9968 0.398438 18.5325 0.398438 14.2567C0.398438 9.98101 1.53176 6.54239 3.79842 3.94089C6.03931 1.31363 9.04006 0 12.8006 0C15.6855 0 18.1968 0.79848 20.3347 2.39544C22.421 3.96664 23.6832 6.10451 24.121 8.80904H20.4506C20.0385 7.03178 19.1756 5.65376 17.862 4.67497C16.5483 3.69619 14.9128 3.2068 12.9552 3.2068C10.1734 3.2068 7.99688 4.18558 6.42568 6.14315C4.85447 8.10071 4.06887 10.8052 4.06887 14.2567C4.06887 17.734 4.85447 20.4772 6.42568 22.4862C7.99688 24.4696 10.1734 25.4612 12.9552 25.4612C15.1703 25.4612 16.9605 24.8302 18.3256 23.5681C19.7165 22.2802 20.5794 20.4256 20.9142 18.0044H24.4688C24.0051 21.3272 22.743 23.9415 20.6824 25.8476C18.6218 27.7279 16.0074 28.668 12.8393 28.668Z" fill="white"/>
<path d="M49.7531 28.0112H45.2713L34.8395 13.8704L30.2032 18.3908V28.0112H26.61V0.50227H30.2032V13.9863L44.1895 0.50227H48.9804L37.3509 11.5908L49.7531 28.0112Z" fill="white"/>
</svg>
