<svg width="145" height="107" viewBox="0 0 145 107" fill="none" xmlns="http://www.w3.org/2000/svg">
<g clip-path="url(#clip0_637_2133)">
<path fill-rule="evenodd" clip-rule="evenodd" d="M12.5096 56.7124L16.5468 60.5893L13.1789 63.9607C12.0868 65.0539 10.3158 65.0539 9.22375 63.9607L0.819073 55.5476C-0.273024 54.4541 -0.273024 52.6816 0.819073 51.5884C1.91152 50.4953 3.68214 50.4953 4.77427 51.5884L11.2013 58.022L12.5096 56.7124ZM13.559 55.6619L17.1348 52.0826L21.0896 56.0417L17.797 59.3377L13.559 55.6619Z" fill="#252525"/>
<path fill-rule="evenodd" clip-rule="evenodd" d="M29.7381 59.2629L25.5241 55.5629L35.4268 45.6502C36.5189 44.557 38.2895 44.557 39.382 45.6502C40.4741 46.7434 40.4741 48.5158 39.382 49.6093L29.7381 59.2629ZM28.4276 60.5747L25.0457 63.9601C23.9532 65.0533 22.1826 65.0533 21.0905 63.9601L6.75269 49.6079C5.66056 48.5144 5.66056 46.7419 6.75269 45.6487C7.84478 44.5552 9.61541 44.5552 10.7079 45.6487L23.068 58.0213L24.4583 56.6298L28.4276 60.5747Z" fill="#252525"/>
<path fill-rule="evenodd" clip-rule="evenodd" d="M23.6619 54.6556L27.5983 50.6781L34.9347 58.0219L41.3605 51.5898C42.453 50.4966 44.2236 50.4966 45.3157 51.5898C46.4078 52.6833 46.4078 54.4558 45.3157 55.549L36.9124 63.9606C35.8203 65.0538 34.0497 65.0538 32.9576 63.9606L23.6619 54.6556ZM22.0311 53.0233L12.6863 43.6691C11.5942 42.5759 11.5942 40.8035 12.6863 39.7103C13.7787 38.6168 15.5493 38.6168 16.6415 39.7103L25.996 49.0742L22.0311 53.0233Z" fill="#252525"/>
<path fill-rule="evenodd" clip-rule="evenodd" d="M33.4488 39.7115C32.3567 38.6183 30.586 38.6183 29.4936 39.7115L17.1348 52.0827L21.09 56.0418L33.4488 43.6706C34.5409 42.5771 34.5409 40.8047 33.4488 39.7115Z" fill="#252525"/>
<path fill-rule="evenodd" clip-rule="evenodd" d="M60.613 41.6447H57.1738V61.8671H69.775V58.8131H60.613V41.6447ZM77.2182 47.7252C79.3092 47.7252 80.7124 48.5781 81.4828 49.6236L81.6479 48.0003H84.6193V61.8671H81.6479L81.4828 60.2438C80.7124 61.2893 79.3092 62.1423 77.2182 62.1423C73.4489 62.1423 70.8901 59.0883 70.8901 54.9337C70.8901 50.7517 73.4489 47.7252 77.2182 47.7252ZM77.9336 50.6416C75.7875 50.6416 74.2467 52.3199 74.2467 54.9337C74.2467 57.5475 75.7875 59.2258 77.9336 59.2258C79.5844 59.2258 80.5748 58.3454 81.3177 57.1623V52.7051C80.5748 51.5221 79.5844 50.6416 77.9336 50.6416ZM92.943 43.3506H89.6413V48.0003H87.0276V50.8067H89.6413V56.9697C89.6413 60.3264 91.6498 62.1423 94.8139 62.1423C96.1896 62.1423 97.2076 61.7571 97.8954 61.3169L97.015 58.7306C96.6023 58.9782 95.997 59.1708 95.1165 59.1708C93.8234 59.1708 92.943 58.3454 92.943 56.9422V50.8067H97.125V48.0003H92.943V43.3506ZM104.321 43.3506H101.019V48.0003H98.4052V50.8067H101.019V56.9697C101.019 60.3264 103.027 62.1423 106.192 62.1423C107.567 62.1423 108.585 61.7571 109.273 61.3169L108.393 58.7306C107.98 58.9782 107.375 59.1708 106.494 59.1708C105.201 59.1708 104.321 58.3454 104.321 56.9422V50.8067H108.503V48.0003H104.321V43.3506ZM114.79 48.0003H111.489V61.8671H114.79V48.0003ZM113.139 41.5347C111.984 41.5347 111.103 42.3876 111.103 43.5707C111.103 44.7537 111.984 45.6067 113.139 45.6067C114.323 45.6067 115.203 44.7537 115.203 43.5707C115.203 42.3876 114.323 41.5347 113.139 41.5347ZM124.765 47.7252C120.5 47.7252 117.666 50.7517 117.666 54.9337C117.666 59.0883 120.528 62.1423 124.792 62.1423C127.296 62.1423 129.194 61.0142 130.432 59.0883L128.066 57.2449C127.406 58.3454 126.333 59.2533 124.82 59.2533C122.371 59.2533 121.023 57.3549 121.023 54.9337C121.023 52.485 122.316 50.6141 124.792 50.6141C126.333 50.6141 127.351 51.4945 127.984 52.5951L130.377 50.7792C129.139 48.8532 127.296 47.7252 124.765 47.7252ZM138.509 47.7252C142.773 47.7252 144.864 50.9168 144.864 54.7962V55.9517H135.069C135.152 58.1528 136.473 59.3634 138.784 59.3634C140.407 59.3634 141.59 58.648 142.223 57.7676L144.506 59.6385C143.131 61.2893 141.315 62.1423 138.756 62.1423C134.464 62.1423 131.713 59.1158 131.713 54.9612C131.713 50.7792 134.519 47.7252 138.509 47.7252ZM138.453 50.3665C136.5 50.3665 135.179 51.6596 135.069 53.5856H141.618C141.535 51.6871 140.434 50.3665 138.453 50.3665Z" fill="#252525"/>
</g>
<defs>
<clipPath id="clip0_637_2133">
<rect width="144.863" height="106.199" fill="white"/>
</clipPath>
</defs>
</svg>
