<svg width="178" height="107" viewBox="0 0 178 107" fill="none" xmlns="http://www.w3.org/2000/svg">
<g clip-path="url(#clip0_637_2181)">
<path d="M28.387 37.6772L13.9741 57.1033L0.814453 37.7164C1.51943 37.3639 27.1337 37.2856 28.387 37.6772ZM9.15671 42.0246L14.1307 49.3877L19.5747 42.0246H9.15671Z" fill="#252525"/>
<path d="M97.4758 50.5608C97.3583 45.9392 100.57 41.4352 106.562 41.4744C112.555 41.5135 115.492 45.8217 115.453 50.6391C115.453 55.8481 111.615 59.6864 106.366 59.6864C101.118 59.6864 97.4758 55.9265 97.4758 50.5608ZM110.87 50.5216C110.87 50.1691 110.87 49.7775 110.831 49.425C110.675 47.4667 109.225 45.8218 107.306 45.3909C105.505 45.0384 103.703 45.8609 102.802 47.4275C101.666 49.3466 101.666 51.7749 102.802 53.694C103.938 55.7306 106.523 56.4356 108.56 55.2998C109.147 54.9865 109.617 54.5165 109.97 54.0073C110.635 52.9499 110.949 51.7357 110.87 50.5216Z" fill="#252525"/>
<path d="M177.178 59.7663C173.653 56.8289 170.324 53.5781 166.642 50.4449V59.2571H162.491C162.451 58.9046 162.412 58.5522 162.373 58.1605C162.373 53.0298 162.373 47.86 162.373 42.7293C162.451 42.2984 162.569 41.9068 162.765 41.5151C163.156 41.6718 163.548 41.8676 163.901 42.1418C166.76 44.6875 169.58 47.2725 172.439 49.8574C172.634 50.0532 172.909 50.2099 173.3 50.5232V41.8676H177.452V59.5313L177.178 59.7663Z" fill="#252525"/>
<path d="M154.148 52.9889H150.819V49.5032H158.104C158.182 49.7382 158.221 49.9732 158.221 50.169C158.221 52.5189 158.261 54.8689 158.221 57.2188C158.221 57.5713 158.026 57.8846 157.751 58.1196C154.54 59.9995 149.644 60.4304 146.276 58.1588C143.299 56.1613 142.046 53.2631 142.359 49.7382C142.673 45.9783 144.709 43.315 148.313 42.0617C151.289 41.0043 154.227 41.3959 157.086 42.6884C157.321 42.8059 157.516 42.9625 157.712 43.1192L156.028 46.3308C155.088 46.0174 154.109 45.7433 153.13 45.5475C151.015 45.2341 149.017 45.5475 147.686 47.5057C146.55 49.1507 146.55 51.9706 147.686 53.6547C148.822 55.3388 150.897 56.2005 153.13 55.7305C153.796 55.613 154.266 55.2997 154.187 54.5164C154.109 54.0855 154.148 53.6156 154.148 52.9889Z" fill="#252525"/>
<path d="M34.2617 41.8667H38.3741V48.4465H44.8756V41.8667H49.0663V59.2562H44.9147V52.4806H38.4133V59.2562H34.2617V41.8667Z" fill="#252525"/>
<path d="M54.002 41.8286H65.0858V45.6277H58.2318V48.5259H64.4592V52.1683H58.2318V55.4191H65.125V59.2573H54.002V41.8286Z" fill="#252525"/>
<path d="M129.982 42.9645L128.964 46.646L127.75 46.0194C126.81 45.4711 125.713 45.1969 124.617 45.2752C123.951 45.3536 123.324 45.5494 123.168 46.2935C123.011 47.0377 123.403 47.5468 124.029 47.8602C124.656 48.1735 125.4 48.526 126.066 48.8393C126.536 49.0743 127.006 49.2701 127.476 49.5051C129.826 50.8759 130.687 52.4817 130.257 55.1058C129.865 57.4166 128.377 58.7873 126.144 59.3748C123.246 60.119 120.661 59.2573 118.076 57.8474L119.251 54.0092C119.643 54.205 119.917 54.3616 120.191 54.5183C121.484 55.3016 122.972 55.6541 124.46 55.6541C125.165 55.6149 125.753 55.3799 125.948 54.675C126.183 54.0092 125.909 53.265 125.283 52.9517C124.499 52.4817 123.638 52.1684 122.854 51.7376C122.11 51.3851 121.405 50.9542 120.739 50.5234C118.311 48.8393 117.998 44.4136 121.209 42.4945C123.559 41.0454 127.554 41.202 129.982 42.9645Z" fill="#252525"/>
<path d="M73.8194 55.4963H80.8301V59.2954H69.707V41.8667H73.8194V55.4963Z" fill="#252525"/>
<path d="M88.3879 55.4571H95.2418V59.2562H84.2363V41.8667H88.3879V55.4571Z" fill="#252525"/>
<path d="M24.3145 59.2568V63.4475C23.6095 63.7609 6.18083 63.8392 5.00586 63.5259V59.2568H24.3145Z" fill="#252525"/>
<path d="M138.442 41.8667V59.2562H134.33V41.8667H138.442Z" fill="#252525"/>
</g>
<defs>
<clipPath id="clip0_637_2181">
<rect width="176.637" height="106.199" fill="white" transform="translate(0.814453)"/>
</clipPath>
</defs>
</svg>
