<svg width="55" height="56" viewBox="0 0 55 56" fill="none" xmlns="http://www.w3.org/2000/svg">
<path d="M27.1476 54.057L14.3262 40.9908L27.1476 28.0283L39.969 40.9908L27.1476 54.057Z" stroke="#DADADA" stroke-width="3" stroke-linejoin="round"/>
<path d="M27.1465 54.0564L39.9679 40.9902L52.6875 54.0564L27.1465 54.0564Z" stroke="#DADADA" stroke-width="3" stroke-linejoin="round"/>
<path d="M27.1465 28.0287L14.4269 14.9625L1.60547 2L52.6876 2L39.9679 14.9625L27.1465 28.0287Z" stroke="#DADADA" stroke-width="3" stroke-linejoin="round"/>
<path d="M27.1465 28.0287L39.9679 14.9625L52.6875 2L52.6875 54.0574L39.9679 40.9912L27.1465 28.0287Z" stroke="#DADADA" stroke-width="3" stroke-linejoin="round"/>
<path d="M27.1476 28.0281L14.3262 40.9906L14.4279 14.9619L27.1476 28.0281Z" stroke="#DADADA" stroke-width="3" stroke-linejoin="round"/>
<path d="M27.1465 54.057L1.60547 54.057L1.60547 28.0283L27.1465 54.057Z" stroke="#DADADA" stroke-width="3" stroke-linejoin="round"/>
<path d="M1.60547 2L1.60547 28.0287L14.3251 40.9912L14.4269 14.9625L1.60547 2Z" stroke="#DADADA" stroke-width="3" stroke-linejoin="round"/>
</svg>
