<svg width="58" height="53" viewBox="0 0 58 53" fill="none" xmlns="http://www.w3.org/2000/svg">
<path fill-rule="evenodd" clip-rule="evenodd" d="M44.2977 24.8454C54.1462 23.2639 58.0739 18.6304 57.8844 8.68388C57.8834 8.63517 57.8795 8.49305 57.8737 8.27954C57.8396 7.03232 57.7388 3.34914 57.7667 1.61935C57.7798 0.508373 57.4988 -0.0928639 56.1917 0.011699C55.3598 0.0777594 54.527 0.137681 53.694 0.19761L53.6939 0.197614C49.6651 0.487473 45.6338 0.777508 41.6967 1.76313C35.1158 3.37732 30.5281 8.18721 30.1817 13.8859C30.057 15.9113 30.0804 17.9446 30.1039 19.9774C30.1172 21.139 30.1306 22.3003 30.1164 23.4599C30.1033 24.4533 30.2994 25.0349 31.4757 25.0349C32.4777 25.0518 33.4798 25.0862 34.4818 25.1207C37.7538 25.2332 41.0258 25.3457 44.2977 24.8454ZM0.322591 41.8017C0.35829 42.6871 0.395047 43.5987 0.348954 44.5472L0.377953 45.0975L0.377958 45.0976C0.469588 46.8351 0.574111 48.817 0.662643 50.7883C0.701854 51.6379 0.786811 52.2914 1.89779 52.1869C3.47342 52.0045 5.06126 51.8964 6.64868 51.7884C10.7499 51.5093 14.8483 51.2303 18.7259 49.6708C23.8364 47.7103 27.4765 44.2924 28.0058 38.561C28.2067 36.4245 28.17 34.288 28.1334 32.1515C28.114 31.0204 28.0946 29.8893 28.1104 28.7582C28.1627 27.7714 27.947 27.2159 26.8034 27.1571L26.5868 27.146C21.2864 26.8749 15.9631 26.6026 10.8052 28.1113C5.91039 29.5555 1.90433 32.1239 0.55808 37.4762C0.204685 38.8774 0.262121 40.3019 0.322591 41.8017ZM14.7195 5.41716C24.2935 5.41716 27.2409 8.21422 27.7898 17.7948C27.9796 21.1186 28.0743 22.7785 27.2904 23.6075C26.5083 24.4345 24.8516 24.4345 21.5422 24.4345C14.458 24.4345 10.733 21.1081 9.92916 14.0567C9.84922 13.3691 9.77844 12.6804 9.70767 11.9917V11.9917C9.54704 10.4286 9.38645 8.86586 9.1188 7.3189C8.877 5.89423 9.14494 5.27992 10.733 5.39755C11.6704 5.47255 12.6247 5.45342 13.5837 5.43419C13.9618 5.4266 14.3406 5.41901 14.7195 5.41716ZM30.5547 34.1051C30.7311 43.5615 33.9138 46.6919 43.344 46.6919C44.6027 46.6352 45.8636 46.6439 47.1214 46.718C48.8989 46.9141 49.5263 46.352 49.1865 44.5091C48.9294 43.1218 48.7692 41.7167 48.6087 40.3096C48.5122 39.4631 48.4155 38.6158 48.2977 37.7713C47.3174 30.8767 43.7623 27.7398 36.8611 27.7398C33.6395 27.7398 32.0335 27.7398 31.2477 28.5427C30.4666 29.3407 30.496 30.932 30.5547 34.1051Z" fill="#DADADA"/>
</svg>
