<svg width="140" height="24" viewBox="0 0 140 24" fill="none" xmlns="http://www.w3.org/2000/svg">
<path d="M16.96 16L17.792 23.264H14.784L14.112 17.184C13.9627 15.84 13.568 14.88 12.928 14.304C12.3093 13.728 11.3387 13.44 10.016 13.44H2.976V23.264H0V0.480001H10.56C12.7147 0.480001 14.4107 1.024 15.648 2.112C16.9067 3.17867 17.536 4.64 17.536 6.496C17.536 7.94667 17.1627 9.17333 16.416 10.176C15.6907 11.1787 14.7093 11.8507 13.472 12.192C15.584 12.6187 16.7467 13.888 16.96 16ZM2.976 10.848H9.536C11.0933 10.848 12.3093 10.496 13.184 9.792C14.0587 9.06667 14.496 8.064 14.496 6.784C14.496 5.58933 14.112 4.672 13.344 4.032C12.576 3.392 11.4773 3.072 10.048 3.072H2.976V10.848Z" fill="white"/>
<path d="M23.4823 12.832V20.672H36.9222V23.264H20.5063V0.480001H36.6343V3.072H23.4823V10.24H35.6103V12.832H23.4823Z" fill="white"/>
<path d="M54.909 0.480001V3.072H42.301V10.24H52.733V12.832H42.301V23.264H39.325V0.480001H54.909Z" fill="white"/>
<path d="M72.938 20.48C70.9113 22.6987 68.3087 23.808 65.13 23.808C61.9513 23.808 59.37 22.688 57.386 20.448C55.3807 18.2507 54.378 15.392 54.378 11.872C54.378 8.39467 55.3807 5.55733 57.386 3.36C59.37 1.16267 61.9513 0.0640011 65.13 0.0640011C68.33 0.0640011 70.9327 1.16267 72.938 3.36C74.922 5.57867 75.914 8.416 75.914 11.872C75.914 15.4133 74.922 18.2827 72.938 20.48ZM57.418 11.872C57.418 14.688 58.1327 16.9387 59.562 18.624C60.9913 20.3093 62.858 21.152 65.162 21.152C67.466 21.152 69.3327 20.3093 70.762 18.624C72.17 16.96 72.874 14.7093 72.874 11.872C72.874 9.07733 72.1593 6.85867 70.73 5.216C69.3007 3.552 67.4447 2.72 65.162 2.72C62.8793 2.72 61.0127 3.552 59.562 5.216C58.1327 6.85867 57.418 9.07733 57.418 11.872Z" fill="white"/>
<path d="M95.235 16L96.067 23.264H93.059L92.387 17.184C92.2377 15.84 91.843 14.88 91.203 14.304C90.5843 13.728 89.6137 13.44 88.291 13.44H81.251V23.264H78.275V0.480001H88.835C90.9897 0.480001 92.6857 1.024 93.923 2.112C95.1817 3.17867 95.811 4.64 95.811 6.496C95.811 7.94667 95.4377 9.17333 94.691 10.176C93.9657 11.1787 92.9843 11.8507 91.747 12.192C93.859 12.6187 95.0217 13.888 95.235 16ZM81.251 10.848H87.811C89.3683 10.848 90.5843 10.496 91.459 9.792C92.3337 9.06667 92.771 8.064 92.771 6.784C92.771 5.58933 92.387 4.672 91.619 4.032C90.851 3.392 89.7523 3.072 88.323 3.072H81.251V10.848Z" fill="white"/>
<path d="M110.973 17.888L117.213 0.480001H121.341V23.264H118.621V8.16L118.685 4.064L117.053 8.128L111.613 23.264H108.797L102.909 7.616L101.405 4.032L101.501 8.16V23.264H98.7812V0.480001H102.973L109.437 17.888L110.205 20.16L110.973 17.888Z" fill="white"/>
<path d="M125.981 2.208C127.496 0.736 129.352 0 131.549 0C133.747 0 135.603 0.736 137.117 2.208C138.611 3.68 139.357 5.472 139.357 7.584C139.357 9.696 138.611 11.488 137.117 12.96C135.603 14.432 133.747 15.168 131.549 15.168C129.352 15.168 127.496 14.432 125.981 12.96C124.467 11.488 123.709 9.696 123.709 7.584C123.709 5.472 124.467 3.68 125.981 2.208ZM131.549 13.664C133.32 13.664 134.792 13.0773 135.965 11.904C137.16 10.7093 137.757 9.26933 137.757 7.584C137.757 5.87733 137.16 4.42667 135.965 3.232C134.792 2.05867 133.32 1.472 131.549 1.472C129.757 1.472 128.275 2.05867 127.101 3.232C125.907 4.42667 125.309 5.87733 125.309 7.584C125.309 9.26933 125.907 10.7093 127.101 11.904C128.275 13.0773 129.757 13.664 131.549 13.664ZM134.589 9.12L134.685 10.304C134.707 10.7947 134.835 11.2107 135.069 11.552H133.629C133.437 11.296 133.331 10.88 133.309 10.304L133.245 9.472C133.203 9.024 133.096 8.71467 132.925 8.544C132.776 8.37333 132.509 8.288 132.125 8.288H129.917V11.552H128.509V3.424H131.965C132.861 3.424 133.555 3.62667 134.045 4.032C134.557 4.416 134.813 4.97067 134.813 5.696C134.813 6.63467 134.419 7.27467 133.629 7.616C134.205 7.82933 134.525 8.33067 134.589 9.12ZM129.917 7.008H132.093C132.947 7.008 133.373 6.624 133.373 5.856C133.373 5.088 132.904 4.704 131.965 4.704H129.917V7.008Z" fill="white"/>
</svg>
