<svg width="83" height="121" viewBox="0 0 83 121" fill="none" xmlns="http://www.w3.org/2000/svg">
<path fill-rule="evenodd" clip-rule="evenodd" d="M80.0583 94.5949C79.8993 95.6043 79.7437 96.6653 79.6664 97.2576C79.5531 97.1516 79.364 97.1051 79.0782 97.0635C78.7973 97.0226 78.227 96.9266 77.8108 96.85C70.5048 95.5052 60.1065 94.5883 55.8649 94.9146C50.0387 95.3628 46.9621 97.9466 48.4693 101.125C48.564 101.325 48.7168 101.658 48.809 101.864C48.9013 102.071 49.1395 102.487 49.3383 102.788C50.6028 104.703 51.9213 108.18 52.2187 110.385C52.8018 114.709 49.4085 119.276 44.7199 120.478C44.4172 120.556 43.8981 120.699 43.5664 120.795C42.7569 121.032 39.4431 121.026 38.4595 120.787C29.7903 118.68 27.4742 111.917 32.4588 103.267C36.191 96.7899 32.1988 94.2067 19.6782 94.9967C14.7014 95.3107 8.84093 96.015 4.26794 96.8486C3.88956 96.9175 3.31153 97.0132 2.98351 97.0612C2.68305 97.1051 2.49661 97.1433 2.39738 97.2845C2.36241 97.0132 2.31575 96.6975 2.26155 96.3735C-0.301919 81.0456 -0.206155 70.9055 2.51954 69.0437C4.28649 67.8369 5.47652 68.0658 10.5904 70.5961C10.8813 70.7401 11.1968 70.8579 11.2916 70.8579C11.3862 70.8579 11.6582 70.9543 11.896 71.0722C15.7238 72.9711 20.762 72.4097 23.2171 69.8108C26.3158 66.5306 27.3128 61.7779 25.801 57.4915C23.2777 50.3367 19.0656 48.0362 12.9508 50.4731C12.7994 50.5335 12.3041 50.7245 11.8501 50.8975C10.8202 51.2901 8.79427 52.3294 7.40377 53.1788L6.34638 53.8247H4.8114H3.27643L2.48294 53.2774C1.23292 52.4152 0.744743 51.3463 0.233451 48.3521C-0.103234 46.3807 -0.0707635 39.8715 0.298667 35.2865C0.513724 32.6162 1.22604 27.1248 1.67995 24.6371C1.69092 24.577 1.70127 24.5193 1.71095 24.4639C1.71754 24.4262 1.72383 24.3896 1.72979 24.354L2.01638 24.4032C2.27093 24.4468 2.78883 24.5415 3.1672 24.6135C14.2524 26.7211 26.3943 27.431 30.1737 26.1924C34.0486 24.9226 34.7661 22.5036 32.463 18.4743C28.8614 12.1735 28.8737 7.83503 32.5038 4.15381C35.2137 1.40578 39.8844 0.0399858 43.4816 0.943497L43.5649 0.964432C44.7008 1.24973 45.1807 1.3703 45.6404 1.54446C45.9768 1.67189 46.3022 1.82801 46.8658 2.09834L46.8661 2.09847L46.9214 2.12502C52.8048 4.94637 53.8119 11.4886 49.4697 18.6795C49.2426 19.0557 48.9569 19.579 48.835 19.8424C48.713 20.1058 48.5421 20.4692 48.4553 20.6497C46.2543 25.2275 52.9589 27.7179 64.3956 26.5706C68.4519 26.1637 72.4218 25.6819 74.7493 25.314C75.2224 25.2393 76.0273 25.1127 76.538 25.033C78.7379 24.689 79.9741 24.4212 80.3433 24.2064C80.3717 24.4541 80.4157 24.7599 80.4717 25.1384C81.4244 31.5802 81.636 33.4851 81.9337 38.2964C82.2018 42.6299 82.1451 46.6803 81.7899 48.5574C81.1976 51.6891 80.6102 52.8282 79.2633 53.4577C77.7121 54.1828 76.266 54.0767 74.5723 53.1132C70.951 51.0534 68.8878 50.2225 65.991 49.6573C63.7821 49.2264 61.793 49.7857 59.9704 51.3504C56.9867 53.9118 54.9161 59.4735 55.6413 62.9783C57.3494 71.2326 62.881 74.2059 70.5038 70.9674C70.693 70.887 70.9716 70.7762 71.123 70.721C71.2744 70.666 72.3579 70.1364 73.5309 69.5443L75.6635 68.4677L77.1082 68.4657C78.9375 68.4631 79.6249 68.8024 80.4301 70.1054C82.1537 72.8947 82.0127 82.1898 80.0583 94.5949Z" fill="#89775D"/>
</svg>
