<svg width="100" height="100" viewBox="0 0 100 100" fill="none" xmlns="http://www.w3.org/2000/svg">
<path d="M83.8131 67.6637L74.6826 49.5048C75.5016 47.8624 76.3071 46.2427 77.3854 44.0816C79.5555 48.3325 81.549 52.2488 83.8109 56.6797C86.9296 50.5003 92.8072 38.7173 92.8072 38.7173H98.224L83.8131 67.6637Z" fill="#DADADA"/>
<path d="M52.7338 52.6382V57.2447H38.3143V67.6637H33.4883V52.6382H52.7338Z" fill="#DADADA"/>
<path d="M56.9512 38.7148H62.3452L71.4199 56.8069L68.6837 62.2122L56.9512 38.7148Z" fill="#DADADA"/>
<path d="M38.473 43.2526L33.3877 38.7148H52.7337C52.7337 38.7148 52.6933 41.6284 52.7337 43.2526H38.473Z" fill="#DADADA"/>
<path d="M28.8859 55.9561C28.8054 56.9946 28.6465 58.0302 28.3468 59.0546C26.9013 64.12 22.1003 67.5722 16.9566 67.6639C11.811 67.5722 7.0097 64.12 5.56654 59.0546C5.26455 58.0302 5.10794 56.9943 5.02739 55.9561C4.85731 53.7591 5.03861 51.5441 4.99595 49.3426C4.93982 45.9062 4.99595 38.7153 4.99595 38.7153H9.88452C9.88452 38.7153 9.77703 50.1414 9.92269 55.7658C10.0187 59.529 12.4731 62.1088 16.0058 62.6569C16.3052 62.701 16.6072 62.7264 16.9098 62.733H17.0013C17.3046 62.7263 17.6073 62.7009 17.9075 62.6569C21.4402 62.1088 23.8946 59.529 23.9909 55.7658C24.0086 55.0389 24.0243 53.5245 24.0355 52.6384H28.9575C28.9642 53.5177 28.953 55.0813 28.8859 55.9561Z" fill="#DADADA"/>
<path d="M28.9588 38.7148H24.0352V43.2526H28.9588V38.7148Z" fill="#DADADA"/>
</svg>
