<svg width="100" height="100" viewBox="0 0 100 100" fill="none" xmlns="http://www.w3.org/2000/svg">
<g clip-path="url(#clip0_641_3691)">
<path d="M40.2331 55.2955C38.2497 51.5221 40.5462 50.1673 43.7945 46.6934L53.3189 37.3136L43.5744 27.2402L34.655 36.3432C29.0108 42.3797 31.89 50.7596 40.2331 55.2955Z" fill="url(#paint0_linear_641_3691)"/>
<path d="M59.4717 44.7065C61.4553 48.4799 59.1584 49.8345 55.9099 53.3082L46.3857 62.6881L56.1302 72.7614L65.0497 63.6584C70.6928 57.6223 67.8141 49.2424 59.4717 44.7065Z" fill="url(#paint1_linear_641_3691)"/>
<path d="M33.2572 37.0804C30.1355 40.4216 28.3984 44.8284 28.3984 49.4067C28.3984 53.985 30.1355 58.3918 33.2572 61.7331L46.2568 75.6354C46.7721 76.1869 47.3948 76.6266 48.0863 76.9271C48.7779 77.2277 49.5236 77.3828 50.2773 77.3828C51.031 77.3828 51.7768 77.2277 52.4683 76.9271C53.1599 76.6266 53.7826 76.1869 54.2978 75.6354L67.2974 61.7331C70.4192 58.3919 72.1563 53.985 72.1563 49.4067C72.1563 44.8284 70.4192 40.4216 67.2974 37.0804L54.2978 23.1781C53.7826 22.6265 53.1599 22.1869 52.4683 21.8863C51.7768 21.5857 51.031 21.4307 50.2773 21.4307C49.5236 21.4307 48.7779 21.5857 48.0863 21.8863C47.3948 22.1869 46.7721 22.6265 46.2568 23.1781L33.2572 37.0804ZM63.0997 48.9012C64.5517 50.4552 65.3597 52.5049 65.3597 54.6343C65.3597 56.7638 64.5517 58.8134 63.0997 60.3675L54.1876 69.8981L36.4774 50.9578C35.0254 49.4037 34.2175 47.354 34.2175 45.2246C34.2175 43.0952 35.0254 41.0456 36.4774 39.4915L45.3894 29.9609L63.0997 48.9012Z" fill="#DADADA"/>
</g>
<defs>
<linearGradient id="paint0_linear_641_3691" x1="31.7287" y1="41.2678" x2="53.3186" y2="41.2678" gradientUnits="userSpaceOnUse">
<stop stop-color="#7E7E7E"/>
<stop offset="1" stop-color="#EFEFEF"/>
</linearGradient>
<linearGradient id="paint1_linear_641_3691" x1="46.3849" y1="58.734" x2="67.9743" y2="58.734" gradientUnits="userSpaceOnUse">
<stop stop-color="#EFEFEF"/>
<stop offset="1" stop-color="#7E7E7E"/>
</linearGradient>
<clipPath id="clip0_641_3691">
<rect width="43.758" height="55.9528" fill="white" transform="translate(28.3984 21.4302)"/>
</clipPath>
</defs>
</svg>
