<svg width="80" height="80" viewBox="0 0 80 80" fill="none" xmlns="http://www.w3.org/2000/svg">
<path fill-rule="evenodd" clip-rule="evenodd" d="M5.96548 38.3223H3.33716C3.45246 34.7193 4.08128 31.2459 5.15283 27.973L7.62355 28.8728C6.65234 31.8642 6.07885 35.0348 5.96548 38.3223ZM9.89539 29.7001C9.57225 30.7045 9.29729 31.7305 9.07322 32.7753L11.6626 33.2327C11.8573 32.3392 12.0926 31.4609 12.3664 30.5998L9.89539 29.7001ZM8.38256 38.3223C8.42226 37.2522 8.51438 36.1955 8.65645 35.1546L11.2459 35.6119C11.1273 36.5034 11.0486 37.4075 11.0117 38.3223H8.38256ZM13.1929 28.33L10.7219 27.4304C11.1239 26.4443 11.5736 25.4828 12.0681 24.5486L14.3433 25.8669C13.9234 26.667 13.5392 27.4887 13.1929 28.33ZM15.5527 23.776L13.2779 22.4579C13.8444 21.5588 14.4544 20.6898 15.1048 19.8539L17.118 21.5444C16.5631 22.2626 16.0406 23.0072 15.5527 23.776ZM8.45007 26.6031L5.97929 25.7033C7.30114 22.4128 9.08071 19.3554 11.2392 16.61L13.2534 18.2999C11.2886 20.8115 9.6643 23.6024 8.45007 26.6031ZM18.6716 19.6948L16.6585 18.0044C17.3698 17.2194 18.1193 16.4697 18.9043 15.7585L20.5933 17.7728C19.9237 18.3837 19.2824 19.0251 18.6716 19.6948ZM22.4427 16.219L20.7538 14.2047C21.5894 13.5545 22.4581 12.9447 23.3568 12.3783L24.671 14.6554C23.9034 15.1427 23.1599 15.6647 22.4427 16.219ZM14.8071 16.4504L12.7928 14.7604C15.1352 12.1484 17.8425 9.87027 20.8345 8.00623L22.1486 10.2843C19.422 11.9925 16.9513 14.0714 14.8071 16.4504ZM26.7616 13.4453L25.4475 11.1684C26.3836 10.6728 27.3471 10.2221 28.3353 9.81938L29.2349 12.2899C28.39 12.6376 27.5648 13.0235 26.7616 13.4453ZM31.5047 11.4638L30.6051 8.99319C31.6088 8.67044 32.634 8.3958 33.6781 8.17197L34.1348 10.7609C33.2423 10.9554 32.3649 11.1903 31.5047 11.4638ZM24.2393 9.07446L22.9251 6.79636C25.9856 5.15604 29.3027 3.93236 32.8007 3.20115L33.258 5.79126C30.0666 6.46661 27.038 7.58329 24.2393 9.07446ZM36.5141 10.3443L36.0574 7.75534C37.0985 7.61331 38.1555 7.52124 39.2259 7.48162V10.11C38.3106 10.1469 37.4061 10.2256 36.5141 10.3443ZM41.6414 10.11V7.48164C42.7117 7.52127 43.7685 7.61334 44.8095 7.75536L44.3528 10.3442C43.461 10.2256 42.5566 10.1469 41.6414 10.11ZM35.6373 5.37461L35.18 2.78444C36.8962 2.54128 38.6502 2.4155 40.4336 2.4155C42.2171 2.4155 43.9713 2.54131 45.6877 2.78453L45.2298 5.37466C43.6623 5.15655 42.061 5.04381 40.4334 5.04381C38.8059 5.04381 37.2048 5.15653 35.6373 5.37461ZM46.7321 10.7608L47.1888 8.17199C48.2322 8.39569 49.2569 8.67015 50.26 8.99265L49.3616 11.4635C48.5016 11.1902 47.6244 10.9553 46.7321 10.7608ZM51.6315 12.2896L52.5298 9.81871C53.5168 10.2209 54.4792 10.6709 55.4142 11.1657L54.1013 13.4431C53.2991 13.022 52.4751 12.6368 51.6315 12.2896ZM47.6091 5.79134L48.067 3.20128C51.5632 3.93217 54.8787 5.155 57.9377 6.79407L56.6224 9.07175C53.8252 7.582 50.7985 6.46628 47.6091 5.79134ZM56.1921 14.6528L57.5051 12.3752C58.4049 12.9421 59.2747 13.5525 60.1113 14.2033L58.4237 16.2184C57.7054 15.6633 56.9608 15.1407 56.1921 14.6528ZM60.2731 17.7722C60.9429 18.3833 61.5845 19.0249 62.1955 19.6948L64.2084 18.0045C63.4966 17.2189 62.7464 16.4687 61.9608 15.757L60.2731 17.7722ZM58.7133 10.2813L60.0285 8.00366C63.0213 9.86768 65.7293 12.146 68.0724 14.7583L66.0592 16.4499C63.9139 14.0697 61.4417 11.9899 58.7133 10.2813ZM63.7491 21.5444L65.7621 19.854C66.4122 20.6896 67.0219 21.5582 67.5882 22.4569L65.3117 23.7718C64.8246 23.0045 64.303 22.2613 63.7491 21.5444ZM66.5215 25.8624C66.9424 26.6641 67.3275 27.4876 67.6745 28.3307L70.1452 27.4311C69.7429 26.4445 69.2929 25.4823 68.7981 24.5475L66.5215 25.8624ZM67.613 18.2993L69.6262 16.6078C71.7856 19.3539 73.5659 22.4123 74.8881 25.704L72.417 26.6039C71.2027 23.6027 69.5782 20.8113 67.613 18.2993ZM68.5009 30.6005L70.9716 29.7009C71.2945 30.7044 71.5692 31.7295 71.7932 32.7735L69.2041 33.2307C69.0095 32.3382 68.7745 31.4607 68.5009 30.6005ZM69.6209 35.61C69.7397 36.5021 69.8184 37.4067 69.8554 38.3221H72.4842C72.4445 37.2514 72.3523 36.1941 72.2101 35.1527L69.6209 35.61ZM73.2435 28.8736L75.7145 27.9737C76.7859 31.2464 77.4146 34.7194 77.53 38.3221H74.9013C74.7879 35.035 74.2145 31.8647 73.2435 28.8736ZM3.33709 40.7379H5.96531C6.07823 44.0256 6.65133 47.1965 7.62221 50.1882L5.15209 51.0871C4.08076 47.8142 3.45217 44.3409 3.33709 40.7379ZM5.9784 53.3569L8.44844 52.458C9.66287 55.4603 11.2877 58.2526 13.2535 60.7654L11.2403 62.4538C9.08082 59.7074 7.30056 56.6488 5.9784 53.3569ZM12.794 64.3033L14.8072 62.6148C16.9516 64.994 19.4225 67.073 22.1495 68.7813L20.8362 71.0573C17.844 69.1934 15.1366 66.9153 12.794 64.3033ZM22.9269 72.267L24.2402 69.9911C27.0386 71.482 30.0668 72.5985 33.2579 73.2738L32.8016 75.8615C29.3039 75.1304 25.9871 73.907 22.9269 72.267ZM35.1809 76.2781L35.6372 73.6905C37.2047 73.9086 38.8059 74.0213 40.4334 74.0213C42.0612 74.0213 43.6626 73.9085 45.2304 73.6904L45.6872 76.278C43.971 76.5211 42.217 76.6469 40.4336 76.6469C38.6505 76.6469 36.8968 76.5212 35.1809 76.2781ZM48.0665 75.8613L47.6096 73.2737C50.7991 72.5986 53.8259 71.4828 56.6232 69.9929L57.9365 72.269C54.8777 73.9078 51.5624 75.1305 48.0665 75.8613ZM60.0274 71.0595L58.714 68.7834C61.4421 67.0748 63.9141 64.9952 66.0592 62.6152L68.0713 64.3053C65.7282 66.9175 63.0202 69.1956 60.0274 71.0595ZM69.6252 62.4559L67.613 60.7658C69.5791 58.2526 71.2043 55.4597 72.4188 52.4568L74.8892 53.3558C73.5666 56.649 71.7856 59.7087 69.6252 62.4559ZM68.7976 54.5184C69.2934 53.582 69.7442 52.6181 70.147 51.6296L67.6761 50.7293C67.3288 51.5735 66.9433 52.3981 66.5219 53.2008L68.7976 54.5184ZM65.3121 55.2915C64.8247 56.0593 64.3027 56.803 63.7484 57.5205L65.762 59.2113C66.412 58.3759 67.0215 57.5075 67.5877 56.609L65.3121 55.2915ZM68.5022 48.4594L70.9731 49.3597C71.296 48.3554 71.5708 47.3295 71.7946 46.2847L69.2052 45.8279C69.0107 46.7209 68.7757 47.5987 68.5022 48.4594ZM69.6217 43.4486L72.211 43.9053C72.3529 42.8645 72.4449 41.8078 72.4844 40.7377H69.8556C69.8188 41.6527 69.7402 42.5569 69.6217 43.4486ZM75.7154 51.086L73.245 50.187C74.2156 47.1956 74.7886 44.025 74.9015 40.7377H77.53C77.415 44.3403 76.7865 47.8134 75.7154 51.086ZM64.2083 61.0608L62.1947 59.37C61.5822 60.0415 60.9391 60.6845 60.2675 61.2969L61.9569 63.3117C62.7439 62.5989 63.4953 61.8476 64.2083 61.0608ZM56.1886 64.4134C56.9564 63.9262 57.7002 63.4044 58.4177 62.8502L60.1071 64.865C59.2717 65.5147 58.4033 66.124 57.5049 66.69L56.1886 64.4134ZM55.414 67.8995L54.0976 65.6228C53.2973 66.0428 52.4752 66.4271 51.6336 66.7735L52.534 69.2447C53.5194 68.843 54.4804 68.3936 55.414 67.8995ZM49.3638 67.5997L50.2642 70.0711C49.26 70.3941 48.2342 70.669 47.1894 70.893L46.7325 68.303C47.6254 68.1084 48.5032 67.8733 49.3638 67.5997ZM44.8102 71.3097L44.3532 68.7197C43.4612 68.8383 42.5567 68.917 41.6414 68.9539V71.5835C42.7119 71.5438 43.769 71.4517 44.8102 71.3097ZM39.2259 71.5835C38.1554 71.5439 37.0983 71.4518 36.0571 71.3097L36.5141 68.7197C37.406 68.8383 38.3106 68.917 39.2259 68.9539V71.5835ZM33.6778 70.8931L34.1348 68.303C33.242 68.1085 32.3643 67.8734 31.5038 67.5999L30.6039 70.0715C31.6078 70.3944 32.6334 70.6692 33.6778 70.8931ZM29.234 66.7736C28.3904 66.4264 27.5664 66.0412 26.7642 65.62L25.4488 67.8975C26.3841 68.3926 27.3468 68.8428 28.3341 69.2452L29.234 66.7736ZM23.3582 66.6876L24.6735 64.4102C23.9058 63.9229 23.1622 63.4009 22.4449 62.8467L20.7569 64.8629C21.592 65.5125 22.4601 66.1217 23.3582 66.6876ZM18.9073 63.3093L20.5954 61.293C19.9253 60.6818 19.2836 60.0401 18.6725 59.3701L16.6587 61.061C17.3708 61.8469 18.1213 62.5973 18.9073 63.3093ZM15.105 59.2115L17.1188 57.5206C16.5635 56.8019 16.0407 56.0569 15.5526 55.2877L13.2761 56.6043C13.8432 57.5045 14.4538 58.3746 15.105 59.2115ZM12.0665 54.5134L14.3431 53.1968C13.9227 52.3957 13.5381 51.5728 13.1914 50.7304L10.7203 51.6307C11.1223 52.6171 11.572 53.579 12.0665 54.5134ZM9.89406 49.3609L12.3652 48.4605C12.0917 47.5998 11.8566 46.7218 11.6621 45.8288L9.07242 46.286C9.29633 47.3308 9.57111 48.3566 9.89406 49.3609ZM8.65593 43.9067L11.2456 43.4495C11.127 42.5576 11.0484 41.6531 11.0115 40.7379H8.38238C8.42193 41.8084 8.51394 42.8655 8.65593 43.9067ZM40.4336 0C18.6011 0 0.902344 17.6987 0.902344 39.5312C0.902344 61.3637 18.6011 79.0624 40.4336 79.0624C62.266 79.0624 79.9648 61.3637 79.9648 39.5312C79.9648 17.6987 62.266 0 40.4336 0ZM40.4336 12.5012C25.5049 12.5012 13.4028 24.6033 13.4028 39.532C13.4028 54.4607 25.5049 66.5627 40.4336 66.5627C55.3622 66.5627 67.4643 54.4607 67.4643 39.532C67.4643 24.6033 55.3622 12.5012 40.4336 12.5012Z" fill="#DADADA"/>
</svg>
