<svg width="164" height="164" viewBox="0 0 164 164" fill="none" xmlns="http://www.w3.org/2000/svg">
<circle cx="82" cy="81.6025" r="31.5" stroke="#DADADA" stroke-width="3"/>
<path d="M102.5 81.6025C102.5 80.7741 101.828 80.1025 101 80.1025C100.172 80.1025 99.5 80.7741 99.5 81.6025H102.5ZM64.5 81.6025C64.5 80.7741 63.8284 80.1025 63 80.1025C62.1716 80.1025 61.5 80.7741 61.5 81.6025H64.5ZM99.5 81.6025C99.5 91.2675 91.665 99.1025 82 99.1025V102.103C93.3218 102.103 102.5 92.9244 102.5 81.6025H99.5ZM82 99.1025C72.335 99.1025 64.5 91.2675 64.5 81.6025H61.5C61.5 92.9244 70.6782 102.103 82 102.103V99.1025Z" fill="#DADADA"/>
<circle cx="73" cy="72.6025" r="2" fill="#DADADA"/>
<circle cx="90" cy="72.6025" r="2" fill="#DADADA"/>
</svg>
