<svg width="111" height="107" viewBox="0 0 111 107" fill="none" xmlns="http://www.w3.org/2000/svg">
<g clip-path="url(#clip0_637_2175)">
<path d="M71.5047 44.1326C69.7372 44.1166 68.0048 44.6266 66.5279 45.5978C65.051 46.569 63.8963 47.9574 63.2107 49.5866C62.525 51.2158 62.3393 53.0121 62.6773 54.7471C63.0152 56.4821 63.8615 58.0774 65.1086 59.3301C66.3556 60.5828 67.947 61.4364 69.6804 61.7823C71.4139 62.1281 73.211 61.9506 74.8433 61.2724C76.4756 60.5942 77.8693 59.4458 78.8472 57.9734C79.8251 56.5009 80.343 54.7709 80.3351 53.0034C80.3378 51.8411 80.1115 50.6897 79.6691 49.6148C79.2268 48.54 78.5771 47.5628 77.7571 46.7391C76.9371 45.9154 75.9629 45.2612 74.8901 44.814C73.8173 44.3668 72.667 44.1352 71.5047 44.1326V44.1326ZM71.5753 58.3117C70.8928 58.3205 70.2154 58.1929 69.5829 57.9364C68.9504 57.6799 68.3754 57.2997 67.8918 56.8181C67.2873 56.2203 66.8396 55.4827 66.5885 54.6705C66.3373 53.8583 66.2905 52.9967 66.452 52.1621C66.6136 51.3275 66.9786 50.5456 67.5146 49.8858C68.0507 49.226 68.7413 48.7086 69.5252 48.3796C70.309 48.0506 71.162 47.9201 72.0084 47.9996C72.8548 48.0792 73.6685 48.3663 74.3773 48.8356C75.0862 49.3049 75.6683 49.9419 76.072 50.69C76.4758 51.4381 76.6887 52.2743 76.6919 53.1245C76.6616 54.482 76.1123 55.7764 75.1568 56.7413C74.2013 57.7061 72.9124 58.2681 71.5551 58.3117H71.5753ZM91.1032 48.3308C90.5037 48.3387 89.9117 48.4649 89.3612 48.7022C88.8107 48.9396 88.3125 49.2833 87.8952 49.7137C87.4779 50.1441 87.1497 50.6528 86.9296 51.2104C86.7094 51.768 86.6016 52.3636 86.6123 52.963V61.4301H82.7672L82.7168 44.6271H86.5618V47.2611C87.1128 46.4561 87.8481 45.7944 88.7065 45.331C89.5648 44.8676 90.5215 44.6159 91.4967 44.5968H92.6169V48.3308H91.1032ZM52.7539 44.7785L55.6301 56.3034L58.6577 44.7482H62.5027L57.7494 61.6017H54.0154L50.9879 49.8547L48.0713 61.6521H44.3272L39.2812 44.8592H43.0253L46.396 56.3539L49.0906 44.7986L52.7539 44.7785ZM103.89 52.2263C105.239 51.4375 106.359 50.3086 107.136 48.9522C107.914 47.5958 108.322 46.0593 108.32 44.4959H104.475C104.491 45.8521 103.969 47.1595 103.023 48.1318C102.078 49.104 100.785 49.6619 99.429 49.6831H98.8739L98.8336 36.4224H94.9885L95.1399 61.3897H98.9849V53.4777H99.429C99.6326 53.4553 99.8382 53.4955 100.019 53.5929C100.199 53.6902 100.345 53.8401 100.438 54.0226L105.858 61.3594H110.359L103.89 52.2263Z" fill="#252525"/>
<path d="M30.3997 44.3346C26.2217 44.3346 23.0528 47.1099 21.862 51.51C19.9588 48.547 18.4684 45.3386 17.4316 41.9731H13.0416V53.6192C13.0416 54.7273 12.6015 55.79 11.8179 56.5735C11.0344 57.3571 9.97169 57.7972 8.8636 57.7972C7.75551 57.7972 6.69281 57.3571 5.90927 56.5735C5.12574 55.79 4.68555 54.7273 4.68555 53.6192V41.9731L0.275391 42.0539L0.32585 53.6999C0.321865 54.8343 0.541848 55.9582 0.973183 57.0074C1.40452 58.0565 2.03872 59.0102 2.83942 59.8137C3.64011 60.6172 4.59155 61.2548 5.63917 61.6898C6.6868 62.1248 7.80999 62.3487 8.94433 62.3487C10.0783 62.3329 11.198 62.0933 12.239 61.6435C13.2801 61.1937 14.222 60.5426 15.0107 59.7277C15.7993 58.9128 16.4192 57.9501 16.8347 56.8948C17.2501 55.8396 17.453 54.7127 17.4316 53.5788V51.5605C18.3547 53.4006 19.4316 55.1595 20.6509 56.8183L17.9867 69.7763L22.4776 69.7259L24.4152 60.3707C26.2237 61.5218 28.3267 62.1247 30.4704 62.1065C32.7806 62.0189 34.9665 61.0369 36.5662 59.3678C38.166 57.6987 39.0544 55.4733 39.0439 53.1613C39.0335 50.8494 38.1249 48.6321 36.5101 46.9776C34.8952 45.323 32.7006 44.3609 30.3896 44.2943L30.3997 44.3346ZM30.4603 57.6156C28.6313 57.5675 26.8773 56.8781 25.5051 55.6679L25.9391 53.9119V53.8109C26.262 51.9439 27.2309 48.765 30.5309 48.765C31.6953 48.7623 32.8136 49.2202 33.6417 50.0388C34.4698 50.8575 34.9405 51.9704 34.9512 53.1348C34.9014 54.3089 34.412 55.4215 33.5801 56.2516C32.7482 57.0816 31.6345 57.5685 30.4603 57.6156V57.6156Z" fill="#252525"/>
</g>
<defs>
<clipPath id="clip0_637_2175">
<rect width="110.082" height="106.199" fill="white" transform="translate(0.275391)"/>
</clipPath>
</defs>
</svg>
