<svg width="100" height="100" viewBox="0 0 100 100" fill="none" xmlns="http://www.w3.org/2000/svg">
<path d="M48.9986 72.1545L37.375 60.5309L48.9986 48.9995L60.6222 60.5309L48.9986 72.1545Z" stroke="#DADADA" stroke-width="3" stroke-linejoin="round"/>
<path d="M48.999 72.1544L60.6226 60.5308L72.154 72.1544H48.999Z" stroke="#DADADA" stroke-width="3" stroke-linejoin="round"/>
<path d="M48.9997 48.9997L37.4683 37.3761L25.8447 25.8447H72.1547L60.6233 37.3761L48.9997 48.9997Z" stroke="#DADADA" stroke-width="3" stroke-linejoin="round"/>
<path d="M48.999 48.9997L60.6226 37.3761L72.154 25.8447V72.1547L60.6226 60.5311L48.999 48.9997Z" stroke="#DADADA" stroke-width="3" stroke-linejoin="round"/>
<path d="M48.9986 48.9996L37.375 60.531L37.4673 37.376L48.9986 48.9996Z" stroke="#DADADA" stroke-width="3" stroke-linejoin="round"/>
<path d="M48.9997 72.1545H25.8447V48.9995L48.9997 72.1545Z" stroke="#DADADA" stroke-width="3" stroke-linejoin="round"/>
<path d="M25.8447 25.8447V48.9997L37.3761 60.5311L37.4683 37.3761L25.8447 25.8447Z" stroke="#DADADA" stroke-width="3" stroke-linejoin="round"/>
</svg>
