<svg width="282" height="31" viewBox="0 0 282 31" fill="none" xmlns="http://www.w3.org/2000/svg">
<path d="M22.4069 14.5172C24.0755 15.0456 25.3826 15.9355 26.3282 17.187C27.2737 18.4107 27.7465 19.9263 27.7465 21.734C27.7465 24.2926 26.7453 26.2672 24.743 27.6577C22.7684 29.0204 19.8761 29.7018 16.066 29.7018H0.964844L0.964844 0.500591L15.2317 0.500591C18.7915 0.500591 21.5169 1.18195 23.4081 2.54468C25.327 3.9074 26.2865 5.75681 26.2865 8.09291C26.2865 9.51125 25.9388 10.7766 25.2436 11.8891C24.5761 13.0015 23.6305 13.8775 22.4069 14.5172ZM7.68112 5.58995V12.4731H14.3974C16.066 12.4731 17.3314 12.1811 18.1936 11.5971C19.0557 11.013 19.4868 10.1509 19.4868 9.01066C19.4868 7.87042 19.0557 7.02219 18.1936 6.46598C17.3314 5.88196 16.066 5.58995 14.3974 5.58995H7.68112ZM15.5654 24.6124C17.3453 24.6124 18.6802 24.3204 19.5702 23.7364C20.4879 23.1524 20.9468 22.2485 20.9468 21.0249C20.9468 18.6053 19.153 17.3956 15.5654 17.3956H7.68112V24.6124H15.5654Z" fill="#DADADA"/>
<path d="M38.286 0.500591L45.044 0.500591V24.1953H59.6863V29.7018H38.286V0.500591Z" fill="#DADADA"/>
<path d="M88.3609 23.4444H74.8032L72.2168 29.7018H65.2919L78.3073 0.500591L84.9819 0.500591L98.039 29.7018H90.9472L88.3609 23.4444ZM86.2333 18.3133L81.6029 7.13344L76.9724 18.3133H86.2333Z" fill="#DADADA"/>
<path d="M120.059 30.2024C117.083 30.2024 114.386 29.5627 111.966 28.2835C109.575 26.9764 107.683 25.1826 106.293 22.9021C104.93 20.5938 104.249 17.9935 104.249 15.1012C104.249 12.2089 104.93 9.62249 106.293 7.34202C107.683 5.03373 109.575 3.23994 111.966 1.96065C114.386 0.653551 117.097 0 120.101 0C122.632 0 124.912 0.444971 126.942 1.33491C129 2.22485 130.725 3.50415 132.115 5.17279L127.777 9.17752C125.802 6.89705 123.355 5.75681 120.435 5.75681C118.627 5.75681 117.014 6.16007 115.596 6.96657C114.177 7.74527 113.065 8.84379 112.258 10.2621C111.48 11.6805 111.09 13.2935 111.09 15.1012C111.09 16.9089 111.48 18.5219 112.258 19.9403C113.065 21.3586 114.177 22.471 115.596 23.2775C117.014 24.0562 118.627 24.4456 120.435 24.4456C123.355 24.4456 125.802 23.2914 127.777 20.9832L132.115 24.9879C130.725 26.6843 129 27.9775 126.942 28.8675C124.884 29.7574 122.59 30.2024 120.059 30.2024Z" fill="#DADADA"/>
<path d="M152.739 18.2299L148.818 22.3181V29.7018H142.102V0.500591L148.818 0.500591V14.1417L161.75 0.500591L169.259 0.500591L157.161 13.516L169.968 29.7018H162.084L152.739 18.2299Z" fill="#DADADA"/>
<path d="M199.847 14.5172C201.515 15.0456 202.822 15.9355 203.768 17.187C204.713 18.4107 205.186 19.9263 205.186 21.734C205.186 24.2926 204.185 26.2672 202.183 27.6577C200.208 29.0204 197.316 29.7018 193.506 29.7018L178.405 29.7018V0.500591L192.671 0.500591C196.231 0.500591 198.957 1.18195 200.848 2.54468C202.767 3.9074 203.726 5.75681 203.726 8.09291C203.726 9.51125 203.379 10.7766 202.683 11.8891C202.016 13.0015 201.07 13.8775 199.847 14.5172ZM185.121 5.58995V12.4731H191.837C193.506 12.4731 194.771 12.1811 195.633 11.5971C196.495 11.013 196.926 10.1509 196.926 9.01066C196.926 7.87042 196.495 7.02219 195.633 6.46598C194.771 5.88196 193.506 5.58995 191.837 5.58995H185.121ZM193.005 24.6124C194.785 24.6124 196.12 24.3204 197.01 23.7364C197.928 23.1524 198.387 22.2485 198.387 21.0249C198.387 18.6053 196.593 17.3956 193.005 17.3956L185.121 17.3956V24.6124L193.005 24.6124Z" fill="#DADADA"/>
<path d="M229.867 30.2024C226.836 30.2024 224.097 29.5488 221.649 28.2417C219.23 26.9346 217.325 25.1408 215.934 22.8604C214.572 20.5521 213.89 17.9657 213.89 15.1012C213.89 12.2367 214.572 9.66421 215.934 7.38373C217.325 5.07545 219.23 3.26775 221.649 1.96065C224.097 0.653551 226.836 0 229.867 0C232.899 0 235.624 0.653551 238.044 1.96065C240.463 3.26775 242.368 5.07545 243.759 7.38373C245.149 9.66421 245.845 12.2367 245.845 15.1012C245.845 17.9657 245.149 20.5521 243.759 22.8604C242.368 25.1408 240.463 26.9346 238.044 28.2417C235.624 29.5488 232.899 30.2024 229.867 30.2024ZM229.867 24.4456C231.592 24.4456 233.149 24.0562 234.54 23.2775C235.93 22.471 237.015 21.3586 237.793 19.9403C238.6 18.5219 239.003 16.9089 239.003 15.1012C239.003 13.2935 238.6 11.6805 237.793 10.2621C237.015 8.84379 235.93 7.74527 234.54 6.96657C233.149 6.16007 231.592 5.75681 229.867 5.75681C228.143 5.75681 226.586 6.16007 225.195 6.96657C223.805 7.74527 222.706 8.84379 221.9 10.2621C221.121 11.6805 220.732 13.2935 220.732 15.1012C220.732 16.9089 221.121 18.5219 221.9 19.9403C222.706 21.3586 223.805 22.471 225.195 23.2775C226.586 24.0562 228.143 24.4456 229.867 24.4456Z" fill="#DADADA"/>
<path d="M273.684 29.7018L266.634 19.5648L259.709 29.7018H251.95L262.755 14.8509L252.492 0.500591L260.168 0.500591L266.885 9.97013L273.476 0.500591L280.776 0.500591L270.597 14.6006L281.485 29.7018H273.684Z" fill="#DADADA"/>
</svg>
