<svg width="141" height="107" viewBox="0 0 141 107" fill="none" xmlns="http://www.w3.org/2000/svg">
<g clip-path="url(#clip0_637_2166)">
<path d="M93.6863 58.426C95.5422 58.4658 97.3381 57.7679 98.6801 56.4853L101.158 59.1529C99.5209 60.8344 97.2578 62.0797 93.7305 62.0797C87.6873 62.0797 83.787 58.072 83.787 52.6483C83.7627 51.4327 83.9783 50.2242 84.4216 49.0921C84.8648 47.9599 85.5269 46.9262 86.37 46.0502C87.2132 45.1742 88.2207 44.4731 89.3351 43.9869C90.4495 43.5007 91.6488 43.239 92.8645 43.2168H93.1995C99.1985 43.2168 102.599 47.7808 102.302 54.1148H88.1045C88.6102 56.7445 90.456 58.4197 93.6863 58.4197V58.426ZM98.0101 51.0742C97.6308 48.6216 96.1642 46.8136 93.2248 46.8136C91.99 46.7415 90.774 47.1416 89.8232 47.9327C88.8724 48.7239 88.258 49.8469 88.1045 51.0742H98.0101Z" fill="#252525"/>
<path d="M0.572266 58.2294L11.4893 47.1418H0.831441V43.6587H16.5463V47.2113L5.62935 58.299H16.6917V61.7757H0.572266V58.2294Z" fill="#252525"/>
<path d="M28.948 58.426C30.8039 58.4658 32.5998 57.7679 33.9418 56.4853L36.4198 59.1529C34.7826 60.8344 32.5195 62.0797 28.9922 62.0797C22.949 62.0797 19.0487 58.072 19.0487 52.6483C19.0244 51.4337 19.2396 50.2263 19.6821 49.0949C20.1245 47.9636 20.7855 46.9305 21.6273 46.0546C22.4691 45.1788 23.4752 44.4774 24.5881 43.9904C25.701 43.5035 26.899 43.2406 28.1136 43.2168H28.4486C34.4476 43.2168 37.8484 47.7808 37.5513 54.1148H23.3662C23.8719 56.7445 25.7178 58.4197 28.948 58.4197V58.426ZM33.2718 51.0742C32.8925 48.6216 31.4259 46.8136 28.4865 46.8136C27.2517 46.7415 26.0357 47.1416 25.0849 47.9327C24.1341 48.7239 23.5197 49.8469 23.3662 51.0742H33.2718Z" fill="#252525"/>
<path d="M61.1121 52.6669C61.1121 46.8702 65.4422 43.2481 70.2085 43.2481C71.3521 43.2333 72.4851 43.4689 73.528 43.9385C74.5709 44.4081 75.4984 45.1002 76.2454 45.9662V35.2705H80.1014V61.7254H76.2454V59.1968C75.5124 60.0992 74.5858 60.8252 73.5343 61.3208C72.4827 61.8165 71.3331 62.0693 70.1706 62.0604C68.971 62.0513 67.785 61.806 66.6802 61.3386C65.5755 60.8711 64.5736 60.1906 63.7319 59.3359C62.8901 58.4813 62.225 57.4692 61.7744 56.3574C61.3238 55.2457 61.0966 54.0561 61.1057 52.8565C61.1057 52.7807 61.1057 52.7111 61.1057 52.6416L61.1121 52.6669ZM76.4603 52.6037C76.4361 51.0694 75.8066 49.6069 74.7088 48.5347C73.611 47.4626 72.134 46.8678 70.5996 46.8799C69.0651 46.892 67.5977 47.51 66.5169 48.5993C65.4362 49.6886 64.8297 51.1609 64.8297 52.6953C64.8297 54.2298 65.4362 55.7021 66.5169 56.7914C67.5977 57.8807 69.0651 58.4987 70.5996 58.5108C72.134 58.5229 73.611 57.9281 74.7088 56.8559C75.8066 55.7838 76.4361 54.3213 76.4603 52.787V52.6037Z" fill="#252525"/>
<path d="M104.799 57.8816L108.289 56.0674C108.752 56.8898 109.43 57.5704 110.251 58.036C111.072 58.5015 112.004 58.7345 112.948 58.7097C115.128 58.7097 116.26 57.5908 116.26 56.3202C116.26 54.8726 114.149 54.5439 111.835 54.0761C108.744 53.444 105.514 52.4073 105.514 48.6777C105.514 45.8141 108.238 43.1718 112.537 43.2034C115.919 43.2034 118.428 44.5435 119.85 46.7181L116.658 48.4944C116.21 47.8315 115.601 47.2938 114.888 46.9321C114.174 46.5704 113.38 46.3967 112.581 46.4273C110.507 46.4273 109.452 47.445 109.452 48.6018C109.452 49.904 111.127 50.2707 113.744 50.8459C116.728 51.4781 120.11 52.4768 120.11 56.2444C120.11 58.7729 117.929 62.1169 112.758 62.079C108.965 62.079 106.316 60.5555 104.793 57.8753" fill="#252525"/>
<path d="M130.589 53.6783L127.53 57.0097V61.7254H123.674V35.2705H127.53V52.591L135.716 43.6021H140.413L133.314 51.3584L140.59 61.7254H136.228L130.589 53.6783Z" fill="#252525"/>
<path d="M49.4552 43.2417C44.8722 43.2417 41.0352 46.2127 41.0352 51.1434V61.7253H44.967V51.6112C44.967 48.6401 46.6738 46.8638 49.588 46.8638C52.5021 46.8638 53.956 48.6401 53.956 51.6112V61.7253H57.8689V51.137C57.8689 46.2064 54.0319 43.2354 49.4489 43.2354" fill="#252525"/>
</g>
<defs>
<clipPath id="clip0_637_2166">
<rect width="140.018" height="106.199" fill="white" transform="translate(0.572266)"/>
</clipPath>
</defs>
</svg>
