<svg width="100" height="100" viewBox="0 0 100 100" fill="none" xmlns="http://www.w3.org/2000/svg">
<g clip-path="url(#clip0_641_3669)">
<path d="M70.2461 41.863C70.2118 41.79 70.1538 41.7308 70.0816 41.6948C70.0094 41.6588 69.9272 41.6483 69.8483 41.6649C69.7693 41.6815 69.6983 41.7242 69.6467 41.7862C69.5951 41.8482 69.566 41.9258 69.564 42.0065C69.5403 44.2763 69.0823 46.5207 68.2146 48.6183C65.2364 55.8091 58.2568 60.0077 48.8622 60.0077H42.6225C39.3048 60.0078 36.123 61.3258 33.7771 63.6718C31.4312 66.0178 30.1133 69.1997 30.1133 72.5173V72.5173C30.1133 73.1755 30.3747 73.8066 30.8401 74.272C31.3055 74.7374 31.9366 74.9988 32.5947 74.9988H48.4433C60.949 74.9988 71.5815 65.383 72.2881 52.8996C72.5113 49.1096 71.8105 45.3222 70.2461 41.863V41.863Z" fill="#DADADA"/>
<path d="M40.3411 37.1623V40.9101H45.8904C47.6181 40.9087 49.3049 41.436 50.7243 42.4212C52.1437 43.4063 53.2277 44.8021 53.8308 46.4212C54.4338 48.0403 54.5271 49.8051 54.098 51.4788C53.669 53.1524 52.7381 54.6547 51.4305 55.784C57.33 54.4857 61.7416 51.0462 63.8737 45.8988C65.6052 41.7181 65.415 37.1404 63.0866 33.5474C62.3454 32.4078 61.4192 31.3998 60.3463 30.5649C56.4039 27.4769 50.8433 25.9189 45.8882 25.9189H32.804V29.6667H36.5517V33.4141H29.0146V37.1618H40.3398L40.3411 37.1623Z" fill="#DADADA"/>
<path d="M30.8884 25.9189H27.1406V29.6667H30.8884V25.9189Z" fill="#DADADA"/>
</g>
<defs>
<clipPath id="clip0_641_3669">
<rect width="45.1873" height="49.0805" fill="white" transform="translate(27.1406 25.9189)"/>
</clipPath>
</defs>
</svg>
