<svg width="164" height="164" viewBox="0 0 164 164" fill="none" xmlns="http://www.w3.org/2000/svg">
<path fill-rule="evenodd" clip-rule="evenodd" d="M103 78C103 91.8071 91.8071 103 78 103C64.1929 103 53 91.8071 53 78C53 64.1929 64.1929 53 78 53C91.8071 53 103 64.1929 103 78ZM96.7359 98.8081C91.774 103.279 85.2048 106 78 106C62.536 106 50 93.464 50 78C50 62.536 62.536 50 78 50C93.464 50 106 62.536 106 78C106 85.2048 103.279 91.774 98.8081 96.7359C98.8976 96.7933 98.9824 96.8611 99.0607 96.9393L113.061 110.939C113.646 111.525 113.646 112.475 113.061 113.061C112.475 113.646 111.525 113.646 110.939 113.061L96.9393 99.0607C96.8611 98.9824 96.7933 98.8976 96.7359 98.8081Z" fill="#DADADA"/>
</svg>
