<svg width="291" height="73" viewBox="0 0 291 73" fill="none" xmlns="http://www.w3.org/2000/svg">
<g clip-path="url(#clip0_445_4284)">
<path d="M116.167 0C115.639 4.11702 115.112 8.23404 114.587 12.3511C114.146 15.8272 113.711 19.3095 113.283 22.7978C113.195 23.3625 113.209 23.9382 113.324 24.4981C113.608 24.1966 113.9 23.8973 114.182 23.5912C116.413 21.1541 118.944 19.1364 122.207 18.2704C126.154 17.2207 129.896 17.5563 133.115 20.3221C135.267 22.1721 136.45 24.6296 136.94 27.3614C138.834 37.892 136.484 47.3117 129.1 55.2306C126.256 58.2844 122.66 60.0822 118.4 60.3769C114.234 60.6648 110.726 59.3499 107.979 56.1601C107.858 56.0196 107.721 55.8903 107.51 55.6704C104.634 58.7967 100.908 59.6809 96.7329 59.7693C96.8604 58.5383 96.9606 57.4229 97.0949 56.312C98.224 46.9852 99.3584 37.6585 100.498 28.3317C101.076 23.6116 101.57 18.8802 102.303 14.1851C103.082 9.19755 105.208 4.92183 109.538 1.97463C111.07 0.934039 112.816 0.462483 114.571 0.00226584L116.167 0ZM109.943 49.5425C112.916 51.9479 117.153 51.9411 119.759 49.4722C120.851 48.4265 121.778 47.2218 122.507 45.8993C124.706 41.9297 125.466 37.595 125.198 33.1062C125.1 31.7917 124.767 30.5051 124.217 29.3065C123.265 27.205 121.241 26.5861 119.172 27.6448C118.383 28.0151 117.673 28.534 117.082 29.1728C115.886 30.5329 114.801 31.9853 113.836 33.5165C110.849 38.4406 110.69 44.0652 109.943 49.5425Z" fill="#252525"/>
<path d="M140.297 73.0005C141.34 68.5179 142.1 63.9749 142.574 59.398C143.168 54.0703 143.855 48.7427 144.502 43.4309C145.136 38.2227 145.771 33.0137 146.407 27.8039C146.426 27.6566 146.407 27.5047 146.407 27.1964H140.944C140.944 25.0177 141.522 23.1836 142.699 21.5423C143.876 19.9009 145.408 18.8218 147.425 18.6472C147.746 17.0466 147.99 15.5164 148.365 14.0201C150.134 6.99214 154.66 2.70283 161.723 1.20656C164.412 0.637518 167.203 0.551368 169.951 0.258914C170.313 0.249631 170.676 0.26554 171.036 0.306524C170.652 2.3469 170.324 4.31925 169.898 6.26894C169.525 7.97379 168.261 8.83074 166.668 9.26602C166.155 9.38426 165.635 9.46983 165.111 9.52221C162.8 9.8396 161.209 11.0752 160.371 13.2402C159.713 14.9405 159.431 16.7202 159.319 18.6812H167.59C167.396 21.2045 166.814 23.3877 165.175 25.2331C163.41 27.2213 161.077 27.2621 158.632 27.1442C158.359 29.3569 158.095 31.4517 157.84 33.5374C157.102 39.6086 156.385 45.6821 155.625 51.7489C155.263 54.6326 154.965 57.5344 154.384 60.3638C153.628 64.0614 151.969 67.3373 149.046 69.8855C147.344 71.3523 145.285 72.3483 143.075 72.7738C142.828 72.8353 142.584 72.911 142.346 73.0005H140.297Z" fill="#252525"/>
<path d="M6.84532 60.103C4.56886 46.3033 2.2924 32.6101 0 18.6925C0.981155 18.8217 1.84849 18.8353 2.65891 19.0575C8.12241 20.556 11.8148 23.9022 12.9235 29.5382C13.4084 32.0025 13.3401 34.5757 13.4903 37.1012C13.6815 40.334 13.8432 43.5692 14.1915 46.861C14.3417 46.4982 14.5033 46.1378 14.6467 45.7705C16.6197 40.6696 18.5979 35.5679 20.5815 30.4654C21.7197 27.5522 23.2199 24.8635 25.4895 22.6553C28.0733 20.1412 31.1989 18.8761 34.782 18.6812C35.0292 18.6871 35.2756 18.7098 35.5196 18.7492C36.7337 28.0971 37.944 37.4163 39.1506 46.7068L39.3486 46.7385C39.4647 46.4189 39.5922 46.1015 39.6969 45.7773C41.213 41.0346 42.6905 36.2782 44.2498 31.5491C45.6408 27.3346 47.8102 23.6143 51.6165 21.0888C53.8739 19.5969 56.5153 18.7846 59.2244 18.7492C59.4479 18.7586 59.6706 18.7813 59.8914 18.8172C59.6638 19.3749 59.4794 19.8578 59.2836 20.3407C55.4895 29.6357 51.6954 38.9307 47.9013 48.2257C46.4648 51.7465 44.498 54.8864 41.3633 57.1716C38.5746 59.212 35.4217 60.0871 31.8249 60.0848C30.5987 51.5243 29.3739 42.985 28.1507 34.4668L27.9686 34.4215C27.8411 34.6958 27.7 34.9633 27.5907 35.2422C25.9972 39.3592 24.4037 43.477 22.8101 47.5955C21.3942 51.2364 19.4797 54.5464 16.3131 56.988C13.5791 59.0941 10.4535 60.0486 6.84532 60.103Z" fill="#252525"/>
<path d="M259.059 34.4211C258.922 34.7521 258.779 35.0808 258.649 35.4141C257.056 39.5311 255.485 43.6549 253.884 47.7674C252.653 50.9413 250.998 53.8386 248.446 56.1556C245.516 58.8172 242.047 60.064 237.988 60.0867C235.712 46.3119 233.469 32.5984 231.204 18.8258C232.85 18.6603 234.284 19.0276 235.632 19.608C240.968 21.8955 244.078 25.7926 244.362 31.7301C244.59 36.4909 244.895 41.2314 245.17 45.9809C245.184 46.2371 245.227 46.491 245.289 47.0329C245.566 46.3822 245.744 45.9855 245.908 45.5774C247.9 40.4425 249.86 35.2962 251.883 30.1726C253.306 26.5679 255.314 23.3555 258.585 21.1042C260.96 19.4629 263.616 18.7261 266.685 18.6943C267.903 28.0574 269.116 37.3932 270.366 47.0147C270.576 46.5386 270.703 46.3029 270.783 46.0535C272.363 41.1339 273.895 36.1985 275.522 31.2948C276.888 27.1936 279.035 23.5867 282.725 21.1201C285.179 19.4765 287.908 18.7215 291.002 18.7714C290.831 19.2248 290.713 19.5649 290.576 19.905C286.744 29.3043 282.913 38.7028 279.083 48.1007C277.783 51.2746 276.071 54.1968 273.405 56.4571C270.418 58.9917 266.935 60.1071 262.933 60.0958C261.706 51.5239 260.486 43.0156 259.266 34.5072L259.059 34.4211Z" fill="#252525"/>
<path d="M227.851 35.5255C227.362 44.2084 224.291 51.5878 217.152 56.8678C212.424 60.3636 207.015 61.3589 201.289 60.2208C195.789 59.1281 192.122 55.7433 190.192 50.5472C186.474 40.5471 190.497 26.3892 201.601 20.4721C205.926 18.1642 210.527 17.3639 215.349 18.4476C221.837 19.9053 226.465 24.9654 227.473 31.6125C227.664 32.9138 227.728 34.2333 227.851 35.5255ZM201.055 43.1882C201.374 44.918 201.54 46.6954 202.047 48.3708C202.708 50.5494 204.349 51.5333 206.641 51.4721C208.442 51.4223 210.026 50.7557 211.14 49.3864C212.126 48.2008 212.946 46.8876 213.578 45.4825C215.214 41.6647 215.626 37.6067 215.331 33.5055C215.201 32.1219 214.847 30.7683 214.283 29.4973C213.628 27.9421 212.262 27.2302 210.55 27.1917C208.701 27.1486 207.156 27.8333 205.829 29.0688C204.618 30.2024 203.78 31.5853 203.133 33.0861C201.729 36.2963 201.403 39.7015 201.055 43.1882Z" fill="#252525"/>
<path d="M69.7141 43.075C69.5871 44.6971 69.8851 46.3243 70.5791 47.7973C71.7379 50.1868 73.8231 51.0709 76.3227 51.1979C78.3403 51.3148 80.3528 50.8937 82.1527 49.9782C83.8691 49.1054 85.6743 48.618 87.6344 48.8832C89.8699 49.1734 91.5795 50.3138 92.9932 51.9959C92.9499 52.1319 92.9454 52.2634 92.8771 52.3337C88.7271 56.5323 83.9579 59.5657 77.9207 60.23C72.958 60.7763 68.2162 60.2844 64.048 57.2261C60.6743 54.7527 58.6619 51.3657 58.004 47.3099C56.7701 39.7174 58.095 32.5738 62.8938 26.4233C67.6926 20.2727 74.1942 17.3323 82.0958 17.9376C85.7654 18.2187 88.9729 19.6243 91.5203 22.3924C95.2696 26.4731 94.6573 33.6303 90.1544 37.0309C87.565 38.96 84.5891 40.3116 81.4287 40.9938C78.0368 41.7623 74.5834 42.2611 71.1551 42.8709C70.7157 42.9503 70.265 43.0024 69.7141 43.075ZM70.5427 35.385C72.4572 35.0178 74.1304 34.7502 75.7786 34.3648C76.9239 34.1195 78.0407 33.7571 79.1113 33.2834C80.1354 32.8138 81.083 32.1941 81.9227 31.4448C82.8902 30.5607 83.0382 28.874 82.4532 27.7676C81.7953 26.5207 80.6866 26.0764 79.3344 26.1376C77.3806 26.1975 75.5287 27.0199 74.1782 28.4274C72.3275 30.3181 71.3395 32.6464 70.5427 35.3918V35.385Z" fill="#252525"/>
<path d="M175.595 0.227051C178.531 0.410684 180.721 1.70519 182.488 3.76143C184.562 6.11462 185.73 9.12525 185.782 12.2562C185.83 14.8815 185.554 17.5249 185.251 20.1434C184.587 25.9516 183.833 31.7531 183.087 37.5523C182.501 42.1159 182.051 46.7067 181.213 51.225C180.396 55.6254 178.208 59.3457 174.409 61.9528C172.487 63.2592 170.226 63.9829 167.9 64.0363C167.638 64.0257 167.376 63.9969 167.117 63.9501C167.365 62.7282 167.65 61.5629 167.83 60.384C168.46 56.2103 169.102 52.0344 169.651 47.8493C170.411 42.0887 171.092 36.319 171.807 30.5515C172.534 24.7115 173.261 18.8715 173.99 13.0315L175.595 0.227051Z" fill="#252525"/>
</g>
<defs>
<clipPath id="clip0_445_4284">
<rect width="291" height="73" fill="white"/>
</clipPath>
</defs>
</svg>
