<svg xmlns="http://www.w3.org/2000/svg" width="1371.692" height="1378.184" viewBox="0 0 1371.692 1378.184">
  <g>
    <path d="M707.038,0,820.77,12.344l-2.309,21.275-44.737-4.855L760.668,149.058l-24.059-2.612L749.665,26.152l-44.936-4.877Z" fill="#dadada"/>
    <path d="M856.893,175.051q-27.948-9.126-39.3-34.923-11.61-25.669-1.178-57.61,10.242-31.371,34.7-45.057,24.391-13.5,52.152-4.433Q931.4,42.214,943.32,67.566q11.6,25.674,1.426,56.851-10.428,31.941-34.945,45.816Q885.03,184.237,856.893,175.051Zm-18.3-43.844q6.621,17.733,25.065,23.752t34.443-4.323q15.81-10.407,23.446-33.792,7.324-22.431.7-40.166-6.939-17.413-25.38-23.435-18.636-6.083-34.129,4.006Q846.929,67.658,839.607,90.09,831.974,113.476,838.6,131.207Z" fill="#dadada"/>
    <path d="M996.214,72.537l49.63,29.234q19.3,11.368,24.422,27.5t-5.436,34.054q-10.863,18.441-27.864,21.887T999.8,176.783l-27.4-16.14-27.61,46.873L923.94,195.233Zm-13.358,70.357,26.367,15.53q11.025,6.495,20.207,4.708t14.964-11.612q5.683-9.65,2.82-18.186t-13.2-14.625l-27.4-16.14Z" fill="#dadada"/>
    <path d="M1129.291,297.29l-62.5-60.519,13.635-14.082,62.5,60.52Z" fill="#dadada"/>
    <path d="M1239.164,273.3l61.272,96.608-18.072,11.461-24.1-38-102.182,64.807-12.962-20.437L1245.3,322.933l-24.208-38.17Z" fill="#dadada"/>
    <path d="M1195.785,499.639q-10.3-27.537,2.783-52.5,12.823-25.086,44.3-36.854,30.909-11.562,56.86-.982,25.761,10.647,35.993,38,10.368,27.721-2.012,52.854-12.829,25.083-43.547,36.574-31.47,11.771-57.608,1.261Q1206.154,527.363,1195.785,499.639Zm22.859-41.648q-9.732,16.237-2.932,34.408t24.862,24.225q17.994,5.866,41.037-2.75,22.1-8.268,31.832-24.5,9.285-16.284,2.488-34.455-6.867-18.36-24.417-24.178-18-5.87-40.1,2.4Q1228.373,441.755,1218.644,457.991Z" fill="#dadada"/>
    <path d="M1362.816,544.636l8.089,57.029q3.145,22.175-6.272,36.24t-30.013,16.984q-21.19,3.006-34.484-8.138t-16.583-34.312l-4.466-31.484-53.861,7.64-3.4-23.96Zm-63.334,33.426,4.3,30.3q1.8,12.67,8.919,18.734t18.409,4.459q11.088-1.574,15.976-9.135t3.2-19.442l-4.467-31.485Z" fill="#dadada"/>
    <path d="M1270.235,788.831l8.219-86.61,19.512,1.85-8.218,86.612Z" fill="#dadada"/>
    <path d="M1357.521,859.859l-37.386,108.12-20.225-7,14.706-42.529L1200.26,878.913l7.908-22.872,114.356,39.543,14.772-42.718Z" fill="#dadada"/>
    <path d="M1153.438,966.91q15.124-25.211,42.8-30.53,27.61-5.6,56.424,11.691,28.3,16.977,36.189,43.867,7.722,26.787-7.3,51.828-15.226,25.38-42.6,31.353-27.612,5.591-55.738-11.28-28.812-17.286-36.875-44.278Q1138.211,992.292,1153.438,966.91Zm46.818-8.064q-18.764,2.5-28.741,19.141t-3.462,34.54q6.621,17.731,27.717,30.388,20.234,12.14,39,9.635,18.52-2.883,28.5-19.519,10.083-16.811,3.7-34.163-6.622-17.736-26.859-29.873Q1219.019,956.341,1200.256,958.846Z" fill="#dadada"/>
    <path d="M1222.488,1125.433,1183,1167.369q-15.354,16.307-32.221,17.735t-32.008-12.831q-15.582-14.673-15.182-32.014t16.438-34.38l21.8-23.152-39.606-37.292,16.588-17.62Zm-65.66-28.585-20.977,22.279q-8.772,9.316-9.059,18.665t8.015,17.162q8.152,7.676,17.111,6.772t17.184-9.644l21.8-23.151Z" fill="#dadada"/>
    <path d="M973.871,1205.581,1046.705,1158l10.72,16.408-72.834,47.584Z" fill="#dadada"/>
    <path d="M972.79,1318.1l-107.828,38.213-7.149-20.17,42.416-15.032L859.81,1207.061l22.81-8.084,40.418,114.049,42.6-15.1Z" fill="#dadada"/>
    <path d="M761.823,1225.334q29.142-3.9,50.558,14.429,21.591,18.1,26.04,51.4,4.372,32.709-11.731,55.645-16.128,22.737-45.072,26.606-29.336,3.921-51.072-13.755-21.588-18.1-25.935-50.609-4.451-33.3,11.625-56.439Q732.484,1229.256,761.823,1225.334Zm35.5,31.575q-13.655-13.109-32.885-10.535T735.272,1265.2q-9.734,16.231-6.476,40.616,3.127,23.39,16.784,36.5,13.8,12.682,33.031,10.114,19.429-2.6,29.017-18.408,9.738-16.236,6.608-39.625Q810.977,1270.017,797.32,1256.909Z" fill="#dadada"/>
    <path d="M681.107,1378.184l-57.413-4.637q-22.323-1.8-33.976-14.081t-9.976-33.01q1.724-21.334,15.515-31.854t37.116-8.641l31.7,2.56,4.379-54.223,24.122,1.948Zm-18.7-69.129-30.5-2.464q-12.756-1.03-20.235,4.586t-8.394,16.979q-.9,11.163,5.4,17.592t18.263,7.395l31.7,2.559Z" fill="#dadada"/>
    <path d="M463.262,1233.928l82.6,27.3-6.151,18.611-82.605-27.306Z" fill="#dadada"/>
    <path d="M374.6,1303.152l-97.076-60.529,11.323-18.159,38.185,23.809L391.054,1145.6l20.535,12.8-64.021,102.676,38.355,23.915Z" fill="#dadada"/>
    <path d="M315.575,1080.376q21.242,20.325,20.309,48.5-.649,28.164-23.88,52.441-22.813,23.844-50.783,25.593-27.831,1.608-48.93-18.582-21.386-20.46-21.157-48.476.654-28.166,23.327-51.864,23.227-24.276,51.336-26.171Q294.188,1059.913,315.575,1080.376Zm-2.489,47.442q1.71-18.852-12.312-32.262t-32.92-11.015q-18.753,2.535-35.763,20.311-16.314,17.051-18.022,35.9-1.284,18.7,12.734,32.112,14.163,13.553,32.5,11.165,18.762-2.535,35.073-19.588Q311.38,1146.671,313.086,1127.818Z" fill="#dadada"/>
    <path d="M145.691,1112.691l-32.177-47.774q-12.513-18.576-10.181-35.342t19.586-28.383q17.751-11.955,34.576-7.735t29.9,23.627l17.764,26.375,45.12-30.39,13.519,20.072Zm42.383-57.724-17.095-25.38q-7.148-10.613-16.2-12.958t-18.507,4.025q-9.29,6.256-10.385,15.194t5.609,18.888l17.765,26.375Z" fill="#dadada"/>
    <path d="M122.62,852.459l30.18,81.6-18.383,6.8-30.18-81.6Z" fill="#dadada"/>
    <path d="M13.207,826.289,0,712.654l21.257-2.47,5.2,44.7,120.192-13.969,2.793,24.038L29.246,778.921l5.218,44.9Z" fill="#dadada"/>
    <path d="M150.486,641.186q-2.6,29.284-25.181,46.153-22.4,17.088-55.867,14.113-32.872-2.919-51.709-23.667Q-.912,657.057,1.672,627.97q2.619-29.482,24.638-46.805,22.4-17.083,55.07-14.184,33.468,2.973,52.506,23.739Q153.1,611.7,150.486,641.186Zm-38.6,27.694q15.788-10.443,17.5-29.769t-11.965-32.586q-13.7-13.062-38.2-15.239-23.5-2.087-39.294,8.357-15.4,10.678-17.121,30Q21.072,649.172,34.391,662q13.7,13.067,37.205,15.151Q96.1,679.325,111.886,668.88Z" fill="#dadada"/>
    <path d="M19.193,528.534l17.3-54.94q6.727-21.361,21.291-29.99t34.4-2.375q20.415,6.428,27.6,22.215t.161,38.109L110.4,531.885l51.888,16.34-7.268,23.082ZM90.749,525.7,99.94,496.51q3.845-12.207.035-20.748T85.29,463.8q-10.682-3.365-18.353,1.349t-11.275,16.16L46.11,511.64Z" fill="#dadada"/>
    <path d="M208.408,348.3l-45.029,74.44-16.771-10.144,45.03-74.441Z" fill="#dadada"/>
    <path d="M160.507,246.583,241,165.288,256.2,180.345l-31.661,31.977,85.985,85.133-17.026,17.2L207.516,229.52l-31.8,32.12Z" fill="#dadada"/>
    <path d="M390.812,238.227q-24.514,16.227-51.784,9.093-27.324-6.853-45.87-34.875-18.215-27.517-13.742-55.182,4.584-27.5,28.933-43.617,24.68-16.335,51.953-9.924,27.325,6.861,45.428,34.208,18.548,28.017,14.184,55.85Q415.5,221.89,390.812,238.227Zm-45.72-12.909q18.009,5.832,34.185-4.88t18.015-29.672q1.67-18.853-11.908-39.368-13.024-19.677-31.035-25.507-17.955-5.385-34.131,5.324-16.349,10.819-18.07,29.228-1.671,18.859,11.357,38.535Q327.083,219.489,345.092,225.318Z" fill="#dadada"/>
    <path d="M396.984,65.358,450.72,44.615q20.893-8.067,36.72-2.062t23.315,25.408q7.709,19.967-.151,35.432t-29.686,23.894l-29.666,11.451,19.591,50.75L448.266,198.2Zm46.849,54.163L472.38,108.5q11.938-4.608,16.238-12.914t.193-18.941q-4.033-10.446-12.5-13.5t-19.663,1.266L426.979,75.861Z" fill="#dadada"/>
    <path d="M655.873,100.868,569.6,112.081l-2.527-19.436,86.275-11.213Z" fill="#dadada"/>
  </g>
</svg>
