<svg width="40" height="40" viewBox="0 0 40 40" fill="none" xmlns="http://www.w3.org/2000/svg">
<path d="M20 39.4641C30.7497 39.4641 39.4641 30.7497 39.4641 20C39.4641 9.25027 30.7497 0.535889 20 0.535889C9.25027 0.535889 0.535889 9.25027 0.535889 20C0.535889 30.7497 9.25027 39.4641 20 39.4641Z" fill="#252525"/>
<path d="M12.2142 27.7858C13.6475 27.7858 14.8094 26.6238 14.8094 25.1906C14.8094 23.7573 13.6475 22.5953 12.2142 22.5953C10.7809 22.5953 9.61902 23.7573 9.61902 25.1906C9.61902 26.6238 10.7809 27.7858 12.2142 27.7858Z" fill="#DADADA"/>
<path d="M27.7858 25.1904C29.2191 25.1904 30.381 24.0285 30.381 22.5952C30.381 21.1619 29.2191 20 27.7858 20C26.3525 20 25.1906 21.1619 25.1906 22.5952C25.1906 24.0285 26.3525 25.1904 27.7858 25.1904Z" fill="#DADADA"/>
<path d="M17.4048 14.8096C18.8381 14.8096 20 13.6477 20 12.2144C20 10.7811 18.8381 9.61914 17.4048 9.61914C15.9715 9.61914 14.8096 10.7811 14.8096 12.2144C14.8096 13.6477 15.9715 14.8096 17.4048 14.8096Z" fill="#DADADA"/>
</svg>
