<svg width="29" height="29" viewBox="0 0 29 29" fill="none" xmlns="http://www.w3.org/2000/svg">
<path d="M14.5 26.9219C21.3604 26.9219 26.9219 21.3604 26.9219 14.5C26.9219 7.63959 21.3604 2.07812 14.5 2.07812C7.63959 2.07812 2.07812 7.63959 2.07812 14.5C2.07812 21.3604 7.63959 26.9219 14.5 26.9219Z" stroke="#DADADA" stroke-width="2" stroke-linecap="round" stroke-linejoin="round"/>
<path d="M9.53125 19.4688C10.446 19.4688 11.1875 18.7272 11.1875 17.8125C11.1875 16.8978 10.446 16.1562 9.53125 16.1562C8.61653 16.1562 7.875 16.8978 7.875 17.8125C7.875 18.7272 8.61653 19.4688 9.53125 19.4688Z" fill="#DADADA"/>
<path d="M19.4688 17.8125C20.3835 17.8125 21.125 17.071 21.125 16.1562C21.125 15.2415 20.3835 14.5 19.4688 14.5C18.554 14.5 17.8125 15.2415 17.8125 16.1562C17.8125 17.071 18.554 17.8125 19.4688 17.8125Z" fill="#DADADA"/>
<path d="M12.8438 11.1875C13.7585 11.1875 14.5 10.446 14.5 9.53125C14.5 8.61653 13.7585 7.875 12.8438 7.875C11.929 7.875 11.1875 8.61653 11.1875 9.53125C11.1875 10.446 11.929 11.1875 12.8438 11.1875Z" fill="#DADADA"/>
</svg>
